# 3ds Max Wavefront OBJ Exporter v0.99 - (c)2007 guruware
# File Created: 13.03.2026 18:31:16

mtllib planta.mtl

#
# object Mesh_Cube
#

v  -0.2421 -0.1437 3.6797
v  -0.2107 0.0556 3.6964
v  -0.2164 0.0543 3.7134
v  -0.2478 -0.1450 3.6967
v  -0.2271 0.0554 3.7278
v  -0.2586 -0.1438 3.7110
v  -0.2214 0.0568 3.7108
v  -0.2529 -0.1425 3.6940
v  -0.1811 0.2246 3.7352
v  -0.2769 -0.2416 3.6848
v  -0.2804 -0.2420 3.6934
v  -0.1440 0.4895 3.8645
v  -0.1376 0.4895 3.8612
v  -0.1417 0.5401 3.8607
v  -0.2765 -0.2424 3.6881
v  -0.3269 -0.1354 3.6530
v  -0.3494 0.0804 3.6109
v  -0.3336 0.0788 3.5991
v  -0.3110 -0.1371 3.6411
v  -0.3148 0.0805 3.5927
v  -0.2923 -0.1353 3.6347
v  -0.3307 0.0822 3.6045
v  -0.3082 -0.1337 3.6466
v  -0.3557 0.2622 3.5511
v  -0.2871 -0.2400 3.6723
v  -0.2813 -0.2406 3.6679
v  -0.2940 -0.2406 3.6746
v  -0.2882 -0.2413 3.6703
v  -0.3050 -0.1489 3.6938
v  -0.3172 -0.1496 3.6826
v  -0.3082 -0.2483 3.6804
v  -0.3005 -0.2480 3.6859
v  -0.2897 -0.1485 3.7005
v  0.0933 -0.2494 3.8506
v  0.1022 0.3146 3.8577
v  0.0995 -0.2495 3.8554
v  -0.3020 -0.1492 3.6892
v  -0.3026 -0.2482 3.6828
v  -0.1548 0.4756 3.8685
v  -0.1417 0.4756 3.8760
v  0.0990 0.3146 3.8654
v  0.1137 0.3334 3.8694
v  0.1006 0.3335 3.8768
v  -0.3020 0.0424 3.6842
v  -0.3172 0.0420 3.6776
v  -0.3063 0.0887 3.6878
v  -0.2897 0.0432 3.6955
v  -0.3138 -0.1598 3.5281
v  -0.3085 0.0649 3.5307
v  -0.2936 0.0644 3.5182
v  -0.2988 -0.1604 3.5156
v  -0.2754 0.0635 3.5112
v  -0.2806 -0.1612 3.5086
v  -0.2903 0.0640 3.5237
v  -0.2956 -0.1607 3.5211
v  -0.2921 0.2621 3.5092
v  -0.2885 -0.2768 3.5237
v  -0.2830 -0.2769 3.5191
v  -0.2928 -0.2765 3.5244
v  0.1044 0.3157 3.8638
v  -0.2403 -0.1465 3.5367
v  -0.2434 -0.1444 3.5597
v  -0.2840 -0.2679 3.5539
v  -0.2829 -0.2686 3.5455
v  -0.2445 -0.1445 3.5139
v  -0.2844 -0.2679 3.5371
v  -0.2476 -0.1425 3.5369
v  -0.2855 -0.2672 3.5455
v  -0.1844 0.1067 3.5350
v  -0.1885 0.1085 3.5122
v  -0.1225 0.3218 3.5368
v  -0.1875 0.1087 3.5580
v  -0.1916 0.1107 3.5352
v  -0.3316 -0.1558 3.5741
v  -0.3411 -0.1544 3.5553
v  -0.3112 -0.2695 3.5415
v  -0.3077 -0.2700 3.5484
v  -0.3168 -0.1542 3.5889
v  -0.3022 -0.2694 3.5539
v  -0.3262 -0.1528 3.5702
v  -0.3057 -0.2689 3.5470
v  -0.3657 0.0779 3.5984
v  -0.3508 0.0794 3.6132
v  -0.4069 0.2777 3.6240
v  -0.3751 0.0793 3.5796
v  -0.3603 0.0809 3.5945
v  -0.0925 -0.1542 3.6512
v  -0.1300 0.0794 3.6328
v  -0.1240 0.0779 3.6127
v  -0.0864 -0.1558 3.6311
v  -0.1119 0.0793 3.5954
v  -0.0744 -0.1544 3.6139
v  -0.1180 0.0809 3.6156
v  -0.0804 -0.1528 3.6340
v  -0.1661 0.2777 3.5885
v  -0.0503 -0.2689 3.6410
v  -0.0481 -0.2695 3.6336
v  -0.0547 -0.2694 3.6474
v  -0.0525 -0.2700 3.6400
v  0.0079 -0.1445 3.6792
v  0.0359 0.1085 3.7277
v  0.0178 0.1067 3.7422
v  -0.0102 -0.1465 3.6937
v  -0.0039 0.1087 3.7504
v  -0.0319 -0.1444 3.7019
v  0.0143 0.1107 3.7359
v  -0.0138 -0.1425 3.6874
v  0.0456 0.3218 3.7975
v  -0.0394 -0.2672 3.6581
v  -0.0461 -0.2679 3.6635
v  -0.0314 -0.2679 3.6551
v  -0.0381 -0.2686 3.6604
v  -0.0194 -0.1604 3.6322
v  -0.0046 -0.1612 3.6449
v  -0.0150 -0.2769 3.6478
v  -0.0243 -0.2765 3.6417
v  -0.0375 -0.1598 3.6250
v  0.0922 -0.2495 3.8583
v  -0.0227 -0.1607 3.6377
v  -0.0217 -0.2768 3.6452
v  -0.0192 0.0644 3.6381
v  -0.0373 0.0649 3.6309
v  -0.0106 0.2621 3.6351
v  -0.0044 0.0635 3.6508
v  -0.0225 0.0640 3.6436
v  0.1018 -0.1628 3.8243
v  0.1020 0.0620 3.8302
v  0.1201 0.0615 3.8374
v  0.1199 -0.1633 3.8315
v  0.1349 0.0606 3.8501
v  0.1347 -0.1641 3.8442
v  0.1168 0.0611 3.8429
v  0.1166 -0.1636 3.8370
v  0.1287 0.2592 3.8344
v  0.1176 -0.2797 3.8445
v  0.1242 -0.2799 3.8471
v  0.1150 -0.2794 3.8410
v  0.0968 0.3158 3.8593
v  0.1290 -0.1494 3.8930
v  0.1073 -0.1473 3.9012
v  0.0931 -0.2708 3.8628
v  0.1011 -0.2715 3.8597
v  0.1472 -0.1474 3.8785
v  0.1078 -0.2708 3.8544
v  0.1255 -0.1454 3.8867
v  0.0998 -0.2701 3.8574
v  0.1571 0.1038 3.9415
v  0.1752 0.1056 3.9270
v  0.1849 0.3189 3.9968
v  0.1354 0.1058 3.9497
v  0.1535 0.1077 3.9352
v  0.0528 -0.1587 3.8304
v  0.0648 -0.1573 3.8132
v  0.0911 -0.2724 3.8329
v  0.0867 -0.2729 3.8393
v  0.0468 -0.1571 3.8505
v  0.0845 -0.2723 3.8467
v  0.0588 -0.1557 3.8333
v  0.0889 -0.2718 3.8403
v  0.0153 0.0750 3.8120
v  0.0093 0.0765 3.8321
v  -0.0269 0.2748 3.7878
v  0.0273 0.0764 3.7947
v  0.0213 0.0780 3.8149
v  -0.1775 -0.1571 3.7882
v  -0.2115 0.0765 3.8125
v  -0.2264 0.0750 3.7977
v  -0.1924 -0.1587 3.7734
v  -0.2359 0.0764 3.7789
v  -0.2019 -0.1573 3.7546
v  -0.2210 0.0780 3.7938
v  -0.1870 -0.1557 3.7695
v  -0.2677 0.2748 3.8233
v  -0.1665 -0.2718 3.7463
v  -0.1720 -0.2724 3.7408
v  -0.1630 -0.2723 3.7532
v  -0.1685 -0.2729 3.7477
v  -0.1052 -0.1474 3.7132
v  -0.0493 0.1056 3.7115
v  -0.0451 0.1038 3.7343
v  -0.1011 -0.1494 3.7360
v  -0.0482 0.1058 3.7573
v  -0.1042 -0.1473 3.7590
v  -0.0524 0.1077 3.7345
v  -0.1083 -0.1454 3.7361
v  0.0168 0.3189 3.7361
v  -0.1463 -0.2701 3.7448
v  -0.1448 -0.2708 3.7532
v  -0.1452 -0.2708 3.7364
v  -0.1436 -0.2715 3.7448
v  -0.1596 -0.1633 3.7149
v  -0.1414 -0.1641 3.7079
v  -0.1438 -0.2799 3.7184
v  -0.1535 -0.2794 3.7237
v  -0.1745 -0.1628 3.7274
v  -0.1563 -0.1636 3.7204
v  -0.1493 -0.2797 3.7230
v  -0.1543 0.0615 3.7175
v  -0.1692 0.0620 3.7300
v  -0.1529 0.2592 3.7085
v  -0.1361 0.0606 3.7105
v  -0.1511 0.0611 3.7230
v  -0.1505 -0.1514 3.8998
v  -0.1505 0.0402 3.8947
v  -0.1671 0.0858 3.8871
v  -0.1657 -0.1518 3.8931
v  -0.1780 0.0391 3.8769
v  -0.1780 -0.1526 3.8819
v  -0.1627 0.0395 3.8835
v  -0.1627 -0.1521 3.8885
v  -0.1287 0.4756 3.8685
v  -0.1634 -0.2511 3.8821
v  -0.1690 -0.2513 3.8797
v  -0.1613 -0.2509 3.8852
v  0.1020 0.4371 3.8480
v  0.0889 0.4371 3.8554
v  0.1001 0.4509 3.8595
v  -0.1718 -0.1400 3.8404
v  -0.1531 -0.1382 3.8340
v  -0.1420 -0.2435 3.8672
v  -0.1489 -0.2442 3.8696
v  -0.1876 -0.1383 3.8523
v  -0.1548 -0.2436 3.8739
v  -0.1689 -0.1366 3.8459
v  -0.1479 -0.2429 3.8716
v  -0.1943 0.0759 3.7983
v  -0.2102 0.0775 3.8102
v  -0.2164 0.2593 3.7504
v  -0.1756 0.0776 3.7920
v  -0.1914 0.0793 3.8038
v  -0.1086 -0.1479 3.8960
v  -0.1193 -0.1467 3.9103
v  -0.1412 -0.2449 3.8927
v  -0.1372 -0.2453 3.8874
v  -0.1029 -0.1466 3.8790
v  -0.1376 -0.2445 3.8841
v  -0.1136 -0.1454 3.8933
v  0.0877 0.3336 3.8692
v  0.1017 0.4368 3.8781
v  0.0887 0.4370 3.8704
v  -0.0771 0.0513 3.9127
v  -0.0714 0.0526 3.8957
v  -0.0419 0.2217 3.9345
v  -0.0879 0.0525 3.9271
v  -0.0821 0.0539 3.9101
v  -0.3008 -0.2530 3.5388
v  -0.3017 0.3573 3.5397
v  -0.2944 0.3573 3.5427
v  -0.2941 -0.2530 3.5440
v  0.1149 0.4369 3.8556
v  0.0878 0.3337 3.8541
v  -0.3007 0.3573 3.5476
v  -0.3019 -0.2530 3.5472
v  0.1148 0.4368 3.8707
v  0.1061 0.4509 3.8634
v  0.1009 0.3337 3.8467
v  0.1139 0.3336 3.8544
v  0.1025 0.5015 3.8635
v  -0.3130 0.3778 3.5352
v  -0.2989 0.3778 3.5271
v  -0.3130 0.3778 3.5515
v  -0.2989 0.3778 3.5596
v  -0.2848 0.3778 3.5515
v  -0.2848 0.3778 3.5352
v  -0.2989 0.4897 3.5271
v  -0.2848 0.4897 3.5352
v  -0.2848 0.4897 3.5515
v  -0.2989 0.4897 3.5596
v  -0.3130 0.4897 3.5515
v  -0.3130 0.4897 3.5352
v  -0.3010 0.5047 3.5393
v  -0.3014 0.5048 3.5471
v  0.0997 0.4509 3.8667
v  -0.2944 0.5048 3.5436
v  -0.2989 0.5595 3.5431
v  -0.1436 0.4895 3.8572
v  -0.0513 0.5330 3.6499
v  -0.0517 0.5330 3.6588
v  -0.0490 0.5954 3.6542
v  -0.0438 0.5330 3.6547
v  -0.0329 0.5158 3.6452
v  -0.0490 0.5158 3.6359
v  -0.0329 0.5158 3.6638
v  -0.0490 0.5158 3.6730
v  -0.0650 0.5158 3.6638
v  -0.0650 0.5158 3.6452
v  -0.0490 0.3882 3.6359
v  -0.0650 0.3882 3.6452
v  -0.0650 0.3882 3.6638
v  -0.0490 0.3882 3.6730
v  -0.0329 0.3882 3.6638
v  -0.0329 0.3882 3.6452
v  -0.0438 0.3648 3.6538
v  -0.0521 0.3648 3.6504
v  -0.1287 0.4756 3.8534
v  -0.1417 0.4756 3.8459
v  -0.0509 0.3648 3.6593
v  -0.0524 -0.3313 3.6589
v  -0.0511 -0.3313 3.6493
v  -0.0434 -0.3313 3.6552
v  -0.1435 -0.2109 3.8568
v  -0.1401 0.3532 3.8571
v  -0.1372 -0.2109 3.8616
v  -0.1379 0.3544 3.8632
v  -0.1433 0.3532 3.8648
v  -0.1445 -0.2109 3.8645
v  -0.1455 0.3544 3.8588
v  -0.1548 0.3722 3.8534
v  -0.1417 0.3722 3.8459
v  -0.1548 0.3722 3.8685
v  -0.1417 0.3722 3.8760
v  -0.1287 0.3722 3.8685
v  -0.1287 0.3722 3.8534
v  -0.1548 0.4756 3.8534
# 314 vertices

vn 0.9377 -0.1734 0.3010
vn 0.7816 -0.1738 0.5991
vn -0.9377 0.1734 -0.3010
vn -0.7816 0.1738 -0.5991
vn -0.7604 0.2685 -0.5914
vn -0.9208 0.2629 -0.2883
vn 0.7689 -0.2351 0.5946
vn 0.9280 -0.2294 0.2935
vn -0.9235 0.2508 -0.2903
vn -0.8957 0.2637 -0.3579
vn -0.7674 0.2413 -0.5941
vn 0.4569 0.0457 0.8883
vn 0.9131 -0.2934 0.2833
vn 0.9219 -0.3372 -0.1908
vn 0.7587 -0.2749 0.5906
vn -0.5981 -0.2130 -0.7726
vn -0.2971 -0.2125 -0.9309
vn 0.5981 0.2130 0.7726
vn 0.2971 0.2125 0.9309
vn 0.2805 0.3086 0.9089
vn 0.5896 0.3039 0.7484
vn -0.2869 -0.2746 -0.9178
vn -0.5933 -0.2699 -0.7584
vn 0.5901 0.2982 0.7503
vn 0.2862 0.2783 0.9168
vn -0.5853 -0.3350 -0.7384
vn -0.2792 -0.3151 -0.9071
vn -0.6713 -0.0774 0.7372
vn -0.5727 -0.0911 0.8147
vn -0.3959 -0.0912 0.9138
vn 0.6182 0.0001 -0.7860
vn 0.6741 0.0351 -0.7378
vn 0.8189 0.0316 -0.5730
vn 0.3980 0.0565 -0.9157
vn -0.4219 0.5366 0.7308
vn 0.4260 -0.4942 0.7578
vn 0.3948 0.1073 -0.9125
vn 0.6671 0.1194 -0.7353
vn 0.6762 -0.0192 -0.7365
vn 0.4003 -0.0239 -0.9161
vn -0.7147 0.0136 0.6993
vn -0.6762 0.0192 0.7365
vn -0.3635 0.0243 0.9313
vn -0.4003 0.0210 0.9162
vn -0.6422 0.0239 -0.7662
vn -0.3586 0.0192 -0.9333
vn 0.6422 -0.0239 0.7662
vn 0.3586 -0.0192 0.9333
vn 0.3613 0.0714 0.9297
vn 0.6429 0.0618 0.7634
vn -0.3609 -0.0397 -0.9318
vn -0.6431 -0.0301 -0.7652
vn 0.6429 0.0565 0.7639
vn 0.3607 0.0351 0.9320
vn 0.1487 0.0316 0.9884
vn -0.6421 -0.0912 -0.7612
vn 0.2899 -0.0167 0.9569
vn -0.3614 -0.0774 -0.9292
vn -0.4747 -0.0911 -0.8754
vn 0.9365 -0.3151 0.1536
vn 0.9365 -0.3151 0.1537
vn 0.9217 -0.3350 -0.1956
vn -0.9484 0.2783 -0.1517
vn -0.9345 0.2982 0.1945
vn 0.9432 -0.2699 -0.1938
vn 0.9496 -0.2746 0.1515
vn -0.9326 0.3039 0.1949
vn -0.9388 0.3086 -0.1533
vn -0.9659 0.2125 -0.1482
vn -0.9580 0.2130 0.1918
vn 0.9659 -0.2125 0.1482
vn 0.9580 -0.2130 -0.1918
vn -0.8666 -0.2749 0.4165
vn -0.6600 -0.2934 0.6916
vn 0.8740 0.2388 -0.4233
vn 0.6694 0.2573 -0.6969
vn -0.6758 -0.2294 0.7005
vn -0.8747 -0.2351 0.4239
vn 0.6679 0.2629 -0.6963
vn 0.8680 0.2685 -0.4178
vn 0.8843 0.1738 -0.4333
vn 0.6869 0.1734 -0.7058
vn -0.8843 -0.1738 0.4333
vn -0.6869 -0.1734 0.7058
vn -0.9472 -0.1734 -0.2698
vn -0.8010 -0.1738 -0.5729
vn 0.9472 0.1734 0.2698
vn 0.8010 0.1738 0.5729
vn 0.7796 0.2685 0.5659
vn 0.9298 0.2629 0.2576
vn -0.7881 -0.2351 -0.5688
vn -0.9372 -0.2294 -0.2626
vn 0.9311 0.2573 0.2586
vn 0.7873 0.2388 0.5685
vn -0.9219 -0.2934 -0.2528
vn -0.7778 -0.2749 -0.5652
vn 0.6234 -0.2130 0.7523
vn 0.3278 -0.2125 0.9205
vn -0.6234 0.2130 -0.7523
vn -0.3278 0.2125 -0.9205
vn -0.3104 0.3086 -0.8991
vn -0.6140 0.3039 -0.7284
vn 0.3171 -0.2746 0.9078
vn 0.6181 -0.2699 0.7383
vn -0.6146 0.2982 -0.7303
vn -0.3164 0.2783 -0.9069
vn 0.6095 -0.3350 0.7186
vn 0.3091 -0.3151 0.8973
vn 0.6465 -0.0774 -0.7590
vn 0.5454 -0.0911 -0.8332
vn 0.3654 -0.0912 -0.9264
vn 0.3715 -0.0161 0.9283
vn -0.6493 0.0351 0.7597
vn -0.7995 0.0316 0.5998
vn -0.3674 0.0565 0.9283
vn 0.3685 -0.0301 -0.9292
vn 0.6490 -0.0397 -0.7597
vn -0.3670 0.0618 0.9282
vn -0.6469 0.0714 0.7592
vn -0.6514 -0.0192 0.7585
vn -0.3698 -0.0239 0.9288
vn -0.3697 -0.0239 0.9288
vn 0.6514 0.0192 -0.7585
vn 0.3698 0.0239 -0.9288
vn 0.3697 0.0239 -0.9288
vn 0.3684 -0.0301 -0.9292
vn -0.7995 0.0316 0.5999
vn -0.9898 0.0084 -0.1424
vn -0.9219 -0.2934 -0.2529
vn 0.7872 0.2388 0.5685
vn 0.9440 -0.0033 -0.3300
vn 0.3614 0.0714 0.9297
vn 0.3956 0.6115 0.6852
vn 0.3565 0.6291 0.6908
vn 0.8189 0.0316 -0.5731
vn -0.4097 0.5483 -0.7291
vn 0.2804 0.3086 0.9089
vn -0.5090 -0.0053 0.8607
vn -0.8957 0.2637 -0.3580
vn 0.3812 0.0020 -0.9245
vn 0.6100 -0.0013 -0.7924
vn 0.4067 0.6151 -0.6755
vn -0.8929 -0.4501 -0.0130
vn 0.6100 0.0020 0.7924
vn 0.3812 -0.0013 0.9245
vn 0.8487 0.5287 0.0132
vn -0.4344 -0.4692 -0.7689
vn -0.9912 0.0020 0.1321
vn -0.9912 -0.0013 -0.1321
vn 0.8843 -0.4669 0.0054
vn -0.3469 -0.4167 -0.8402
vn 0.5500 0.0413 -0.8341
vn -0.4533 -0.4219 -0.7852
vn -0.8423 -0.5272 0.1122
vn -0.8763 -0.4818 0.0000
vn 0.3398 -0.4420 0.8301
vn -0.4533 -0.4219 0.7852
vn 0.5183 -0.5272 0.6734
vn 0.4381 -0.4818 0.7589
vn 0.4309 0.6322 -0.6439
vn 0.9066 -0.4219 -0.0000
vn 0.3240 -0.5272 -0.7856
vn 0.4381 -0.4818 -0.7589
vn 0.5000 0.0000 -0.8660
vn 1.0000 0.0000 -0.0000
vn 0.5000 0.0000 0.8660
vn 0.5000 -0.0000 0.8660
vn -0.5000 -0.0000 0.8660
vn -0.5000 0.0000 0.8660
vn -1.0000 0.0000 0.0000
vn -0.5000 0.0000 -0.8660
vn -0.4219 0.5365 -0.7308
vn 0.3935 0.6007 0.6959
vn -0.7915 0.6112 0.0000
vn -0.7758 0.6298 -0.0390
vn -0.7860 0.6182 -0.0031
vn 0.3566 0.6291 0.6908
vn 0.8439 0.5366 -0.0000
vn -0.4261 0.5325 0.7313
vn 0.3956 0.6115 -0.6852
vn 0.4200 0.6291 -0.6540
vn 0.5411 0.0368 -0.8402
vn -0.8300 -0.5265 0.1842
vn -0.7697 0.6370 -0.0417
vn -0.9980 0.0409 -0.0475
vn 0.3544 0.6186 0.7012
vn -0.4641 -0.4264 0.7764
vn 0.9999 -0.0101 0.0104
vn -0.9970 0.0515 -0.0575
vn 0.4480 0.0305 0.8935
vn 0.5090 0.0053 -0.8607
vn -1.0000 -0.0000 0.0000
vn 0.5184 -0.5272 0.6734
vn 0.4589 -0.4174 -0.7844
vn 0.4909 -0.0153 0.8711
vn 0.8210 -0.5374 -0.1926
vn 0.4201 0.6291 -0.6540
vn -0.4909 0.0153 -0.8711
vn 0.6100 -0.0032 -0.7924
vn 0.9405 0.0021 -0.3398
vn -0.2890 0.0166 -0.9572
vn 0.2999 -0.0023 0.9540
vn -0.9999 0.0101 -0.0104
vn -0.9405 0.0018 0.3398
vn -0.9912 -0.0032 -0.1321
vn -0.2990 0.0023 -0.9543
vn -0.9439 0.0072 0.3300
vn -0.3521 -0.4294 -0.8316
vn -0.4381 -0.4818 -0.7589
vn -0.8235 -0.5320 0.1970
vn -0.8887 -0.4586 0.0000
vn 0.3521 -0.4294 0.8316
vn 0.8235 -0.5320 -0.1970
vn 0.8887 -0.4586 -0.0000
vn 0.4533 -0.4219 -0.7852
vn -0.3413 -0.9234 -0.1757
vn -0.2407 -0.8758 -0.4184
vn -0.2428 -0.8758 -0.4172
vn 0.0037 -0.9971 -0.0762
vn -0.0654 -0.9971 -0.0394
vn 0.0000 -1.0000 -0.0000
vn 0.3322 -0.9133 -0.2357
vn 0.3308 -0.9133 -0.2376
vn 0.2267 -0.8758 0.4261
vn 0.2288 -0.8758 0.4250
vn -0.4825 -0.8758 0.0134
vn -0.4824 -0.8758 0.0158
vn -0.0062 -0.9971 0.0761
vn 0.3651 -0.9133 0.1806
vn 0.3662 -0.9133 0.1785
vn 0.3651 -0.9133 0.1807
vn 0.3309 -0.9133 -0.2377
vn 0.3323 -0.9133 -0.2357
vn -0.0069 -0.9999 -0.0083
vn 0.0037 -0.9971 -0.0763
# 235 vertex normals

vt 0.7644 0.1853 0.0000
vt 0.8758 0.1855 0.0000
vt 0.8744 0.1999 0.0000
vt 0.7629 0.1997 0.0000
vt 0.8748 0.2144 0.0000
vt 0.7635 0.2144 0.0000
vt 0.5072 0.9516 0.0000
vt 0.6187 0.9497 0.0000
vt 0.6192 0.9643 0.0000
vt 0.5078 0.9662 0.0000
vt 0.6185 0.9787 0.0000
vt 0.5069 0.9808 0.0000
vt 0.7290 0.9642 0.0000
vt 0.9853 0.2047 0.0000
vt 0.4090 0.9626 0.0000
vt 0.4092 0.9497 0.0000
vt 0.9008 0.3691 0.0000
vt 0.9011 0.3647 0.0000
vt 0.9351 0.3691 0.0000
vt 0.6652 0.1979 0.0000
vt 0.6679 0.1849 0.0000
vt 0.6654 0.2105 0.0000
vt 0.5149 0.9180 0.0000
vt 0.6362 0.9181 0.0000
vt 0.6346 0.9339 0.0000
vt 0.5132 0.9337 0.0000
vt 0.6354 0.9497 0.0000
vt 0.5141 0.9497 0.0000
vt 0.5247 0.0469 0.0000
vt 0.6464 0.0474 0.0000
vt 0.6467 0.0632 0.0000
vt 0.5249 0.0629 0.0000
vt 0.6453 0.0788 0.0000
vt 0.5237 0.0788 0.0000
vt 0.7656 0.0656 0.0000
vt 0.7557 0.9391 0.0000
vt 0.4199 0.0507 0.0000
vt 0.4206 0.0371 0.0000
vt 0.4187 0.0642 0.0000
vt 0.4090 0.9320 0.0000
vt 0.4110 0.9180 0.0000
vt 0.4094 0.9454 0.0000
vt 0.8660 0.0662 0.0000
vt 0.8651 0.0788 0.0000
vt 0.7656 0.0740 0.0000
vt 0.7664 0.0611 0.0000
vt 0.8672 0.0512 0.0000
vt 0.2391 0.7360 0.0000
vt 0.2554 0.1316 0.0000
vt 0.2549 0.7416 0.0000
vt 0.8465 0.9406 0.0000
vt 0.8483 0.9531 0.0000
vt 0.7573 0.9502 0.0000
vt 0.7557 0.9389 0.0000
vt 0.8457 0.9280 0.0000
vt 0.7557 0.9271 0.0000
vt 0.8696 0.7592 0.0000
vt 0.8614 0.7730 0.0000
vt 0.8487 0.7475 0.0000
vt 0.8404 0.4799 0.0000
vt 0.8582 0.4496 0.0000
vt 0.8648 0.4639 0.0000
vt 0.9420 0.9305 0.0000
vt 0.9409 0.9180 0.0000
vt 0.9835 0.9266 0.0000
vt 0.9435 0.9427 0.0000
vt 0.9933 0.0682 0.0000
vt 0.9547 0.0788 0.0000
vt 0.9520 0.0515 0.0000
vt 0.5268 0.8857 0.0000
vt 0.6513 0.8857 0.0000
vt 0.6503 0.9019 0.0000
vt 0.5258 0.9018 0.0000
vt 0.6494 0.9180 0.0000
vt 0.5248 0.9180 0.0000
vt 0.5263 0.8207 0.0000
vt 0.6504 0.8138 0.0000
vt 0.6509 0.8300 0.0000
vt 0.5266 0.8371 0.0000
vt 0.6522 0.8459 0.0000
vt 0.5282 0.8533 0.0000
vt 0.7739 0.8252 0.0000
vt 0.7733 0.9072 0.0000
vt 0.4090 0.8291 0.0000
vt 0.4097 0.8138 0.0000
vt 0.4103 0.8439 0.0000
vt 0.4099 0.8974 0.0000
vt 0.2083 0.7168 0.0000
vt 0.2083 0.1254 0.0000
vt 0.2236 0.1316 0.0000
vt 0.4090 0.9125 0.0000
vt 0.5319 0.7949 0.0000
vt 0.5330 0.8138 0.0000
vt 0.4095 0.8087 0.0000
vt 0.4090 0.7929 0.0000
vt 0.5340 0.7764 0.0000
vt 0.4114 0.7765 0.0000
vt 0.5135 0.5985 0.0000
vt 0.5120 0.6172 0.0000
vt 0.3883 0.6000 0.0000
vt 0.3898 0.5842 0.0000
vt 0.5133 0.5797 0.0000
vt 0.3905 0.5681 0.0000
vt 0.6751 0.7951 0.0000
vt 0.6770 0.7765 0.0000
vt 0.8179 0.8012 0.0000
vt 0.6761 0.8137 0.0000
vt 0.6570 0.5989 0.0000
vt 0.6566 0.5802 0.0000
vt 0.7971 0.6016 0.0000
vt 0.6554 0.6172 0.0000
vt 0.1142 0.8656 0.0000
vt 0.1149 0.8828 0.0000
vt 0.0002 0.8782 0.0000
vt 0.0000 0.8635 0.0000
vt 0.1160 0.8488 0.0000
vt 0.0022 0.8483 0.0000
vt 0.5140 0.2882 0.0000
vt 0.5130 0.3053 0.0000
vt 0.3980 0.2896 0.0000
vt 0.3991 0.2749 0.0000
vt 0.5139 0.2711 0.0000
vt 0.3999 0.2600 0.0000
vt 0.2445 0.8658 0.0000
vt 0.2462 0.8489 0.0000
vt 0.3742 0.8714 0.0000
vt 0.2451 0.8828 0.0000
vt 0.6445 0.2886 0.0000
vt 0.6443 0.2716 0.0000
vt 0.7723 0.2911 0.0000
vt 0.6433 0.3053 0.0000
vt 0.5351 0.0802 0.0000
vt 0.6657 0.0803 0.0000
vt 0.6641 0.0972 0.0000
vt 0.5333 0.0970 0.0000
vt 0.6646 0.1142 0.0000
vt 0.5340 0.1142 0.0000
vt 0.5146 0.3815 0.0000
vt 0.6457 0.3819 0.0000
vt 0.6458 0.3990 0.0000
vt 0.5146 0.3987 0.0000
vt 0.6447 0.4158 0.0000
vt 0.5136 0.4158 0.0000
vt 0.7743 0.4016 0.0000
vt 0.7942 0.1029 0.0000
vt 0.3991 0.3853 0.0000
vt 0.3999 0.3702 0.0000
vt 0.3980 0.4001 0.0000
vt 0.4187 0.0949 0.0000
vt 0.4209 0.0796 0.0000
vt 0.4189 0.1097 0.0000
vt 0.5429 0.0000 0.0000
vt 0.6850 0.0001 0.0000
vt 0.6831 0.0185 0.0000
vt 0.5409 0.0184 0.0000
vt 0.6840 0.0371 0.0000
vt 0.5419 0.0371 0.0000
vt 0.5126 0.5307 0.0000
vt 0.6551 0.5312 0.0000
vt 0.6555 0.5498 0.0000
vt 0.5128 0.5495 0.0000
vt 0.6539 0.5681 0.0000
vt 0.5113 0.5681 0.0000
vt 0.7948 0.5525 0.0000
vt 0.8250 0.0246 0.0000
vt 0.3898 0.5352 0.0000
vt 0.3905 0.5192 0.0000
vt 0.3883 0.5510 0.0000
vt 0.4187 0.0163 0.0000
vt 0.4211 0.0000 0.0000
vt 0.4192 0.0320 0.0000
vt 0.1267 0.8989 0.0000
vt 0.1257 0.9151 0.0000
vt 0.0099 0.9095 0.0000
vt 0.0109 0.8944 0.0000
vt 0.1277 0.8828 0.0000
vt 0.2235 0.7261 0.0000
vt 0.5492 0.6823 0.0000
vt 0.5508 0.6985 0.0000
vt 0.4330 0.6891 0.0000
vt 0.4316 0.6743 0.0000
vt 0.5489 0.6659 0.0000
vt 0.4323 0.6590 0.0000
vt 0.2513 0.8990 0.0000
vt 0.2523 0.8828 0.0000
vt 0.3742 0.9043 0.0000
vt 0.2503 0.9151 0.0000
vt 0.6736 0.6752 0.0000
vt 0.6731 0.6590 0.0000
vt 0.7965 0.6704 0.0000
vt 0.6749 0.6911 0.0000
vt 0.5004 0.1854 0.0000
vt 0.5843 0.1928 0.0000
vt 0.5827 0.2036 0.0000
vt 0.4988 0.1962 0.0000
vt 0.5811 0.2144 0.0000
vt 0.4972 0.2070 0.0000
vt 0.4971 0.1636 0.0000
vt 0.5797 0.1513 0.0000
vt 0.5811 0.1621 0.0000
vt 0.4983 0.1746 0.0000
vt 0.5829 0.1727 0.0000
vt 0.6630 0.1513 0.0000
vt 0.6652 0.2144 0.0000
vt 0.4191 0.1765 0.0000
vt 0.4187 0.1662 0.0000
vt 0.4210 0.1864 0.0000
vt 0.2396 0.1248 0.0000
vt 0.4194 0.1965 0.0000
vt 0.5409 0.1326 0.0000
vt 0.5419 0.1513 0.0000
vt 0.4192 0.1463 0.0000
vt 0.4187 0.1306 0.0000
vt 0.5429 0.1142 0.0000
vt 0.4211 0.1143 0.0000
vt 0.5128 0.4953 0.0000
vt 0.5113 0.5139 0.0000
vt 0.3883 0.4968 0.0000
vt 0.3898 0.4810 0.0000
vt 0.5126 0.4765 0.0000
vt 0.3905 0.4650 0.0000
vt 0.6831 0.1328 0.0000
vt 0.6850 0.1143 0.0000
vt 0.8250 0.1388 0.0000
vt 0.6840 0.1513 0.0000
vt 0.6555 0.4956 0.0000
vt 0.6551 0.4770 0.0000
vt 0.7948 0.4984 0.0000
vt 0.6539 0.5139 0.0000
vt 0.5462 0.7555 0.0000
vt 0.5469 0.7727 0.0000
vt 0.4318 0.7682 0.0000
vt 0.4316 0.7534 0.0000
vt 0.5480 0.7387 0.0000
vt 0.4338 0.7381 0.0000
vt 0.5146 0.2428 0.0000
vt 0.5136 0.2600 0.0000
vt 0.3980 0.2442 0.0000
vt 0.3991 0.2294 0.0000
vt 0.5146 0.2256 0.0000
vt 0.3999 0.2144 0.0000
vt 0.6770 0.7557 0.0000
vt 0.6786 0.7388 0.0000
vt 0.8071 0.7613 0.0000
vt 0.6775 0.7727 0.0000
vt 0.6458 0.2432 0.0000
vt 0.6457 0.2261 0.0000
vt 0.7743 0.2457 0.0000
vt 0.6447 0.2600 0.0000
vt 0.1160 0.8143 0.0000
vt 0.2462 0.8145 0.0000
vt 0.2445 0.8313 0.0000
vt 0.1142 0.8311 0.0000
vt 0.2451 0.8483 0.0000
vt 0.1149 0.8483 0.0000
vt 0.5139 0.3361 0.0000
vt 0.6443 0.3365 0.0000
vt 0.6445 0.3535 0.0000
vt 0.5140 0.3532 0.0000
vt 0.6433 0.3702 0.0000
vt 0.5130 0.3702 0.0000
vt 0.7723 0.3561 0.0000
vt 0.3742 0.8369 0.0000
vt 0.3991 0.3399 0.0000
vt 0.3999 0.3249 0.0000
vt 0.3980 0.3546 0.0000
vt 0.0000 0.8290 0.0000
vt 0.0022 0.8138 0.0000
vt 0.0002 0.8437 0.0000
vt 0.1250 0.7765 0.0000
vt 0.2681 0.7766 0.0000
vt 0.2662 0.7951 0.0000
vt 0.1230 0.7949 0.0000
vt 0.2671 0.8138 0.0000
vt 0.1240 0.8138 0.0000
vt 0.5133 0.4274 0.0000
vt 0.6566 0.4279 0.0000
vt 0.6570 0.4466 0.0000
vt 0.5135 0.4463 0.0000
vt 0.6554 0.4650 0.0000
vt 0.5120 0.4650 0.0000
vt 0.7971 0.4494 0.0000
vt 0.4090 0.8013 0.0000
vt 0.3898 0.4319 0.0000
vt 0.3905 0.4158 0.0000
vt 0.3883 0.4478 0.0000
vt 0.0000 0.7929 0.0000
vt 0.0024 0.7764 0.0000
vt 0.0005 0.8087 0.0000
vt 0.5258 0.8695 0.0000
vt 0.5248 0.8857 0.0000
vt 0.4090 0.8801 0.0000
vt 0.4099 0.8650 0.0000
vt 0.5268 0.8533 0.0000
vt 0.2718 0.1255 0.0000
vt 0.5492 0.7218 0.0000
vt 0.5508 0.7381 0.0000
vt 0.4330 0.7287 0.0000
vt 0.4316 0.7138 0.0000
vt 0.5489 0.7055 0.0000
vt 0.4323 0.6985 0.0000
vt 0.6503 0.8696 0.0000
vt 0.6513 0.8534 0.0000
vt 0.7733 0.8749 0.0000
vt 0.6494 0.8857 0.0000
vt 0.6736 0.7147 0.0000
vt 0.6731 0.6985 0.0000
vt 0.7965 0.7100 0.0000
vt 0.6749 0.7307 0.0000
vt 0.8739 0.2777 0.0000
vt 0.9587 0.2779 0.0000
vt 1.0000 0.2947 0.0000
vt 0.8727 0.2927 0.0000
vt 0.9614 0.3053 0.0000
vt 0.8718 0.3053 0.0000
vt 0.8455 0.9630 0.0000
vt 0.9404 0.9531 0.0000
vt 0.9416 0.9656 0.0000
vt 0.8463 0.9756 0.0000
vt 0.9430 0.9777 0.0000
vt 0.8482 0.9880 0.0000
vt 0.9435 0.9780 0.0000
vt 0.9835 0.9609 0.0000
vt 0.8635 0.7036 0.0000
vt 0.8705 0.7163 0.0000
vt 0.8531 0.7297 0.0000
vt 0.8472 0.7230 0.0000
vt 0.7557 0.9738 0.0000
vt 0.7557 0.9621 0.0000
vt 0.7573 0.9852 0.0000
vt 0.7731 0.2876 0.0000
vt 0.9540 0.5025 0.0000
vt 0.9532 0.4913 0.0000
vt 0.9758 0.4946 0.0000
vt 0.7723 0.3005 0.0000
vt 0.1141 0.9308 0.0000
vt 0.1150 0.9468 0.0000
vt 0.0103 0.9424 0.0000
vt 0.0099 0.9290 0.0000
vt 0.1159 0.9151 0.0000
vt 0.0120 0.9151 0.0000
vt 0.5378 0.6431 0.0000
vt 0.5366 0.6590 0.0000
vt 0.4316 0.6444 0.0000
vt 0.4328 0.6309 0.0000
vt 0.5376 0.6271 0.0000
vt 0.4335 0.6172 0.0000
vt 0.2355 0.9309 0.0000
vt 0.2371 0.9152 0.0000
vt 0.3566 0.9361 0.0000
vt 0.2363 0.9467 0.0000
vt 0.6596 0.6434 0.0000
vt 0.6593 0.6275 0.0000
vt 0.7785 0.6457 0.0000
vt 0.6582 0.6590 0.0000
vt 0.7629 0.1662 0.0000
vt 0.7635 0.1808 0.0000
vt 0.6654 0.1769 0.0000
vt 0.6652 0.1643 0.0000
vt 0.7644 0.1518 0.0000
vt 0.6679 0.1513 0.0000
vt 0.1088 0.9633 0.0000
vt 0.1079 0.9778 0.0000
vt 0.0099 0.9596 0.0000
vt 0.8678 0.4766 0.0000
vt 0.9583 0.4673 0.0000
vt 0.9544 0.4798 0.0000
vt 0.1081 0.9487 0.0000
vt 0.0101 0.9468 0.0000
vt 0.8743 0.1663 0.0000
vt 0.8758 0.1519 0.0000
vt 0.9853 0.1711 0.0000
vt 0.8748 0.1808 0.0000
vt 0.2201 0.9613 0.0000
vt 0.2196 0.9468 0.0000
vt 0.3300 0.9613 0.0000
vt 0.2194 0.9758 0.0000
vt 0.3155 0.1558 0.0000
vt 0.3155 0.6935 0.0000
vt 0.3346 0.6852 0.0000
vt 0.3346 0.1475 0.0000
vt 0.9574 0.5147 0.0000
vt 0.8432 0.4880 0.0000
vt 0.8685 0.4883 0.0000
vt 0.3537 0.6768 0.0000
vt 0.3537 0.1392 0.0000
vt 0.9650 0.5286 0.0000
vt 0.9789 0.5044 0.0000
vt 0.8396 0.4943 0.0000
vt 0.8675 0.5004 0.0000
vt 0.2963 0.1642 0.0000
vt 0.2963 0.7018 0.0000
vt 0.8358 0.5026 0.0000
vt 0.8640 0.5133 0.0000
vt 0.8566 0.5286 0.0000
vt 0.9354 0.3647 0.0000
vt 0.9694 0.3691 0.0000
vt 0.9759 0.8593 0.0000
vt 0.9520 0.8754 0.0000
vt 0.9490 0.8629 0.0000
vt 0.9819 0.8664 0.0000
vt 0.9586 0.8896 0.0000
vt 0.8380 0.4728 0.0000
vt 0.9792 0.8412 0.0000
vt 0.9527 0.8265 0.0000
vt 0.9602 0.8113 0.0000
vt 0.9753 0.8499 0.0000
vt 0.9493 0.8393 0.0000
vt 0.9482 0.8511 0.0000
vt 0.8631 0.8597 0.0000
vt 0.8643 0.8483 0.0000
vt 0.8635 0.8372 0.0000
vt 0.8601 0.8250 0.0000
vt 0.8526 0.8113 0.0000
vt 0.8504 0.8873 0.0000
vt 0.8592 0.8722 0.0000
vt 0.8395 0.8550 0.0000
vt 0.9672 0.4520 0.0000
vt 0.9861 0.4770 0.0000
vt 0.8316 0.8625 0.0000
vt 0.8388 0.8353 0.0000
vt 0.9782 0.4846 0.0000
vt 0.8419 0.8450 0.0000
vt 0.8641 0.3643 0.0000
vt 0.8650 0.3595 0.0000
vt 0.8637 0.3691 0.0000
vt 0.8666 0.3550 0.0000
vt 0.9020 0.3603 0.0000
vt 0.9035 0.3560 0.0000
vt 0.8229 0.3582 0.0000
vt 0.8247 0.3530 0.0000
vt 0.8214 0.3691 0.0000
vt 0.8218 0.3636 0.0000
vt 0.9551 0.6166 0.0000
vt 0.9563 0.6052 0.0000
vt 0.9799 0.6099 0.0000
vt 0.9776 0.6199 0.0000
vt 0.9559 0.6278 0.0000
vt 0.9363 0.3603 0.0000
vt 0.9593 0.6399 0.0000
vt 0.9807 0.6297 0.0000
vt 0.9668 0.6537 0.0000
vt 0.9377 0.3560 0.0000
vt 0.9602 0.5927 0.0000
vt 0.9690 0.5776 0.0000
vt 0.9878 0.6024 0.0000
vt 0.8703 0.6020 0.0000
vt 0.8674 0.5895 0.0000
vt 0.8607 0.5753 0.0000
vt 0.8591 0.6537 0.0000
vt 0.8667 0.6385 0.0000
vt 0.8700 0.6256 0.0000
vt 0.8712 0.6138 0.0000
vt 0.8440 0.6150 0.0000
vt 0.8434 0.6056 0.0000
vt 0.8734 0.7272 0.0000
vt 0.8742 0.7375 0.0000
vt 0.8532 0.7391 0.0000
vt 0.8401 0.6238 0.0000
vt 0.8374 0.5985 0.0000
vt 0.0354 0.7275 0.0000
vt 0.0186 0.1398 0.0000
vt 0.0368 0.1398 0.0000
vt 0.0536 0.7275 0.0000
vt 0.0717 0.7275 0.0000
vt 0.0550 0.1398 0.0000
vt 0.0731 0.1398 0.0000
vt 0.0899 0.7275 0.0000
vt 0.1438 0.7358 0.0000
vt 0.1553 0.1156 0.0000
vt 0.1553 0.7412 0.0000
vt 0.1673 0.1089 0.0000
vt 0.1787 0.1266 0.0000
vt 0.1666 0.7621 0.0000
vt 0.1325 0.7259 0.0000
vt 0.1322 0.1162 0.0000
vt 0.1438 0.1089 0.0000
vt 0.9759 0.7391 0.0000
vt 0.9741 0.7455 0.0000
vt 0.9516 0.7509 0.0000
vt 0.9509 0.7401 0.0000
vt 0.9785 0.7519 0.0000
vt 0.9543 0.7624 0.0000
vt 0.9601 0.7753 0.0000
vt 0.9832 0.7277 0.0000
vt 0.9771 0.7312 0.0000
vt 0.9550 0.7176 0.0000
vt 0.9617 0.7036 0.0000
vt 0.9520 0.7292 0.0000
vt 0.8731 0.7478 0.0000
# 490 texture coords

o Mesh_Cube
g Mesh_Cube
usemtl planta_Material_002
s off
f 1/1/1 2/2/1 3/3/1 
f 1/1/1 3/3/1 4/4/1 
f 4/4/2 3/3/2 5/5/2 
f 4/4/2 5/5/2 6/6/2 
f 6/7/3 5/8/3 7/9/3 
f 6/7/3 7/9/3 8/10/3 
f 2/11/4 1/12/4 8/10/4 
f 2/11/4 8/10/4 7/9/4 
f 2/11/5 7/9/5 9/13/5 
f 7/9/6 5/8/6 9/13/6 
f 5/5/7 3/3/7 9/14/7 
f 3/3/8 2/2/8 9/14/8 
f 6/7/9 8/10/9 10/15/9 
f 6/7/10 10/15/10 11/16/10 
f 8/10/11 1/12/11 10/15/11 
f 12/17/12 13/18/12 14/19/12 
f 1/1/13 4/4/13 15/20/13 
f 1/1/14 15/20/14 10/21/14 
f 4/4/15 6/6/15 11/22/15 
f 4/4/15 11/22/15 15/20/15 
f 16/23/16 17/24/16 18/25/16 
f 16/23/16 18/25/16 19/26/16 
f 19/26/17 18/25/17 20/27/17 
f 19/26/17 20/27/17 21/28/17 
f 21/29/18 20/30/18 22/31/18 
f 21/29/18 22/31/18 23/32/18 
f 17/33/19 16/34/19 23/32/19 
f 17/33/19 23/32/19 22/31/19 
f 17/33/20 22/31/20 24/35/20 
f 22/31/21 20/30/21 24/35/21 
f 20/27/22 18/25/22 24/36/22 
f 18/25/23 17/24/23 24/36/23 
f 21/29/24 23/32/24 25/37/24 
f 21/29/24 25/37/24 26/38/24 
f 23/32/25 16/34/25 27/39/25 
f 23/32/25 27/39/25 25/37/25 
f 16/23/26 19/26/26 28/40/26 
f 16/23/26 28/40/26 27/41/26 
f 19/26/27 21/28/27 26/42/27 
f 19/26/27 26/42/27 28/40/27 
f 29/43/28 30/44/28 31/45/28 
f 29/43/29 31/45/29 32/46/29 
f 33/47/30 29/43/30 32/46/30 
f 34/48/31 35/49/31 36/50/31 
f 37/51/32 33/52/32 32/53/32 
f 37/51/33 32/53/33 38/54/33 
f 30/55/34 37/51/34 38/54/34 
f 30/55/34 38/54/34 31/56/34 
f 39/57/35 40/58/35 12/59/35 
f 41/60/36 42/61/36 43/62/36 
f 44/63/37 45/64/37 46/65/37 
f 47/66/38 44/63/38 46/65/38 
f 47/66/39 33/52/39 37/51/39 
f 47/66/39 37/51/39 44/63/39 
f 30/55/40 45/64/40 44/63/40 
f 30/55/40 44/63/40 37/51/40 
f 29/43/41 46/67/41 45/68/41 
f 29/43/42 45/68/42 30/44/42 
f 33/47/43 47/69/43 46/67/43 
f 33/47/44 46/67/44 29/43/44 
f 48/70/45 49/71/45 50/72/45 
f 48/70/45 50/72/45 51/73/45 
f 51/73/46 50/72/46 52/74/46 
f 51/73/46 52/74/46 53/75/46 
f 53/76/47 52/77/47 54/78/47 
f 53/76/47 54/78/47 55/79/47 
f 49/80/48 48/81/48 55/79/48 
f 49/80/48 55/79/48 54/78/48 
f 49/80/49 54/78/49 56/82/49 
f 54/78/50 52/77/50 56/82/50 
f 52/74/51 50/72/51 56/83/51 
f 50/72/52 49/71/52 56/83/52 
f 53/76/53 55/79/53 57/84/53 
f 53/76/53 57/84/53 58/85/53 
f 55/79/54 48/81/54 59/86/54 
f 55/79/55 59/86/55 57/84/55 
f 48/70/56 51/73/56 59/87/56 
f 36/88/57 60/89/57 41/90/57 
f 51/73/58 53/75/58 58/91/58 
f 51/73/59 58/91/59 59/87/59 
f 61/92/60 62/93/60 63/94/60 
f 61/92/61 63/94/61 64/95/61 
f 65/96/62 61/92/62 64/95/62 
f 65/96/62 64/95/62 66/97/62 
f 67/98/63 65/99/63 66/100/63 
f 67/98/63 66/100/63 68/101/63 
f 62/102/64 67/98/64 68/101/64 
f 62/102/64 68/101/64 63/103/64 
f 69/104/65 70/105/65 71/106/65 
f 72/107/66 69/104/66 71/106/66 
f 73/108/67 72/109/67 71/110/67 
f 70/111/68 73/108/68 71/110/68 
f 70/111/69 65/99/69 67/98/69 
f 70/111/69 67/98/69 73/108/69 
f 62/102/70 72/109/70 73/108/70 
f 62/102/70 73/108/70 67/98/70 
f 61/92/71 69/104/71 72/107/71 
f 61/92/71 72/107/71 62/93/71 
f 65/96/72 70/105/72 69/104/72 
f 65/96/72 69/104/72 61/92/72 
f 74/112/73 75/113/73 76/114/73 
f 74/112/73 76/114/73 77/115/73 
f 78/116/74 74/112/74 77/115/74 
f 78/116/74 77/115/74 79/117/74 
f 80/118/75 78/119/75 79/120/75 
f 80/118/75 79/120/75 81/121/75 
f 75/122/76 80/118/76 81/121/76 
f 75/122/76 81/121/76 76/123/76 
f 82/124/77 83/125/77 84/126/77 
f 85/127/78 82/124/78 84/126/78 
f 86/128/79 85/129/79 84/130/79 
f 83/131/80 86/128/80 84/130/80 
f 83/131/81 78/119/81 80/118/81 
f 83/131/81 80/118/81 86/128/81 
f 75/122/82 85/129/82 86/128/82 
f 75/122/82 86/128/82 80/118/82 
f 74/112/83 82/124/83 85/127/83 
f 74/112/83 85/127/83 75/113/83 
f 78/116/84 83/125/84 82/124/84 
f 78/116/84 82/124/84 74/112/84 
f 87/132/85 88/133/85 89/134/85 
f 87/132/85 89/134/85 90/135/85 
f 90/135/86 89/134/86 91/136/86 
f 90/135/86 91/136/86 92/137/86 
f 92/138/87 91/139/87 93/140/87 
f 92/138/87 93/140/87 94/141/87 
f 88/142/88 87/143/88 94/141/88 
f 88/142/88 94/141/88 93/140/88 
f 88/142/89 93/140/89 95/144/89 
f 93/140/90 91/139/90 95/144/90 
f 91/136/91 89/134/91 95/145/91 
f 89/134/92 88/133/92 95/145/92 
f 92/138/93 94/141/93 96/146/93 
f 92/138/93 96/146/93 97/147/93 
f 94/141/94 87/143/94 98/148/94 
f 94/141/94 98/148/94 96/146/94 
f 87/132/95 90/135/95 99/149/95 
f 87/132/95 99/149/95 98/150/95 
f 90/135/96 92/137/96 97/151/96 
f 90/135/96 97/151/96 99/149/96 
f 100/152/97 101/153/97 102/154/97 
f 100/152/97 102/154/97 103/155/97 
f 103/155/98 102/154/98 104/156/98 
f 103/155/98 104/156/98 105/157/98 
f 105/158/99 104/159/99 106/160/99 
f 105/158/99 106/160/99 107/161/99 
f 101/162/100 100/163/100 107/161/100 
f 101/162/100 107/161/100 106/160/100 
f 101/162/101 106/160/101 108/164/101 
f 106/160/102 104/159/102 108/164/102 
f 104/156/103 102/154/103 108/165/103 
f 102/154/104 101/153/104 108/165/104 
f 105/158/105 107/161/105 109/166/105 
f 105/158/105 109/166/105 110/167/105 
f 107/161/106 100/163/106 111/168/106 
f 107/161/106 111/168/106 109/166/106 
f 100/152/107 103/155/107 112/169/107 
f 100/152/107 112/169/107 111/170/107 
f 103/155/108 105/157/108 110/171/108 
f 103/155/108 110/171/108 112/169/108 
f 113/172/109 114/173/109 115/174/109 
f 113/172/110 115/174/110 116/175/110 
f 117/176/111 113/172/111 116/175/111 
f 36/88/112 41/90/112 118/177/112 
f 119/178/113 117/179/113 116/180/113 
f 119/178/114 116/180/114 120/181/114 
f 114/182/115 119/178/115 120/181/115 
f 114/182/115 120/181/115 115/183/115 
f 121/184/116 122/185/116 123/186/116 
f 124/187/117 121/184/117 123/186/117 
f 125/188/118 124/189/118 123/190/118 
f 122/191/119 125/188/119 123/190/119 
f 122/191/120 117/179/120 119/178/120 
f 122/191/120 119/178/120 125/188/120 
f 114/182/121 124/189/121 125/188/121 
f 114/182/122 125/188/122 119/178/122 
f 113/172/123 121/184/123 124/187/123 
f 113/172/123 124/187/123 114/173/123 
f 117/176/124 122/185/124 121/184/124 
f 117/176/124 121/184/124 113/172/124 
f 126/192/125 127/193/125 128/194/125 
f 126/192/124 128/194/124 129/195/124 
f 129/195/123 128/194/123 130/196/123 
f 129/195/123 130/196/123 131/197/123 
f 131/198/122 130/199/122 132/200/122 
f 131/198/121 132/200/121 133/201/121 
f 127/202/120 126/192/120 133/201/120 
f 127/202/120 133/201/120 132/200/120 
f 127/202/119 132/200/119 134/203/119 
f 132/200/118 130/199/118 134/203/118 
f 130/196/117 128/194/117 134/204/117 
f 128/194/126 127/193/126 134/204/126 
f 131/198/115 133/201/115 135/205/115 
f 131/198/115 135/205/115 136/206/115 
f 133/201/113 126/192/113 137/207/113 
f 133/201/127 137/207/127 135/205/127 
f 126/192/111 129/195/111 137/207/111 
f 118/177/128 138/208/128 34/48/128 
f 129/195/109 131/197/109 136/209/109 
f 129/195/110 136/209/110 137/207/110 
f 139/210/108 140/211/108 141/212/108 
f 139/210/108 141/212/108 142/213/108 
f 143/214/107 139/210/107 142/213/107 
f 143/214/107 142/213/107 144/215/107 
f 145/216/106 143/217/106 144/218/106 
f 145/216/106 144/218/106 146/219/106 
f 140/220/105 145/216/105 146/219/105 
f 140/220/105 146/219/105 141/221/105 
f 147/222/104 148/223/104 149/224/104 
f 150/225/103 147/222/103 149/224/103 
f 151/226/102 150/227/102 149/228/102 
f 148/229/101 151/226/101 149/228/101 
f 148/229/100 143/217/100 145/216/100 
f 148/229/100 145/216/100 151/226/100 
f 140/220/99 150/227/99 151/226/99 
f 140/220/99 151/226/99 145/216/99 
f 139/210/98 147/222/98 150/225/98 
f 139/210/98 150/225/98 140/211/98 
f 143/214/97 148/223/97 147/222/97 
f 143/214/97 147/222/97 139/210/97 
f 152/230/96 153/231/96 154/232/96 
f 152/230/96 154/232/96 155/233/96 
f 156/234/95 152/230/95 155/233/95 
f 156/234/129 155/233/129 157/235/129 
f 158/236/130 156/237/130 157/238/130 
f 158/236/130 157/238/130 159/239/130 
f 153/240/93 158/236/93 159/239/93 
f 153/240/93 159/239/93 154/241/93 
f 160/242/92 161/243/92 162/244/92 
f 163/245/91 160/242/91 162/244/91 
f 164/246/90 163/247/90 162/248/90 
f 161/249/89 164/246/89 162/248/89 
f 161/249/88 156/237/88 158/236/88 
f 161/249/88 158/236/88 164/246/88 
f 153/240/87 163/247/87 164/246/87 
f 153/240/87 164/246/87 158/236/87 
f 152/230/86 160/242/86 163/245/86 
f 152/230/86 163/245/86 153/231/86 
f 156/234/85 161/243/85 160/242/85 
f 156/234/85 160/242/85 152/230/85 
f 165/250/84 166/251/84 167/252/84 
f 165/250/84 167/252/84 168/253/84 
f 168/253/83 167/252/83 169/254/83 
f 168/253/83 169/254/83 170/255/83 
f 170/256/82 169/257/82 171/258/82 
f 170/256/82 171/258/82 172/259/82 
f 166/260/81 165/261/81 172/259/81 
f 166/260/81 172/259/81 171/258/81 
f 166/260/80 171/258/80 173/262/80 
f 171/258/79 169/257/79 173/262/79 
f 169/254/78 167/252/78 173/263/78 
f 167/252/77 166/251/77 173/263/77 
f 170/256/76 172/259/76 174/264/76 
f 170/256/76 174/264/76 175/265/76 
f 172/259/75 165/261/75 176/266/75 
f 172/259/75 176/266/75 174/264/75 
f 165/250/74 168/253/74 177/267/74 
f 165/250/74 177/267/74 176/268/74 
f 168/253/73 170/255/73 175/269/73 
f 168/253/73 175/269/73 177/267/73 
f 178/270/72 179/271/72 180/272/72 
f 178/270/72 180/272/72 181/273/72 
f 181/273/71 180/272/71 182/274/71 
f 181/273/71 182/274/71 183/275/71 
f 183/276/70 182/277/70 184/278/70 
f 183/276/70 184/278/70 185/279/70 
f 179/280/69 178/281/69 185/279/69 
f 179/280/69 185/279/69 184/278/69 
f 179/280/68 184/278/68 186/282/68 
f 184/278/67 182/277/67 186/282/67 
f 182/274/66 180/272/66 186/283/66 
f 180/272/65 179/271/65 186/283/65 
f 183/276/64 185/279/64 187/284/64 
f 183/276/64 187/284/64 188/285/64 
f 185/279/63 178/281/63 189/286/63 
f 185/279/63 189/286/63 187/284/63 
f 178/270/62 181/273/62 190/287/62 
f 178/270/62 190/287/62 189/288/62 
f 181/273/60 183/275/60 188/289/60 
f 181/273/60 188/289/60 190/287/60 
f 191/290/58 192/291/58 193/292/58 
f 191/290/59 193/292/59 194/293/59 
f 195/294/56 191/290/56 194/293/56 
f 36/50/131 35/49/131 60/295/131 
f 196/296/54 195/297/54 194/298/54 
f 196/296/55 194/298/55 197/299/55 
f 192/300/53 196/296/53 197/299/53 
f 192/300/53 197/299/53 193/301/53 
f 198/302/52 199/303/52 200/304/52 
f 201/305/51 198/302/51 200/304/51 
f 202/306/50 201/307/50 200/308/50 
f 199/309/132 202/306/132 200/308/132 
f 199/309/48 195/297/48 196/296/48 
f 199/309/48 196/296/48 202/306/48 
f 192/300/47 201/307/47 202/306/47 
f 192/300/47 202/306/47 196/296/47 
f 191/290/46 198/302/46 201/305/46 
f 191/290/46 201/305/46 192/291/46 
f 195/294/45 199/303/45 198/302/45 
f 195/294/45 198/302/45 191/290/45 
f 203/310/43 204/311/43 205/312/43 
f 203/310/44 205/312/44 206/313/44 
f 206/313/41 205/312/41 207/314/41 
f 206/313/42 207/314/42 208/315/42 
f 208/316/40 207/317/40 209/318/40 
f 208/316/40 209/318/40 210/319/40 
f 204/320/39 203/321/39 210/319/39 
f 204/320/39 210/319/39 209/318/39 
f 204/322/38 209/318/38 205/323/38 
f 209/318/37 207/317/37 205/323/37 
f 40/324/133 211/325/133 13/326/133 
f 40/324/134 13/326/134 12/327/134 
f 208/316/34 210/319/34 212/328/34 
f 208/316/34 212/328/34 213/329/34 
f 210/319/32 203/321/32 214/330/32 
f 210/319/135 214/330/135 212/328/135 
f 203/310/30 206/313/30 214/331/30 
f 215/332/136 216/333/136 217/334/136 
f 206/313/28 208/315/28 213/335/28 
f 206/313/29 213/335/29 214/331/29 
f 218/336/27 219/337/27 220/338/27 
f 218/336/27 220/338/27 221/339/27 
f 222/340/26 218/336/26 221/339/26 
f 222/340/26 221/339/26 223/341/26 
f 224/342/25 222/343/25 223/344/25 
f 224/342/25 223/344/25 225/345/25 
f 219/346/24 224/342/24 225/345/24 
f 219/346/24 225/345/24 220/347/24 
f 226/348/23 227/349/23 228/350/23 
f 229/351/22 226/348/22 228/350/22 
f 230/352/21 229/353/21 228/354/21 
f 227/355/137 230/352/137 228/354/137 
f 227/355/19 222/343/19 224/342/19 
f 227/355/19 224/342/19 230/352/19 
f 219/346/18 229/353/18 230/352/18 
f 219/346/18 230/352/18 224/342/18 
f 218/336/17 226/348/17 229/351/17 
f 218/336/17 229/351/17 219/337/17 
f 222/340/16 227/349/16 226/348/16 
f 222/340/16 226/348/16 218/336/16 
f 231/356/15 232/357/15 233/358/15 
f 231/356/15 233/358/15 234/359/15 
f 235/360/13 231/356/13 234/359/13 
f 235/360/14 234/359/14 236/361/14 
f 237/362/11 235/363/11 236/364/11 
f 238/365/138 239/366/138 240/367/138 
f 232/368/9 237/362/9 236/364/9 
f 232/368/139 236/364/139 233/369/139 
f 241/370/8 242/371/8 243/372/8 
f 244/373/7 241/370/7 243/372/7 
f 245/374/6 244/375/6 243/376/6 
f 242/377/5 245/374/5 243/376/5 
f 242/377/4 235/363/4 237/362/4 
f 242/377/4 237/362/4 245/374/4 
f 232/368/3 244/375/3 245/374/3 
f 232/368/3 245/374/3 237/362/3 
f 231/356/2 241/370/2 244/373/2 
f 231/356/2 244/373/2 232/357/2 
f 235/360/1 242/371/1 241/370/1 
f 235/360/1 241/370/1 231/356/1 
f 246/378/140 247/379/140 248/380/140 
f 246/378/141 248/380/141 249/381/141 
f 250/382/142 215/332/142 217/334/142 
f 138/383/143 238/365/143 251/384/143 
f 249/381/144 248/380/144 252/385/144 
f 249/381/145 252/385/145 253/386/145 
f 254/387/146 250/382/146 255/388/146 
f 35/389/147 251/384/147 256/390/147 
f 253/391/148 252/392/148 247/379/148 
f 253/391/149 247/379/149 246/378/149 
f 60/393/150 257/394/150 42/395/150 
f 35/389/151 138/383/151 251/384/151 
f 255/19/152 217/396/152 258/397/152 
f 247/398/153 259/399/153 260/400/153 
f 247/398/154 252/401/154 261/402/154 
f 247/398/155 261/402/155 259/399/155 
f 41/60/156 60/403/156 42/61/156 
f 252/404/157 262/405/157 261/406/157 
f 252/404/158 248/407/158 263/408/158 
f 252/404/159 263/408/159 262/405/159 
f 250/382/160 217/334/160 255/388/160 
f 248/407/161 264/409/161 263/408/161 
f 248/407/162 247/398/162 260/400/162 
f 248/407/163 260/400/163 264/409/163 
f 264/409/164 260/400/164 265/410/164 
f 264/409/164 265/410/164 266/411/164 
f 263/408/165 264/409/165 266/411/165 
f 263/408/165 266/411/165 267/412/165 
f 262/405/166 263/408/166 267/412/166 
f 262/405/167 267/412/167 268/413/167 
f 261/406/168 262/405/168 268/413/168 
f 261/406/169 268/413/169 269/414/169 
f 259/399/170 261/402/170 269/415/170 
f 259/399/170 269/415/170 270/416/170 
f 260/400/171 259/399/171 270/416/171 
f 260/400/171 270/416/171 265/410/171 
f 265/410/172 270/416/172 271/417/172 
f 239/366/173 254/418/173 255/419/173 
f 270/416/174 269/415/174 272/420/174 
f 270/416/175 272/420/175 271/417/175 
f 269/414/35 268/413/35 272/421/35 
f 216/333/176 240/367/176 273/422/176 
f 268/413/133 267/412/133 274/423/133 
f 268/413/177 274/423/177 272/421/177 
f 267/412/178 266/411/178 274/423/178 
f 240/367/179 239/366/179 273/422/179 
f 266/411/180 265/410/180 271/417/180 
f 266/411/181 271/417/181 274/423/181 
f 274/424/182 271/425/182 275/17/182 
f 138/383/183 41/60/183 238/365/183 
f 272/426/12 274/424/12 275/17/12 
f 216/333/184 273/422/184 217/334/184 
f 271/425/185 272/427/185 275/17/185 
f 239/366/186 255/419/186 273/422/186 
f 276/428/185 12/429/185 14/19/185 
f 277/430/185 278/431/185 279/426/185 
f 41/60/187 43/62/187 238/365/187 
f 278/432/12 280/433/12 279/426/12 
f 42/395/188 250/382/188 254/387/188 
f 280/433/182 277/430/182 279/426/182 
f 281/434/180 282/435/180 277/436/180 
f 281/434/181 277/436/181 280/437/181 
f 283/438/178 281/434/178 280/437/178 
f 217/396/189 273/439/189 258/397/189 
f 284/440/133 283/438/133 280/437/133 
f 284/440/134 280/437/134 278/441/134 
f 285/442/35 284/440/35 278/441/35 
f 273/439/190 255/443/190 258/397/190 
f 286/444/174 285/445/174 278/446/174 
f 286/444/175 278/446/175 277/436/175 
f 282/435/172 286/444/172 277/436/172 
f 257/394/191 256/390/191 215/332/191 
f 287/447/171 288/448/171 286/444/171 
f 287/447/171 286/444/171 282/435/171 
f 288/448/192 289/449/192 285/445/192 
f 288/448/192 285/445/192 286/444/192 
f 289/450/168 290/451/168 284/440/168 
f 289/450/168 284/440/168 285/442/168 
f 290/451/167 291/452/167 283/438/167 
f 290/451/167 283/438/167 284/440/167 
f 291/452/165 292/453/165 281/434/165 
f 291/452/165 281/434/165 283/438/165 
f 292/453/164 287/447/164 282/435/164 
f 292/453/164 282/435/164 281/434/164 
f 293/454/162 294/455/162 287/447/162 
f 293/454/163 287/447/163 292/453/163 
f 295/456/180 296/457/180 276/458/180 
f 293/454/161 292/453/161 291/452/161 
f 297/459/193 293/454/193 291/452/193 
f 297/459/159 291/452/159 290/451/159 
f 13/18/182 276/428/182 14/19/182 
f 297/459/157 290/451/157 289/450/157 
f 294/455/154 297/460/154 289/449/154 
f 294/455/155 289/449/155 288/448/155 
f 211/325/178 295/456/178 13/326/178 
f 294/455/153 288/448/153 287/447/153 
f 35/389/194 256/390/194 257/394/194 
f 43/62/195 42/61/195 254/418/195 
f 298/461/148 297/462/148 294/463/148 
f 298/461/149 294/463/149 299/464/149 
f 60/393/196 35/389/196 257/394/196 
f 42/395/188 257/394/188 250/382/188 
f 300/465/144 293/466/144 297/467/144 
f 300/465/145 297/467/145 298/468/145 
f 295/456/197 276/458/197 13/326/197 
f 43/62/195 254/418/195 239/366/195 
f 299/464/140 294/463/140 293/466/140 
f 299/464/141 293/466/141 300/465/141 
f 256/390/198 251/384/198 216/333/198 
f 301/469/199 302/470/199 303/471/199 
f 303/471/200 302/470/200 304/472/200 
f 34/48/201 138/208/201 35/49/201 
f 303/471/202 304/472/202 305/473/202 
f 303/471/145 305/473/145 306/474/145 
f 251/384/203 238/365/203 240/367/203 
f 238/365/138 43/62/138 239/366/138 
f 306/475/204 305/476/204 307/477/204 
f 306/475/205 307/477/205 301/469/205 
f 301/469/206 307/477/206 302/470/206 
f 118/177/207 41/90/207 138/208/207 
f 302/478/208 307/479/208 308/480/208 
f 302/478/209 308/480/209 309/481/209 
f 307/479/210 305/482/210 310/483/210 
f 307/479/211 310/483/211 308/480/211 
f 251/384/203 240/367/203 216/333/203 
f 305/482/157 311/484/157 310/483/157 
f 305/485/212 304/486/212 312/487/212 
f 305/485/159 312/487/159 311/488/159 
f 304/486/213 302/478/213 313/489/213 
f 304/486/214 313/489/214 312/487/214 
f 256/390/198 216/333/198 215/332/198 
f 302/478/215 309/481/215 313/489/215 
f 313/489/164 309/481/164 296/457/164 
f 313/489/164 296/457/164 295/456/164 
f 312/487/165 313/489/165 295/456/165 
f 312/487/165 295/456/165 211/325/165 
f 311/488/166 312/487/166 211/325/166 
f 311/488/166 211/325/166 40/324/166 
f 310/483/169 311/484/169 40/58/169 
f 310/483/169 40/58/169 39/57/169 
f 308/480/170 310/483/170 39/57/170 
f 308/480/170 39/57/170 314/490/170 
f 309/481/171 308/480/171 314/490/171 
f 309/481/171 314/490/171 296/457/171 
f 296/457/172 314/490/172 276/458/172 
f 257/394/191 215/332/191 250/382/191 
f 314/490/174 39/57/174 12/59/174 
f 314/490/175 12/59/175 276/458/175 
usemtl planta_Material_002_NONE
f 234/358/216 233/364/216 236/359/216 
f 146/218/217 144/213/217 142/212/217 
f 142/212/218 141/219/218 146/218/218 
f 137/209/219 136/205/219 135/207/219 
f 59/91/220 58/84/220 57/86/220 
f 246/381/221 249/386/221 253/378/221 
f 81/120/222 79/115/222 77/114/222 
f 77/114/223 76/121/223 81/120/223 
f 225/344/224 223/339/224 221/338/224 
f 221/338/225 220/345/225 225/344/225 
f 15/22/216 11/15/216 10/20/216 
f 187/286/226 189/287/226 190/289/226 
f 190/289/227 188/284/227 187/286/227 
f 212/330/228 214/335/228 213/328/228 
f 25/39/224 27/40/224 28/42/224 
f 28/42/225 26/37/225 25/39/225 
f 193/299/220 197/298/220 194/292/220 
f 306/469/221 301/471/221 303/474/221 
f 31/54/228 38/53/228 32/45/228 
f 159/238/229 157/233/229 155/232/229 
f 155/232/230 154/239/230 159/238/230 
f 299/465/221 300/468/221 298/464/221 
f 99/151/230 97/146/230 96/148/230 
f 96/148/231 98/149/231 99/151/231 
f 177/269/232 175/264/232 174/266/232 
f 174/266/233 176/267/233 177/269/233 
f 112/171/218 110/166/218 109/168/218 
f 109/168/217 111/169/217 112/171/217 
f 36/177/234 118/48/234 34/50/234 
f 115/181/235 120/180/235 116/174/235 
# 538 faces

