# 3ds Max Wavefront OBJ Exporter v0.99 - (c)2007 guruware
# File Created: 13.03.2026 18:37:08

mtllib planta3.mtl

#
# object Mesh_Cube002
#

v  1.4504 0.0558 7.9918
v  1.4669 0.1814 8.0006
v  1.4639 0.1806 8.0095
v  1.4474 0.0549 8.0007
v  1.4583 0.1813 8.0170
v  1.4418 0.0557 8.0082
v  1.4613 0.1822 8.0081
v  1.4447 0.0565 7.9993
v  1.4824 0.2880 8.0209
v  1.4321 -0.0060 7.9944
v  1.4303 -0.0062 7.9990
v  1.5019 0.4551 8.0888
v  1.5053 0.4550 8.0870
v  1.5031 0.4869 8.0868
v  1.4323 -0.0065 7.9962
v  1.4059 0.0610 7.9777
v  1.3941 0.1971 7.9557
v  1.4024 0.1961 7.9494
v  1.4142 0.0599 7.9715
v  1.4122 0.1972 7.9461
v  1.4240 0.0611 7.9682
v  1.4039 0.1982 7.9523
v  1.4157 0.0621 7.9744
v  1.3908 0.3117 7.9243
v  1.4268 -0.0050 7.9879
v  1.4298 -0.0053 7.9856
v  1.4231 -0.0054 7.9891
v  1.4262 -0.0058 7.9868
v  1.4174 0.0525 7.9992
v  1.4110 0.0520 7.9933
v  1.4157 -0.0102 7.9921
v  1.4197 -0.0100 7.9950
v  1.4254 0.0527 8.0027
v  1.6265 -0.0109 8.0815
v  1.6312 0.3447 8.0852
v  1.6297 -0.0110 8.0840
v  1.4190 0.0523 7.9968
v  1.4186 -0.0101 7.9934
v  1.4962 0.4463 8.0909
v  1.5031 0.4463 8.0948
v  1.6294 0.3447 8.0893
v  1.6372 0.3566 8.0914
v  1.6303 0.3566 8.0952
v  1.4190 0.1731 7.9941
v  1.4110 0.1728 7.9907
v  1.4167 0.2023 7.9960
v  1.4254 0.1736 8.0000
v  1.4128 0.0456 7.9122
v  1.4155 0.1873 7.9136
v  1.4234 0.1870 7.9070
v  1.4206 0.0452 7.9056
v  1.4329 0.1864 7.9033
v  1.4302 0.0447 7.9019
v  1.4251 0.1867 7.9099
v  1.4223 0.0450 7.9085
v  1.4241 0.3117 7.9023
v  1.4260 -0.0282 7.9099
v  1.4289 -0.0283 7.9075
v  1.4238 -0.0280 7.9102
v  1.6323 0.3454 8.0884
v  1.4513 0.0540 7.9167
v  1.4497 0.0553 7.9288
v  1.4284 -0.0225 7.9258
v  1.4290 -0.0230 7.9213
v  1.4491 0.0552 7.9047
v  1.4282 -0.0226 7.9169
v  1.4475 0.0565 7.9168
v  1.4276 -0.0221 7.9213
v  1.4807 0.2136 7.9158
v  1.4785 0.2148 7.9038
v  1.5132 0.3493 7.9168
v  1.4791 0.2149 7.9279
v  1.4769 0.2161 7.9159
v  1.4034 0.0481 7.9363
v  1.3984 0.0490 7.9265
v  1.4141 -0.0235 7.9192
v  1.4159 -0.0239 7.9229
v  1.4112 0.0491 7.9441
v  1.4188 -0.0235 7.9257
v  1.4062 0.0500 7.9343
v  1.4170 -0.0232 7.9221
v  1.3855 0.1955 7.9491
v  1.3933 0.1964 7.9569
v  1.3639 0.3215 7.9625
v  1.3806 0.1964 7.9392
v  1.3884 0.1974 7.9470
v  1.5289 0.0491 7.9768
v  1.5092 0.1964 7.9672
v  1.5124 0.1955 7.9566
v  1.5321 0.0481 7.9663
v  1.5187 0.1964 7.9475
v  1.5384 0.0490 7.9572
v  1.5156 0.1974 7.9581
v  1.5353 0.0500 7.9678
v  1.4903 0.3215 7.9439
v  1.5511 -0.0232 7.9715
v  1.5522 -0.0235 7.9676
v  1.5487 -0.0235 7.9748
v  1.5499 -0.0239 7.9709
v  1.5816 0.0552 7.9915
v  1.5964 0.2148 8.0170
v  1.5868 0.2136 8.0246
v  1.5721 0.0540 7.9991
v  1.5754 0.2149 8.0289
v  1.5607 0.0553 8.0034
v  1.5850 0.2161 8.0213
v  1.5702 0.0565 7.9958
v  1.6014 0.3493 8.0536
v  1.5568 -0.0221 7.9804
v  1.5533 -0.0225 7.9832
v  1.5610 -0.0226 7.9789
v  1.5575 -0.0230 7.9817
v  1.5673 0.0452 7.9668
v  1.5751 0.0447 7.9735
v  1.5696 -0.0283 7.9750
v  1.5647 -0.0280 7.9718
v  1.5578 0.0456 7.9631
v  1.6259 -0.0109 8.0855
v  1.5656 0.0450 7.9697
v  1.5661 -0.0282 7.9736
v  1.5674 0.1870 7.9699
v  1.5579 0.1873 7.9661
v  1.5719 0.3117 7.9684
v  1.5752 0.1864 7.9766
v  1.5657 0.1867 7.9728
v  1.6309 0.0437 8.0677
v  1.6310 0.1854 8.0708
v  1.6405 0.1851 8.0745
v  1.6404 0.0434 8.0715
v  1.6483 0.1846 8.0812
v  1.6482 0.0429 8.0781
v  1.6388 0.1849 8.0774
v  1.6387 0.0432 8.0743
v  1.6450 0.3098 8.0730
v  1.6392 -0.0300 8.0783
v  1.6427 -0.0301 8.0796
v  1.6378 -0.0298 8.0764
v  1.6283 0.3455 8.0861
v  1.6452 0.0522 8.1037
v  1.6338 0.0535 8.1081
v  1.6264 -0.0244 8.0879
v  1.6306 -0.0249 8.0863
v  1.6547 0.0534 8.0961
v  1.6341 -0.0244 8.0835
v  1.6433 0.0547 8.1005
v  1.6299 -0.0239 8.0851
v  1.6599 0.2118 8.1292
v  1.6694 0.2130 8.1216
v  1.6745 0.3474 8.1582
v  1.6485 0.2131 8.1335
v  1.6581 0.2143 8.1259
v  1.6052 0.0463 8.0709
v  1.6115 0.0472 8.0618
v  1.6253 -0.0254 8.0722
v  1.6230 -0.0257 8.0755
v  1.6020 0.0473 8.0814
v  1.6218 -0.0254 8.0794
v  1.6084 0.0482 8.0724
v  1.6242 -0.0250 8.0761
v  1.5855 0.1936 8.0612
v  1.5823 0.1946 8.0718
v  1.5634 0.3196 8.0485
v  1.5918 0.1945 8.0522
v  1.5887 0.1955 8.0627
v  1.4843 0.0473 8.0487
v  1.4664 0.1946 8.0615
v  1.4586 0.1936 8.0537
v  1.4765 0.0463 8.0409
v  1.4537 0.1945 8.0438
v  1.4715 0.0472 8.0311
v  1.4615 0.1955 8.0516
v  1.4793 0.0482 8.0389
v  1.4370 0.3196 8.0671
v  1.4901 -0.0250 8.0267
v  1.4872 -0.0254 8.0239
v  1.4919 -0.0254 8.0304
v  1.4890 -0.0257 8.0275
v  1.5222 0.0534 8.0093
v  1.5516 0.2130 8.0084
v  1.5538 0.2118 8.0204
v  1.5244 0.0522 8.0213
v  1.5522 0.2131 8.0325
v  1.5228 0.0535 8.0334
v  1.5500 0.2143 8.0205
v  1.5206 0.0547 8.0214
v  1.5863 0.3474 8.0214
v  1.5007 -0.0239 8.0260
v  1.5015 -0.0244 8.0304
v  1.5013 -0.0244 8.0215
v  1.5021 -0.0249 8.0259
v  1.4937 0.0434 8.0102
v  1.5033 0.0429 8.0066
v  1.5020 -0.0301 8.0121
v  1.4969 -0.0298 8.0149
v  1.4859 0.0437 8.0168
v  1.4954 0.0432 8.0131
v  1.4991 -0.0300 8.0145
v  1.4965 0.1851 8.0116
v  1.4886 0.1854 8.0182
v  1.4972 0.3098 8.0069
v  1.5060 0.1846 8.0079
v  1.4982 0.1849 8.0145
v  1.4985 0.0509 8.1073
v  1.4985 0.1717 8.1047
v  1.4898 0.2005 8.1006
v  1.4905 0.0506 8.1038
v  1.4841 0.1710 8.0953
v  1.4841 0.0502 8.0979
v  1.4921 0.1713 8.0988
v  1.4921 0.0504 8.1014
v  1.5099 0.4463 8.0909
v  1.4917 -0.0120 8.0980
v  1.4888 -0.0121 8.0968
v  1.4928 -0.0118 8.0996
v  1.6310 0.4220 8.0801
v  1.6241 0.4220 8.0840
v  1.6300 0.4307 8.0861
v  1.4873 0.0581 8.0761
v  1.4971 0.0592 8.0728
v  1.5029 -0.0072 8.0902
v  1.4993 -0.0076 8.0914
v  1.4790 0.0591 8.0824
v  1.4962 -0.0072 8.0937
v  1.4888 0.0602 8.0790
v  1.4999 -0.0068 8.0925
v  1.4755 0.1942 8.0541
v  1.4672 0.1952 8.0603
v  1.4639 0.3099 8.0289
v  1.4853 0.1953 8.0507
v  1.4770 0.1964 8.0569
v  1.5205 0.0531 8.1053
v  1.5148 0.0539 8.1128
v  1.5034 -0.0080 8.1036
v  1.5054 -0.0083 8.1008
v  1.5235 0.0539 8.0964
v  1.5052 -0.0078 8.0991
v  1.5178 0.0547 8.1039
v  1.6235 0.3567 8.0912
v  1.6308 0.4218 8.0959
v  1.6241 0.4219 8.0919
v  1.5370 0.1787 8.1141
v  1.5400 0.1796 8.1052
v  1.5555 0.2862 8.1255
v  1.5314 0.1795 8.1216
v  1.5344 0.1803 8.1127
v  1.4196 -0.0132 7.9178
v  1.4191 0.3716 7.9183
v  1.4229 0.3716 7.9199
v  1.4231 -0.0132 7.9205
v  1.6378 0.4219 8.0841
v  1.6236 0.3568 8.0833
v  1.4197 0.3716 7.9224
v  1.4190 -0.0132 7.9222
v  1.6377 0.4218 8.0920
v  1.6332 0.4307 8.0882
v  1.6305 0.3568 8.0795
v  1.6373 0.3567 8.0835
v  1.6313 0.4626 8.0883
v  1.4132 0.3846 7.9159
v  1.4206 0.3846 7.9117
v  1.4132 0.3846 7.9245
v  1.4206 0.3846 7.9287
v  1.4280 0.3846 7.9245
v  1.4280 0.3846 7.9159
v  1.4206 0.4551 7.9117
v  1.4280 0.4551 7.9159
v  1.4280 0.4551 7.9245
v  1.4206 0.4551 7.9287
v  1.4132 0.4551 7.9245
v  1.4132 0.4551 7.9159
v  1.4195 0.4646 7.9181
v  1.4193 0.4647 7.9222
v  1.6298 0.4307 8.0899
v  1.4229 0.4646 7.9203
v  1.4206 0.4992 7.9200
v  1.5021 0.4550 8.0850
v  1.5505 0.4824 7.9761
v  1.5503 0.4825 7.9808
v  1.5518 0.5218 7.9784
v  1.5545 0.4824 7.9787
v  1.5602 0.4716 7.9737
v  1.5518 0.4716 7.9688
v  1.5602 0.4716 7.9834
v  1.5518 0.4716 7.9883
v  1.5433 0.4716 7.9834
v  1.5433 0.4716 7.9737
v  1.5518 0.3912 7.9688
v  1.5433 0.3912 7.9737
v  1.5433 0.3912 7.9834
v  1.5518 0.3912 7.9883
v  1.5602 0.3912 7.9834
v  1.5602 0.3912 7.9737
v  1.5545 0.3764 7.9782
v  1.5501 0.3764 7.9764
v  1.5099 0.4463 8.0830
v  1.5031 0.4463 8.0790
v  1.5507 0.3764 7.9811
v  1.5500 -0.0625 7.9809
v  1.5507 -0.0625 7.9758
v  1.5547 -0.0625 7.9789
v  1.5022 0.0134 8.0847
v  1.5039 0.3691 8.0849
v  1.5054 0.0134 8.0872
v  1.5051 0.3698 8.0881
v  1.5022 0.3691 8.0890
v  1.5016 0.0134 8.0888
v  1.5011 0.3698 8.0858
v  1.4962 0.3811 8.0830
v  1.5031 0.3811 8.0790
v  1.4962 0.3811 8.0909
v  1.5031 0.3811 8.0948
v  1.5099 0.3811 8.0909
v  1.5099 0.3811 8.0830
v  1.4962 0.4463 8.0830
# 314 vertices

vn 0.9421 -0.1450 0.3024
vn 0.7852 -0.1454 0.6019
vn -0.9421 0.1450 -0.3024
vn -0.7852 0.1454 -0.6019
vn -0.7689 0.2260 -0.5980
vn -0.9307 0.2212 -0.2914
vn 0.7755 -0.1974 0.5998
vn 0.9356 -0.1926 0.2959
vn -0.9325 0.2108 -0.2932
vn -0.9054 0.2219 -0.3618
vn -0.7743 0.2027 -0.5994
vn 0.4571 0.0380 0.8886
vn 0.9254 -0.2476 0.2871
vn 0.9384 -0.2857 -0.1942
vn 0.7676 -0.2316 0.5976
vn -0.6023 -0.1786 -0.7780
vn -0.2992 -0.1781 -0.9374
vn 0.6023 0.1786 0.7780
vn 0.2992 0.1781 0.9374
vn 0.2846 0.2607 0.9225
vn 0.5981 0.2566 0.7592
vn -0.2903 -0.2313 -0.9286
vn -0.6000 -0.2272 -0.7670
vn 0.5983 0.2517 0.7607
vn 0.2897 0.2345 0.9279
vn -0.5957 -0.2838 -0.7514
vn -0.2835 -0.2664 -0.9212
vn -0.6719 -0.0645 0.7379
vn -0.5734 -0.0759 0.8157
vn -0.3964 -0.0760 0.9149
vn 0.6182 0.0001 -0.7860
vn 0.6742 0.0292 -0.7379
vn 0.8190 0.0263 -0.5731
vn 0.3982 0.0471 -0.9161
vn -0.4419 0.4679 0.7654
vn 0.4429 -0.4277 0.7879
vn 0.3955 0.0895 -0.9141
vn 0.6686 0.0996 -0.7369
vn 0.6762 -0.0160 -0.7365
vn 0.4004 -0.0199 -0.9161
vn -0.7147 0.0113 0.6993
vn -0.6762 0.0160 0.7365
vn -0.3635 0.0203 0.9314
vn -0.4003 0.0174 0.9162
vn -0.6422 0.0199 -0.7662
vn -0.3586 0.0160 -0.9334
vn 0.6422 -0.0199 0.7662
vn 0.3586 -0.0160 0.9334
vn 0.3616 0.0595 0.9304
vn 0.6433 0.0515 0.7639
vn -0.3609 -0.0330 -0.9320
vn -0.6432 -0.0250 -0.7653
vn 0.6432 0.0471 0.7643
vn 0.3608 0.0292 0.9322
vn 0.1487 0.0263 0.9885
vn -0.6429 -0.0760 -0.7622
vn 0.2899 -0.0139 0.9570
vn -0.3618 -0.0645 -0.9300
vn -0.4753 -0.0759 -0.8765
vn 0.9512 -0.2664 0.1560
vn 0.9380 -0.2838 -0.1990
vn -0.9599 0.2345 -0.1535
vn -0.9475 0.2517 0.1973
vn -0.9475 0.2517 0.1972
vn 0.9539 -0.2272 -0.1960
vn 0.9607 -0.2313 0.1533
vn -0.9461 0.2566 0.1977
vn -0.9528 0.2607 -0.1556
vn -0.9726 0.1781 -0.1492
vn -0.9648 0.1786 0.1932
vn 0.9726 -0.1781 0.1492
vn 0.9648 -0.1786 -0.1932
vn -0.8768 -0.2316 0.4215
vn -0.6689 -0.2476 0.7009
vn 0.8817 0.2005 -0.4270
vn 0.6763 0.2164 -0.7041
vn -0.6813 -0.1926 0.7062
vn -0.8822 -0.1974 0.4275
vn 0.6751 0.2212 -0.7038
vn 0.8777 0.2260 -0.4225
vn 0.8884 0.1454 -0.4353
vn 0.6901 0.1450 -0.7091
vn -0.8885 -0.1454 0.4353
vn -0.8884 -0.1454 0.4353
vn -0.6901 -0.1450 0.7091
vn -0.9516 -0.1450 -0.2710
vn -0.8047 -0.1454 -0.5755
vn 0.9516 0.1450 0.2710
vn 0.8048 0.1454 0.5755
vn 0.8047 0.1454 0.5755
vn 0.7883 0.2260 0.5722
vn 0.9398 0.2212 0.2604
vn -0.7949 -0.1974 -0.5737
vn -0.9449 -0.1926 -0.2647
vn 0.9407 0.2164 0.2613
vn 0.7942 0.2005 0.5736
vn -0.9344 -0.2476 -0.2563
vn -0.9344 -0.2476 -0.2562
vn -0.7870 -0.2316 -0.5719
vn 0.6278 -0.1786 0.7576
vn 0.3301 -0.1781 0.9270
vn -0.6278 0.1786 -0.7576
vn -0.3301 0.1781 -0.9270
vn -0.3151 0.2607 -0.9126
vn -0.6229 0.2566 -0.7390
vn 0.3209 -0.2313 0.9185
vn 0.6251 -0.2272 0.7467
vn -0.6232 0.2517 -0.7405
vn -0.3203 0.2345 -0.9178
vn 0.6202 -0.2838 0.7313
vn 0.3139 -0.2664 0.9113
vn 0.6471 -0.0645 -0.7597
vn 0.5461 -0.0759 -0.8343
vn 0.3659 -0.0760 -0.9276
vn 0.3715 -0.0134 0.9283
vn -0.6494 0.0292 0.7599
vn -0.7996 0.0263 0.5999
vn -0.3676 0.0471 0.9288
vn 0.3685 -0.0250 -0.9293
vn 0.6492 -0.0330 -0.7599
vn -0.3672 0.0515 0.9287
vn -0.6475 0.0595 0.7598
vn -0.6515 -0.0160 0.7585
vn -0.3698 -0.0199 0.9289
vn 0.6515 0.0160 -0.7585
vn 0.3698 0.0199 -0.9289
vn -0.7996 0.0263 0.6000
vn -0.9898 0.0070 -0.1424
vn -0.3150 0.2607 -0.9126
vn -0.8048 -0.1454 -0.5755
vn 0.9440 -0.0028 -0.3300
vn 0.1488 0.0263 0.9885
vn 0.4205 0.5411 0.7283
vn 0.3804 0.5587 0.7370
vn -0.4300 0.4790 -0.7653
vn -0.2836 -0.2664 -0.9212
vn -0.5090 -0.0044 0.8608
vn 0.3812 0.0016 -0.9245
vn 0.6100 -0.0011 -0.7924
vn 0.4326 0.5447 -0.7185
vn -0.9220 -0.3869 -0.0135
vn 0.6100 0.0016 0.7924
vn 0.3812 -0.0011 0.9245
vn 0.8876 0.4604 0.0138
vn -0.4498 -0.4045 -0.7963
vn -0.9912 0.0016 0.1321
vn -0.9912 -0.0011 -0.1321
vn 0.9155 -0.4024 0.0056
vn -0.3566 -0.3565 -0.8636
vn 0.5502 0.0344 -0.8343
vn -0.4662 -0.3612 -0.8075
vn -0.8807 -0.4589 0.1174
vn -0.9093 -0.4162 0.0000
vn 0.3505 -0.3796 0.8562
vn -0.4662 -0.3612 0.8075
vn 0.5420 -0.4589 0.7041
vn 0.4546 -0.4162 0.7875
vn 0.4600 0.5619 -0.6875
vn 0.9325 -0.3612 -0.0000
vn 0.3387 -0.4589 -0.8214
vn 0.4546 -0.4162 -0.7875
vn 0.5000 0.0000 -0.8660
vn 1.0000 0.0000 -0.0000
vn 0.5000 0.0000 0.8660
vn 0.5000 -0.0000 0.8660
vn -0.5000 -0.0000 0.8660
vn -0.5000 0.0000 0.8660
vn -1.0000 0.0000 0.0000
vn -0.5000 0.0000 -0.8660
vn -0.4419 0.4678 -0.7654
vn 0.4173 0.5303 0.7380
vn -0.8412 0.5407 0.0000
vn -0.8278 0.5595 -0.0416
vn -0.8366 0.5478 -0.0033
vn 0.8838 0.4678 -0.0000
vn -0.4460 0.4640 0.7654
vn 0.4205 0.5411 -0.7283
vn 0.4481 0.5588 -0.6978
vn 0.5412 0.0307 -0.8403
vn -0.8677 -0.4583 0.1926
vn -0.8227 0.5668 -0.0446
vn -0.9983 0.0340 -0.0475
vn 0.3773 0.5482 0.7464
vn -0.4776 -0.3653 0.7990
vn 0.9999 -0.0084 0.0104
vn -0.9974 0.0429 -0.0575
vn 0.4481 0.0254 0.8936
vn 0.5090 0.0044 -0.8608
vn -1.0000 -0.0000 0.0000
vn 0.4205 0.5410 -0.7283
vn 0.4716 -0.3571 -0.8062
vn 0.4909 -0.0128 0.8711
vn 0.8600 -0.4686 -0.2018
vn 0.4482 0.5588 -0.6978
vn -0.4909 0.0128 -0.8711
vn 0.6100 -0.0027 -0.7924
vn 0.9405 0.0018 -0.3398
vn -0.2890 0.0138 -0.9572
vn 0.2999 -0.0019 0.9540
vn -0.9999 0.0084 -0.0104
vn -0.9405 0.0015 0.3398
vn -0.9912 -0.0026 -0.1321
vn -0.2990 0.0019 -0.9543
vn -0.9440 0.0060 0.3300
vn -0.3625 -0.3681 -0.8562
vn -0.4546 -0.4162 -0.7875
vn -0.8618 -0.4635 0.2061
vn -0.9188 -0.3947 0.0000
vn 0.3625 -0.3681 0.8562
vn 0.8618 -0.4635 -0.2061
vn 0.9188 -0.3947 -0.0000
vn 0.4662 -0.3612 -0.8075
vn -0.3973 -0.8946 -0.2045
vn -0.2753 -0.8338 -0.4785
vn -0.2776 -0.8338 -0.4771
vn 0.0044 -0.9958 -0.0915
vn -0.0784 -0.9958 -0.0473
vn 0.0000 -1.0000 -0.0000
vn 0.3852 -0.8815 -0.2733
vn 0.3836 -0.8815 -0.2755
vn 0.2593 -0.8338 0.4873
vn 0.2617 -0.8338 0.4861
vn -0.5518 -0.8338 0.0153
vn -0.5518 -0.8338 0.0180
vn -0.0074 -0.9958 0.0913
vn 0.4233 -0.8815 0.2094
vn 0.4245 -0.8815 0.2069
vn 0.4245 -0.8814 0.2069
vn 0.4233 -0.8814 0.2094
vn 0.3836 -0.8814 -0.2755
vn 0.3852 -0.8814 -0.2733
vn -0.0083 -0.9999 -0.0100
# 232 vertex normals

vt 0.7644 0.1853 0.0000
vt 0.8758 0.1855 0.0000
vt 0.8744 0.1999 0.0000
vt 0.7629 0.1997 0.0000
vt 0.8748 0.2144 0.0000
vt 0.7635 0.2144 0.0000
vt 0.5072 0.9516 0.0000
vt 0.6187 0.9497 0.0000
vt 0.6192 0.9643 0.0000
vt 0.5078 0.9662 0.0000
vt 0.6185 0.9787 0.0000
vt 0.5069 0.9808 0.0000
vt 0.7290 0.9642 0.0000
vt 0.9853 0.2047 0.0000
vt 0.4090 0.9626 0.0000
vt 0.4092 0.9497 0.0000
vt 0.9008 0.3691 0.0000
vt 0.9011 0.3647 0.0000
vt 0.9351 0.3691 0.0000
vt 0.6652 0.1979 0.0000
vt 0.6679 0.1849 0.0000
vt 0.6654 0.2105 0.0000
vt 0.5149 0.9180 0.0000
vt 0.6362 0.9181 0.0000
vt 0.6346 0.9339 0.0000
vt 0.5132 0.9337 0.0000
vt 0.6354 0.9497 0.0000
vt 0.5141 0.9497 0.0000
vt 0.5247 0.0469 0.0000
vt 0.6464 0.0474 0.0000
vt 0.6467 0.0632 0.0000
vt 0.5249 0.0629 0.0000
vt 0.6453 0.0788 0.0000
vt 0.5237 0.0788 0.0000
vt 0.7656 0.0656 0.0000
vt 0.7557 0.9391 0.0000
vt 0.4199 0.0507 0.0000
vt 0.4206 0.0371 0.0000
vt 0.4187 0.0642 0.0000
vt 0.4090 0.9320 0.0000
vt 0.4110 0.9180 0.0000
vt 0.4094 0.9454 0.0000
vt 0.8660 0.0662 0.0000
vt 0.8651 0.0788 0.0000
vt 0.7656 0.0740 0.0000
vt 0.7664 0.0611 0.0000
vt 0.8672 0.0512 0.0000
vt 0.2391 0.7360 0.0000
vt 0.2554 0.1316 0.0000
vt 0.2549 0.7416 0.0000
vt 0.8465 0.9406 0.0000
vt 0.8483 0.9531 0.0000
vt 0.7573 0.9502 0.0000
vt 0.7557 0.9389 0.0000
vt 0.8457 0.9280 0.0000
vt 0.7557 0.9271 0.0000
vt 0.8696 0.7592 0.0000
vt 0.8614 0.7730 0.0000
vt 0.8487 0.7475 0.0000
vt 0.8404 0.4799 0.0000
vt 0.8582 0.4496 0.0000
vt 0.8648 0.4639 0.0000
vt 0.9420 0.9305 0.0000
vt 0.9409 0.9180 0.0000
vt 0.9835 0.9266 0.0000
vt 0.9435 0.9427 0.0000
vt 0.9933 0.0682 0.0000
vt 0.9547 0.0788 0.0000
vt 0.9520 0.0515 0.0000
vt 0.5268 0.8857 0.0000
vt 0.6513 0.8857 0.0000
vt 0.6503 0.9019 0.0000
vt 0.5258 0.9018 0.0000
vt 0.6494 0.9180 0.0000
vt 0.5248 0.9180 0.0000
vt 0.5263 0.8207 0.0000
vt 0.6504 0.8138 0.0000
vt 0.6509 0.8300 0.0000
vt 0.5266 0.8371 0.0000
vt 0.6522 0.8459 0.0000
vt 0.5282 0.8533 0.0000
vt 0.7739 0.8252 0.0000
vt 0.7733 0.9072 0.0000
vt 0.4090 0.8291 0.0000
vt 0.4097 0.8138 0.0000
vt 0.4103 0.8439 0.0000
vt 0.4099 0.8974 0.0000
vt 0.2083 0.7168 0.0000
vt 0.2083 0.1254 0.0000
vt 0.2236 0.1316 0.0000
vt 0.4090 0.9125 0.0000
vt 0.5319 0.7949 0.0000
vt 0.5330 0.8138 0.0000
vt 0.4095 0.8087 0.0000
vt 0.4090 0.7929 0.0000
vt 0.5340 0.7764 0.0000
vt 0.4114 0.7765 0.0000
vt 0.5135 0.5985 0.0000
vt 0.5120 0.6172 0.0000
vt 0.3883 0.6000 0.0000
vt 0.3898 0.5842 0.0000
vt 0.5133 0.5797 0.0000
vt 0.3905 0.5681 0.0000
vt 0.6751 0.7951 0.0000
vt 0.6770 0.7765 0.0000
vt 0.8179 0.8012 0.0000
vt 0.6761 0.8137 0.0000
vt 0.6570 0.5989 0.0000
vt 0.6566 0.5802 0.0000
vt 0.7971 0.6016 0.0000
vt 0.6554 0.6172 0.0000
vt 0.1142 0.8656 0.0000
vt 0.1149 0.8828 0.0000
vt 0.0002 0.8782 0.0000
vt 0.0000 0.8635 0.0000
vt 0.1160 0.8488 0.0000
vt 0.0022 0.8483 0.0000
vt 0.5140 0.2882 0.0000
vt 0.5130 0.3053 0.0000
vt 0.3980 0.2896 0.0000
vt 0.3991 0.2749 0.0000
vt 0.5139 0.2711 0.0000
vt 0.3999 0.2600 0.0000
vt 0.2445 0.8658 0.0000
vt 0.2462 0.8489 0.0000
vt 0.3742 0.8714 0.0000
vt 0.2451 0.8828 0.0000
vt 0.6445 0.2886 0.0000
vt 0.6443 0.2716 0.0000
vt 0.7723 0.2911 0.0000
vt 0.6433 0.3053 0.0000
vt 0.5351 0.0802 0.0000
vt 0.6657 0.0803 0.0000
vt 0.6641 0.0972 0.0000
vt 0.5333 0.0970 0.0000
vt 0.6646 0.1142 0.0000
vt 0.5340 0.1142 0.0000
vt 0.5146 0.3815 0.0000
vt 0.6457 0.3819 0.0000
vt 0.6458 0.3990 0.0000
vt 0.5146 0.3987 0.0000
vt 0.6447 0.4158 0.0000
vt 0.5136 0.4158 0.0000
vt 0.7743 0.4016 0.0000
vt 0.7942 0.1029 0.0000
vt 0.3991 0.3853 0.0000
vt 0.3999 0.3702 0.0000
vt 0.3980 0.4001 0.0000
vt 0.4187 0.0949 0.0000
vt 0.4209 0.0796 0.0000
vt 0.4189 0.1097 0.0000
vt 0.5429 0.0000 0.0000
vt 0.6850 0.0001 0.0000
vt 0.6831 0.0185 0.0000
vt 0.5409 0.0184 0.0000
vt 0.6840 0.0371 0.0000
vt 0.5419 0.0371 0.0000
vt 0.5126 0.5307 0.0000
vt 0.6551 0.5312 0.0000
vt 0.6555 0.5498 0.0000
vt 0.5128 0.5495 0.0000
vt 0.6539 0.5681 0.0000
vt 0.5113 0.5681 0.0000
vt 0.7948 0.5525 0.0000
vt 0.8250 0.0246 0.0000
vt 0.3898 0.5352 0.0000
vt 0.3905 0.5192 0.0000
vt 0.3883 0.5510 0.0000
vt 0.4187 0.0163 0.0000
vt 0.4211 0.0000 0.0000
vt 0.4192 0.0320 0.0000
vt 0.1267 0.8989 0.0000
vt 0.1257 0.9151 0.0000
vt 0.0099 0.9095 0.0000
vt 0.0109 0.8944 0.0000
vt 0.1277 0.8828 0.0000
vt 0.2235 0.7261 0.0000
vt 0.5492 0.6823 0.0000
vt 0.5508 0.6985 0.0000
vt 0.4330 0.6891 0.0000
vt 0.4316 0.6743 0.0000
vt 0.5489 0.6659 0.0000
vt 0.4323 0.6590 0.0000
vt 0.2513 0.8990 0.0000
vt 0.2523 0.8828 0.0000
vt 0.3742 0.9043 0.0000
vt 0.2503 0.9151 0.0000
vt 0.6736 0.6752 0.0000
vt 0.6731 0.6590 0.0000
vt 0.7965 0.6704 0.0000
vt 0.6749 0.6911 0.0000
vt 0.5004 0.1854 0.0000
vt 0.5843 0.1928 0.0000
vt 0.5827 0.2036 0.0000
vt 0.4988 0.1962 0.0000
vt 0.5811 0.2144 0.0000
vt 0.4972 0.2070 0.0000
vt 0.4971 0.1636 0.0000
vt 0.5797 0.1513 0.0000
vt 0.5811 0.1621 0.0000
vt 0.4983 0.1746 0.0000
vt 0.5829 0.1727 0.0000
vt 0.6630 0.1513 0.0000
vt 0.6652 0.2144 0.0000
vt 0.4191 0.1765 0.0000
vt 0.4187 0.1662 0.0000
vt 0.4210 0.1864 0.0000
vt 0.2396 0.1248 0.0000
vt 0.4194 0.1965 0.0000
vt 0.5409 0.1326 0.0000
vt 0.5419 0.1513 0.0000
vt 0.4192 0.1463 0.0000
vt 0.4187 0.1306 0.0000
vt 0.5429 0.1142 0.0000
vt 0.4211 0.1143 0.0000
vt 0.5128 0.4953 0.0000
vt 0.5113 0.5139 0.0000
vt 0.3883 0.4968 0.0000
vt 0.3898 0.4810 0.0000
vt 0.5126 0.4765 0.0000
vt 0.3905 0.4650 0.0000
vt 0.6831 0.1328 0.0000
vt 0.6850 0.1143 0.0000
vt 0.8250 0.1388 0.0000
vt 0.6840 0.1513 0.0000
vt 0.6555 0.4956 0.0000
vt 0.6551 0.4770 0.0000
vt 0.7948 0.4984 0.0000
vt 0.6539 0.5139 0.0000
vt 0.5462 0.7555 0.0000
vt 0.5469 0.7727 0.0000
vt 0.4318 0.7682 0.0000
vt 0.4316 0.7534 0.0000
vt 0.5480 0.7387 0.0000
vt 0.4338 0.7381 0.0000
vt 0.5146 0.2428 0.0000
vt 0.5136 0.2600 0.0000
vt 0.3980 0.2442 0.0000
vt 0.3991 0.2294 0.0000
vt 0.5146 0.2256 0.0000
vt 0.3999 0.2144 0.0000
vt 0.6770 0.7557 0.0000
vt 0.6786 0.7388 0.0000
vt 0.8071 0.7613 0.0000
vt 0.6775 0.7727 0.0000
vt 0.6458 0.2432 0.0000
vt 0.6457 0.2261 0.0000
vt 0.7743 0.2457 0.0000
vt 0.6447 0.2600 0.0000
vt 0.1160 0.8143 0.0000
vt 0.2462 0.8145 0.0000
vt 0.2445 0.8313 0.0000
vt 0.1142 0.8311 0.0000
vt 0.2451 0.8483 0.0000
vt 0.1149 0.8483 0.0000
vt 0.5139 0.3361 0.0000
vt 0.6443 0.3365 0.0000
vt 0.6445 0.3535 0.0000
vt 0.5140 0.3532 0.0000
vt 0.6433 0.3702 0.0000
vt 0.5130 0.3702 0.0000
vt 0.7723 0.3561 0.0000
vt 0.3742 0.8369 0.0000
vt 0.3991 0.3399 0.0000
vt 0.3999 0.3249 0.0000
vt 0.3980 0.3546 0.0000
vt 0.0000 0.8290 0.0000
vt 0.0022 0.8138 0.0000
vt 0.0002 0.8437 0.0000
vt 0.1250 0.7765 0.0000
vt 0.2681 0.7766 0.0000
vt 0.2662 0.7951 0.0000
vt 0.1230 0.7949 0.0000
vt 0.2671 0.8138 0.0000
vt 0.1240 0.8138 0.0000
vt 0.5133 0.4274 0.0000
vt 0.6566 0.4279 0.0000
vt 0.6570 0.4466 0.0000
vt 0.5135 0.4463 0.0000
vt 0.6554 0.4650 0.0000
vt 0.5120 0.4650 0.0000
vt 0.7971 0.4494 0.0000
vt 0.4090 0.8013 0.0000
vt 0.3898 0.4319 0.0000
vt 0.3905 0.4158 0.0000
vt 0.3883 0.4478 0.0000
vt 0.0000 0.7929 0.0000
vt 0.0024 0.7764 0.0000
vt 0.0005 0.8087 0.0000
vt 0.5258 0.8695 0.0000
vt 0.5248 0.8857 0.0000
vt 0.4090 0.8801 0.0000
vt 0.4099 0.8650 0.0000
vt 0.5268 0.8533 0.0000
vt 0.2718 0.1255 0.0000
vt 0.5492 0.7218 0.0000
vt 0.5508 0.7381 0.0000
vt 0.4330 0.7287 0.0000
vt 0.4316 0.7138 0.0000
vt 0.5489 0.7055 0.0000
vt 0.4323 0.6985 0.0000
vt 0.6503 0.8696 0.0000
vt 0.6513 0.8534 0.0000
vt 0.7733 0.8749 0.0000
vt 0.6494 0.8857 0.0000
vt 0.6736 0.7147 0.0000
vt 0.6731 0.6985 0.0000
vt 0.7965 0.7100 0.0000
vt 0.6749 0.7307 0.0000
vt 0.8739 0.2777 0.0000
vt 0.9587 0.2779 0.0000
vt 1.0000 0.2947 0.0000
vt 0.8727 0.2927 0.0000
vt 0.9614 0.3053 0.0000
vt 0.8718 0.3053 0.0000
vt 0.8455 0.9630 0.0000
vt 0.9404 0.9531 0.0000
vt 0.9416 0.9656 0.0000
vt 0.8463 0.9756 0.0000
vt 0.9430 0.9777 0.0000
vt 0.8482 0.9880 0.0000
vt 0.9435 0.9780 0.0000
vt 0.9835 0.9609 0.0000
vt 0.8635 0.7036 0.0000
vt 0.8705 0.7163 0.0000
vt 0.8531 0.7297 0.0000
vt 0.8472 0.7230 0.0000
vt 0.7557 0.9738 0.0000
vt 0.7557 0.9621 0.0000
vt 0.7573 0.9852 0.0000
vt 0.7731 0.2876 0.0000
vt 0.9540 0.5025 0.0000
vt 0.9532 0.4913 0.0000
vt 0.9758 0.4946 0.0000
vt 0.7723 0.3005 0.0000
vt 0.1141 0.9308 0.0000
vt 0.1150 0.9468 0.0000
vt 0.0103 0.9424 0.0000
vt 0.0099 0.9290 0.0000
vt 0.1159 0.9151 0.0000
vt 0.0120 0.9151 0.0000
vt 0.5378 0.6431 0.0000
vt 0.5366 0.6590 0.0000
vt 0.4316 0.6444 0.0000
vt 0.4328 0.6309 0.0000
vt 0.5376 0.6271 0.0000
vt 0.4335 0.6172 0.0000
vt 0.2355 0.9309 0.0000
vt 0.2371 0.9152 0.0000
vt 0.3566 0.9361 0.0000
vt 0.2363 0.9467 0.0000
vt 0.6596 0.6434 0.0000
vt 0.6593 0.6275 0.0000
vt 0.7785 0.6457 0.0000
vt 0.6582 0.6590 0.0000
vt 0.7629 0.1662 0.0000
vt 0.7635 0.1808 0.0000
vt 0.6654 0.1769 0.0000
vt 0.6652 0.1643 0.0000
vt 0.7644 0.1518 0.0000
vt 0.6679 0.1513 0.0000
vt 0.1088 0.9633 0.0000
vt 0.1079 0.9778 0.0000
vt 0.0099 0.9596 0.0000
vt 0.8678 0.4766 0.0000
vt 0.9583 0.4673 0.0000
vt 0.9544 0.4798 0.0000
vt 0.1081 0.9487 0.0000
vt 0.0101 0.9468 0.0000
vt 0.8743 0.1663 0.0000
vt 0.8758 0.1519 0.0000
vt 0.9853 0.1711 0.0000
vt 0.8748 0.1808 0.0000
vt 0.2201 0.9613 0.0000
vt 0.2196 0.9468 0.0000
vt 0.3300 0.9613 0.0000
vt 0.2194 0.9758 0.0000
vt 0.3155 0.1558 0.0000
vt 0.3155 0.6935 0.0000
vt 0.3346 0.6852 0.0000
vt 0.3346 0.1475 0.0000
vt 0.9574 0.5147 0.0000
vt 0.8432 0.4880 0.0000
vt 0.8685 0.4883 0.0000
vt 0.3537 0.6768 0.0000
vt 0.3537 0.1392 0.0000
vt 0.9650 0.5286 0.0000
vt 0.9789 0.5044 0.0000
vt 0.8396 0.4943 0.0000
vt 0.8675 0.5004 0.0000
vt 0.2963 0.1642 0.0000
vt 0.2963 0.7018 0.0000
vt 0.8358 0.5026 0.0000
vt 0.8640 0.5133 0.0000
vt 0.8566 0.5286 0.0000
vt 0.9354 0.3647 0.0000
vt 0.9694 0.3691 0.0000
vt 0.9759 0.8593 0.0000
vt 0.9520 0.8754 0.0000
vt 0.9490 0.8629 0.0000
vt 0.9819 0.8664 0.0000
vt 0.9586 0.8896 0.0000
vt 0.8380 0.4728 0.0000
vt 0.9792 0.8412 0.0000
vt 0.9527 0.8265 0.0000
vt 0.9602 0.8113 0.0000
vt 0.9753 0.8499 0.0000
vt 0.9493 0.8393 0.0000
vt 0.9482 0.8511 0.0000
vt 0.8631 0.8597 0.0000
vt 0.8643 0.8483 0.0000
vt 0.8635 0.8372 0.0000
vt 0.8601 0.8250 0.0000
vt 0.8526 0.8113 0.0000
vt 0.8504 0.8873 0.0000
vt 0.8592 0.8722 0.0000
vt 0.8395 0.8550 0.0000
vt 0.9672 0.4520 0.0000
vt 0.9861 0.4770 0.0000
vt 0.8316 0.8625 0.0000
vt 0.8388 0.8353 0.0000
vt 0.9782 0.4846 0.0000
vt 0.8419 0.8450 0.0000
vt 0.8641 0.3643 0.0000
vt 0.8650 0.3595 0.0000
vt 0.8637 0.3691 0.0000
vt 0.8666 0.3550 0.0000
vt 0.9020 0.3603 0.0000
vt 0.9035 0.3560 0.0000
vt 0.8229 0.3582 0.0000
vt 0.8247 0.3530 0.0000
vt 0.8214 0.3691 0.0000
vt 0.8218 0.3636 0.0000
vt 0.9551 0.6166 0.0000
vt 0.9563 0.6052 0.0000
vt 0.9799 0.6099 0.0000
vt 0.9776 0.6199 0.0000
vt 0.9559 0.6278 0.0000
vt 0.9363 0.3603 0.0000
vt 0.9593 0.6399 0.0000
vt 0.9807 0.6297 0.0000
vt 0.9668 0.6537 0.0000
vt 0.9377 0.3560 0.0000
vt 0.9602 0.5927 0.0000
vt 0.9690 0.5776 0.0000
vt 0.9878 0.6024 0.0000
vt 0.8703 0.6020 0.0000
vt 0.8674 0.5895 0.0000
vt 0.8607 0.5753 0.0000
vt 0.8591 0.6537 0.0000
vt 0.8667 0.6385 0.0000
vt 0.8700 0.6256 0.0000
vt 0.8712 0.6138 0.0000
vt 0.8440 0.6150 0.0000
vt 0.8434 0.6056 0.0000
vt 0.8734 0.7272 0.0000
vt 0.8742 0.7375 0.0000
vt 0.8532 0.7391 0.0000
vt 0.8401 0.6238 0.0000
vt 0.8374 0.5985 0.0000
vt 0.0354 0.7275 0.0000
vt 0.0186 0.1398 0.0000
vt 0.0368 0.1398 0.0000
vt 0.0536 0.7275 0.0000
vt 0.0717 0.7275 0.0000
vt 0.0550 0.1398 0.0000
vt 0.0731 0.1398 0.0000
vt 0.0899 0.7275 0.0000
vt 0.1438 0.7358 0.0000
vt 0.1553 0.1156 0.0000
vt 0.1553 0.7412 0.0000
vt 0.1673 0.1089 0.0000
vt 0.1787 0.1266 0.0000
vt 0.1666 0.7621 0.0000
vt 0.1325 0.7259 0.0000
vt 0.1322 0.1162 0.0000
vt 0.1438 0.1089 0.0000
vt 0.9759 0.7391 0.0000
vt 0.9741 0.7455 0.0000
vt 0.9516 0.7509 0.0000
vt 0.9509 0.7401 0.0000
vt 0.9785 0.7519 0.0000
vt 0.9543 0.7624 0.0000
vt 0.9601 0.7753 0.0000
vt 0.9832 0.7277 0.0000
vt 0.9771 0.7312 0.0000
vt 0.9550 0.7176 0.0000
vt 0.9617 0.7036 0.0000
vt 0.9520 0.7292 0.0000
vt 0.8731 0.7478 0.0000
# 490 texture coords

o Mesh_Cube002
g Mesh_Cube002
usemtl planta_Material_002
s off
f 1/1/1 2/2/1 3/3/1 
f 1/1/1 3/3/1 4/4/1 
f 4/4/2 3/3/2 5/5/2 
f 4/4/2 5/5/2 6/6/2 
f 6/7/3 5/8/3 7/9/3 
f 6/7/3 7/9/3 8/10/3 
f 2/11/4 1/12/4 8/10/4 
f 2/11/4 8/10/4 7/9/4 
f 2/11/5 7/9/5 9/13/5 
f 7/9/6 5/8/6 9/13/6 
f 5/5/7 3/3/7 9/14/7 
f 3/3/8 2/2/8 9/14/8 
f 6/7/9 8/10/9 10/15/9 
f 6/7/10 10/15/10 11/16/10 
f 8/10/11 1/12/11 10/15/11 
f 12/17/12 13/18/12 14/19/12 
f 1/1/13 4/4/13 15/20/13 
f 1/1/14 15/20/14 10/21/14 
f 4/4/15 6/6/15 11/22/15 
f 4/4/15 11/22/15 15/20/15 
f 16/23/16 17/24/16 18/25/16 
f 16/23/16 18/25/16 19/26/16 
f 19/26/17 18/25/17 20/27/17 
f 19/26/17 20/27/17 21/28/17 
f 21/29/18 20/30/18 22/31/18 
f 21/29/18 22/31/18 23/32/18 
f 17/33/19 16/34/19 23/32/19 
f 17/33/19 23/32/19 22/31/19 
f 17/33/20 22/31/20 24/35/20 
f 22/31/21 20/30/21 24/35/21 
f 20/27/22 18/25/22 24/36/22 
f 18/25/23 17/24/23 24/36/23 
f 21/29/24 23/32/24 25/37/24 
f 21/29/24 25/37/24 26/38/24 
f 23/32/25 16/34/25 27/39/25 
f 23/32/25 27/39/25 25/37/25 
f 16/23/26 19/26/26 28/40/26 
f 16/23/26 28/40/26 27/41/26 
f 19/26/27 21/28/27 26/42/27 
f 19/26/27 26/42/27 28/40/27 
f 29/43/28 30/44/28 31/45/28 
f 29/43/29 31/45/29 32/46/29 
f 33/47/30 29/43/30 32/46/30 
f 34/48/31 35/49/31 36/50/31 
f 37/51/32 33/52/32 32/53/32 
f 37/51/33 32/53/33 38/54/33 
f 30/55/34 37/51/34 38/54/34 
f 30/55/34 38/54/34 31/56/34 
f 39/57/35 40/58/35 12/59/35 
f 41/60/36 42/61/36 43/62/36 
f 44/63/37 45/64/37 46/65/37 
f 47/66/38 44/63/38 46/65/38 
f 47/66/39 33/52/39 37/51/39 
f 47/66/39 37/51/39 44/63/39 
f 30/55/40 45/64/40 44/63/40 
f 30/55/40 44/63/40 37/51/40 
f 29/43/41 46/67/41 45/68/41 
f 29/43/42 45/68/42 30/44/42 
f 33/47/43 47/69/43 46/67/43 
f 33/47/44 46/67/44 29/43/44 
f 48/70/45 49/71/45 50/72/45 
f 48/70/45 50/72/45 51/73/45 
f 51/73/46 50/72/46 52/74/46 
f 51/73/46 52/74/46 53/75/46 
f 53/76/47 52/77/47 54/78/47 
f 53/76/47 54/78/47 55/79/47 
f 49/80/48 48/81/48 55/79/48 
f 49/80/48 55/79/48 54/78/48 
f 49/80/49 54/78/49 56/82/49 
f 54/78/50 52/77/50 56/82/50 
f 52/74/51 50/72/51 56/83/51 
f 50/72/52 49/71/52 56/83/52 
f 53/76/53 55/79/53 57/84/53 
f 53/76/53 57/84/53 58/85/53 
f 55/79/54 48/81/54 59/86/54 
f 55/79/55 59/86/55 57/84/55 
f 48/70/56 51/73/56 59/87/56 
f 36/88/57 60/89/57 41/90/57 
f 51/73/58 53/75/58 58/91/58 
f 51/73/59 58/91/59 59/87/59 
f 61/92/60 62/93/60 63/94/60 
f 61/92/60 63/94/60 64/95/60 
f 65/96/61 61/92/61 64/95/61 
f 65/96/61 64/95/61 66/97/61 
f 67/98/62 65/99/62 66/100/62 
f 67/98/62 66/100/62 68/101/62 
f 62/102/63 67/98/63 68/101/63 
f 62/102/64 68/101/64 63/103/64 
f 69/104/65 70/105/65 71/106/65 
f 72/107/66 69/104/66 71/106/66 
f 73/108/67 72/109/67 71/110/67 
f 70/111/68 73/108/68 71/110/68 
f 70/111/69 65/99/69 67/98/69 
f 70/111/69 67/98/69 73/108/69 
f 62/102/70 72/109/70 73/108/70 
f 62/102/70 73/108/70 67/98/70 
f 61/92/71 69/104/71 72/107/71 
f 61/92/71 72/107/71 62/93/71 
f 65/96/72 70/105/72 69/104/72 
f 65/96/72 69/104/72 61/92/72 
f 74/112/73 75/113/73 76/114/73 
f 74/112/73 76/114/73 77/115/73 
f 78/116/74 74/112/74 77/115/74 
f 78/116/74 77/115/74 79/117/74 
f 80/118/75 78/119/75 79/120/75 
f 80/118/75 79/120/75 81/121/75 
f 75/122/76 80/118/76 81/121/76 
f 75/122/76 81/121/76 76/123/76 
f 82/124/77 83/125/77 84/126/77 
f 85/127/78 82/124/78 84/126/78 
f 86/128/79 85/129/79 84/130/79 
f 83/131/80 86/128/80 84/130/80 
f 83/131/81 78/119/81 80/118/81 
f 83/131/81 80/118/81 86/128/81 
f 75/122/82 85/129/82 86/128/82 
f 75/122/82 86/128/82 80/118/82 
f 74/112/83 82/124/83 85/127/83 
f 74/112/84 85/127/84 75/113/84 
f 78/116/85 83/125/85 82/124/85 
f 78/116/85 82/124/85 74/112/85 
f 87/132/86 88/133/86 89/134/86 
f 87/132/86 89/134/86 90/135/86 
f 90/135/87 89/134/87 91/136/87 
f 90/135/87 91/136/87 92/137/87 
f 92/138/88 91/139/88 93/140/88 
f 92/138/88 93/140/88 94/141/88 
f 88/142/89 87/143/89 94/141/89 
f 88/142/90 94/141/90 93/140/90 
f 88/142/91 93/140/91 95/144/91 
f 93/140/92 91/139/92 95/144/92 
f 91/136/93 89/134/93 95/145/93 
f 89/134/94 88/133/94 95/145/94 
f 92/138/95 94/141/95 96/146/95 
f 92/138/95 96/146/95 97/147/95 
f 94/141/96 87/143/96 98/148/96 
f 94/141/96 98/148/96 96/146/96 
f 87/132/97 90/135/97 99/149/97 
f 87/132/98 99/149/98 98/150/98 
f 90/135/99 92/137/99 97/151/99 
f 90/135/99 97/151/99 99/149/99 
f 100/152/100 101/153/100 102/154/100 
f 100/152/100 102/154/100 103/155/100 
f 103/155/101 102/154/101 104/156/101 
f 103/155/101 104/156/101 105/157/101 
f 105/158/102 104/159/102 106/160/102 
f 105/158/102 106/160/102 107/161/102 
f 101/162/103 100/163/103 107/161/103 
f 101/162/103 107/161/103 106/160/103 
f 101/162/104 106/160/104 108/164/104 
f 106/160/105 104/159/105 108/164/105 
f 104/156/106 102/154/106 108/165/106 
f 102/154/107 101/153/107 108/165/107 
f 105/158/108 107/161/108 109/166/108 
f 105/158/108 109/166/108 110/167/108 
f 107/161/109 100/163/109 111/168/109 
f 107/161/109 111/168/109 109/166/109 
f 100/152/110 103/155/110 112/169/110 
f 100/152/110 112/169/110 111/170/110 
f 103/155/111 105/157/111 110/171/111 
f 103/155/111 110/171/111 112/169/111 
f 113/172/112 114/173/112 115/174/112 
f 113/172/113 115/174/113 116/175/113 
f 117/176/114 113/172/114 116/175/114 
f 36/88/115 41/90/115 118/177/115 
f 119/178/116 117/179/116 116/180/116 
f 119/178/117 116/180/117 120/181/117 
f 114/182/118 119/178/118 120/181/118 
f 114/182/118 120/181/118 115/183/118 
f 121/184/119 122/185/119 123/186/119 
f 124/187/120 121/184/120 123/186/120 
f 125/188/121 124/189/121 123/190/121 
f 122/191/122 125/188/122 123/190/122 
f 122/191/123 117/179/123 119/178/123 
f 122/191/123 119/178/123 125/188/123 
f 114/182/124 124/189/124 125/188/124 
f 114/182/124 125/188/124 119/178/124 
f 113/172/125 121/184/125 124/187/125 
f 113/172/125 124/187/125 114/173/125 
f 117/176/126 122/185/126 121/184/126 
f 117/176/126 121/184/126 113/172/126 
f 126/192/126 127/193/126 128/194/126 
f 126/192/126 128/194/126 129/195/126 
f 129/195/125 128/194/125 130/196/125 
f 129/195/125 130/196/125 131/197/125 
f 131/198/124 130/199/124 132/200/124 
f 131/198/124 132/200/124 133/201/124 
f 127/202/123 126/192/123 133/201/123 
f 127/202/123 133/201/123 132/200/123 
f 127/202/122 132/200/122 134/203/122 
f 132/200/121 130/199/121 134/203/121 
f 130/196/120 128/194/120 134/204/120 
f 128/194/119 127/193/119 134/204/119 
f 131/198/118 133/201/118 135/205/118 
f 131/198/118 135/205/118 136/206/118 
f 133/201/116 126/192/116 137/207/116 
f 133/201/127 137/207/127 135/205/127 
f 126/192/114 129/195/114 137/207/114 
f 118/177/128 138/208/128 34/48/128 
f 129/195/112 131/197/112 136/209/112 
f 129/195/113 136/209/113 137/207/113 
f 139/210/111 140/211/111 141/212/111 
f 139/210/111 141/212/111 142/213/111 
f 143/214/110 139/210/110 142/213/110 
f 143/214/110 142/213/110 144/215/110 
f 145/216/109 143/217/109 144/218/109 
f 145/216/109 144/218/109 146/219/109 
f 140/220/108 145/216/108 146/219/108 
f 140/220/108 146/219/108 141/221/108 
f 147/222/107 148/223/107 149/224/107 
f 150/225/106 147/222/106 149/224/106 
f 151/226/105 150/227/105 149/228/105 
f 148/229/129 151/226/129 149/228/129 
f 148/229/103 143/217/103 145/216/103 
f 148/229/103 145/216/103 151/226/103 
f 140/220/102 150/227/102 151/226/102 
f 140/220/102 151/226/102 145/216/102 
f 139/210/101 147/222/101 150/225/101 
f 139/210/101 150/225/101 140/211/101 
f 143/214/100 148/223/100 147/222/100 
f 143/214/100 147/222/100 139/210/100 
f 152/230/99 153/231/99 154/232/99 
f 152/230/99 154/232/99 155/233/99 
f 156/234/97 152/230/97 155/233/97 
f 156/234/97 155/233/97 157/235/97 
f 158/236/96 156/237/96 157/238/96 
f 158/236/96 157/238/96 159/239/96 
f 153/240/95 158/236/95 159/239/95 
f 153/240/95 159/239/95 154/241/95 
f 160/242/94 161/243/94 162/244/94 
f 163/245/93 160/242/93 162/244/93 
f 164/246/92 163/247/92 162/248/92 
f 161/249/91 164/246/91 162/248/91 
f 161/249/90 156/237/90 158/236/90 
f 161/249/89 158/236/89 164/246/89 
f 153/240/88 163/247/88 164/246/88 
f 153/240/88 164/246/88 158/236/88 
f 152/230/130 160/242/130 163/245/130 
f 152/230/87 163/245/87 153/231/87 
f 156/234/86 161/243/86 160/242/86 
f 156/234/86 160/242/86 152/230/86 
f 165/250/85 166/251/85 167/252/85 
f 165/250/85 167/252/85 168/253/85 
f 168/253/84 167/252/84 169/254/84 
f 168/253/83 169/254/83 170/255/83 
f 170/256/82 169/257/82 171/258/82 
f 170/256/82 171/258/82 172/259/82 
f 166/260/81 165/261/81 172/259/81 
f 166/260/81 172/259/81 171/258/81 
f 166/260/80 171/258/80 173/262/80 
f 171/258/79 169/257/79 173/262/79 
f 169/254/78 167/252/78 173/263/78 
f 167/252/77 166/251/77 173/263/77 
f 170/256/76 172/259/76 174/264/76 
f 170/256/76 174/264/76 175/265/76 
f 172/259/75 165/261/75 176/266/75 
f 172/259/75 176/266/75 174/264/75 
f 165/250/74 168/253/74 177/267/74 
f 165/250/74 177/267/74 176/268/74 
f 168/253/73 170/255/73 175/269/73 
f 168/253/73 175/269/73 177/267/73 
f 178/270/72 179/271/72 180/272/72 
f 178/270/72 180/272/72 181/273/72 
f 181/273/71 180/272/71 182/274/71 
f 181/273/71 182/274/71 183/275/71 
f 183/276/70 182/277/70 184/278/70 
f 183/276/70 184/278/70 185/279/70 
f 179/280/69 178/281/69 185/279/69 
f 179/280/69 185/279/69 184/278/69 
f 179/280/68 184/278/68 186/282/68 
f 184/278/67 182/277/67 186/282/67 
f 182/274/66 180/272/66 186/283/66 
f 180/272/65 179/271/65 186/283/65 
f 183/276/63 185/279/63 187/284/63 
f 183/276/63 187/284/63 188/285/63 
f 185/279/62 178/281/62 189/286/62 
f 185/279/62 189/286/62 187/284/62 
f 178/270/61 181/273/61 190/287/61 
f 178/270/61 190/287/61 189/288/61 
f 181/273/60 183/275/60 188/289/60 
f 181/273/60 188/289/60 190/287/60 
f 191/290/58 192/291/58 193/292/58 
f 191/290/59 193/292/59 194/293/59 
f 195/294/56 191/290/56 194/293/56 
f 36/50/131 35/49/131 60/295/131 
f 196/296/54 195/297/54 194/298/54 
f 196/296/132 194/298/132 197/299/132 
f 192/300/53 196/296/53 197/299/53 
f 192/300/53 197/299/53 193/301/53 
f 198/302/52 199/303/52 200/304/52 
f 201/305/51 198/302/51 200/304/51 
f 202/306/50 201/307/50 200/308/50 
f 199/309/49 202/306/49 200/308/49 
f 199/309/48 195/297/48 196/296/48 
f 199/309/48 196/296/48 202/306/48 
f 192/300/47 201/307/47 202/306/47 
f 192/300/47 202/306/47 196/296/47 
f 191/290/46 198/302/46 201/305/46 
f 191/290/46 201/305/46 192/291/46 
f 195/294/45 199/303/45 198/302/45 
f 195/294/45 198/302/45 191/290/45 
f 203/310/43 204/311/43 205/312/43 
f 203/310/44 205/312/44 206/313/44 
f 206/313/41 205/312/41 207/314/41 
f 206/313/42 207/314/42 208/315/42 
f 208/316/40 207/317/40 209/318/40 
f 208/316/40 209/318/40 210/319/40 
f 204/320/39 203/321/39 210/319/39 
f 204/320/39 210/319/39 209/318/39 
f 204/322/38 209/318/38 205/323/38 
f 209/318/37 207/317/37 205/323/37 
f 40/324/133 211/325/133 13/326/133 
f 40/324/134 13/326/134 12/327/134 
f 208/316/34 210/319/34 212/328/34 
f 208/316/34 212/328/34 213/329/34 
f 210/319/32 203/321/32 214/330/32 
f 210/319/33 214/330/33 212/328/33 
f 203/310/30 206/313/30 214/331/30 
f 215/332/135 216/333/135 217/334/135 
f 206/313/28 208/315/28 213/335/28 
f 206/313/29 213/335/29 214/331/29 
f 218/336/136 219/337/136 220/338/136 
f 218/336/136 220/338/136 221/339/136 
f 222/340/26 218/336/26 221/339/26 
f 222/340/26 221/339/26 223/341/26 
f 224/342/25 222/343/25 223/344/25 
f 224/342/25 223/344/25 225/345/25 
f 219/346/24 224/342/24 225/345/24 
f 219/346/24 225/345/24 220/347/24 
f 226/348/23 227/349/23 228/350/23 
f 229/351/22 226/348/22 228/350/22 
f 230/352/21 229/353/21 228/354/21 
f 227/355/20 230/352/20 228/354/20 
f 227/355/19 222/343/19 224/342/19 
f 227/355/19 224/342/19 230/352/19 
f 219/346/18 229/353/18 230/352/18 
f 219/346/18 230/352/18 224/342/18 
f 218/336/17 226/348/17 229/351/17 
f 218/336/17 229/351/17 219/337/17 
f 222/340/16 227/349/16 226/348/16 
f 222/340/16 226/348/16 218/336/16 
f 231/356/15 232/357/15 233/358/15 
f 231/356/15 233/358/15 234/359/15 
f 235/360/13 231/356/13 234/359/13 
f 235/360/14 234/359/14 236/361/14 
f 237/362/11 235/363/11 236/364/11 
f 238/365/137 239/366/137 240/367/137 
f 232/368/9 237/362/9 236/364/9 
f 232/368/10 236/364/10 233/369/10 
f 241/370/8 242/371/8 243/372/8 
f 244/373/7 241/370/7 243/372/7 
f 245/374/6 244/375/6 243/376/6 
f 242/377/5 245/374/5 243/376/5 
f 242/377/4 235/363/4 237/362/4 
f 242/377/4 237/362/4 245/374/4 
f 232/368/3 244/375/3 245/374/3 
f 232/368/3 245/374/3 237/362/3 
f 231/356/2 241/370/2 244/373/2 
f 231/356/2 244/373/2 232/357/2 
f 235/360/1 242/371/1 241/370/1 
f 235/360/1 241/370/1 231/356/1 
f 246/378/138 247/379/138 248/380/138 
f 246/378/139 248/380/139 249/381/139 
f 250/382/140 215/332/140 217/334/140 
f 138/383/141 238/365/141 251/384/141 
f 249/381/142 248/380/142 252/385/142 
f 249/381/143 252/385/143 253/386/143 
f 254/387/144 250/382/144 255/388/144 
f 35/389/145 251/384/145 256/390/145 
f 253/391/146 252/392/146 247/379/146 
f 253/391/147 247/379/147 246/378/147 
f 60/393/148 257/394/148 42/395/148 
f 35/389/149 138/383/149 251/384/149 
f 255/19/150 217/396/150 258/397/150 
f 247/398/151 259/399/151 260/400/151 
f 247/398/152 252/401/152 261/402/152 
f 247/398/153 261/402/153 259/399/153 
f 41/60/154 60/403/154 42/61/154 
f 252/404/155 262/405/155 261/406/155 
f 252/404/156 248/407/156 263/408/156 
f 252/404/157 263/408/157 262/405/157 
f 250/382/158 217/334/158 255/388/158 
f 248/407/159 264/409/159 263/408/159 
f 248/407/160 247/398/160 260/400/160 
f 248/407/161 260/400/161 264/409/161 
f 264/409/162 260/400/162 265/410/162 
f 264/409/162 265/410/162 266/411/162 
f 263/408/163 264/409/163 266/411/163 
f 263/408/163 266/411/163 267/412/163 
f 262/405/164 263/408/164 267/412/164 
f 262/405/165 267/412/165 268/413/165 
f 261/406/166 262/405/166 268/413/166 
f 261/406/167 268/413/167 269/414/167 
f 259/399/168 261/402/168 269/415/168 
f 259/399/168 269/415/168 270/416/168 
f 260/400/169 259/399/169 270/416/169 
f 260/400/169 270/416/169 265/410/169 
f 265/410/170 270/416/170 271/417/170 
f 239/366/171 254/418/171 255/419/171 
f 270/416/172 269/415/172 272/420/172 
f 270/416/173 272/420/173 271/417/173 
f 269/414/35 268/413/35 272/421/35 
f 216/333/174 240/367/174 273/422/174 
f 268/413/133 267/412/133 274/423/133 
f 268/413/134 274/423/134 272/421/134 
f 267/412/175 266/411/175 274/423/175 
f 240/367/176 239/366/176 273/422/176 
f 266/411/177 265/410/177 271/417/177 
f 266/411/178 271/417/178 274/423/178 
f 274/424/179 271/425/179 275/17/179 
f 138/383/180 41/60/180 238/365/180 
f 272/426/12 274/424/12 275/17/12 
f 216/333/181 273/422/181 217/334/181 
f 271/425/182 272/427/182 275/17/182 
f 239/366/183 255/419/183 273/422/183 
f 276/428/182 12/429/182 14/19/182 
f 277/430/182 278/431/182 279/426/182 
f 41/60/184 43/62/184 238/365/184 
f 278/432/12 280/433/12 279/426/12 
f 42/395/185 250/382/185 254/387/185 
f 280/433/179 277/430/179 279/426/179 
f 281/434/177 282/435/177 277/436/177 
f 281/434/178 277/436/178 280/437/178 
f 283/438/175 281/434/175 280/437/175 
f 217/396/186 273/439/186 258/397/186 
f 284/440/133 283/438/133 280/437/133 
f 284/440/134 280/437/134 278/441/134 
f 285/442/35 284/440/35 278/441/35 
f 273/439/187 255/443/187 258/397/187 
f 286/444/172 285/445/172 278/446/172 
f 286/444/173 278/446/173 277/436/173 
f 282/435/170 286/444/170 277/436/170 
f 257/394/188 256/390/188 215/332/188 
f 287/447/169 288/448/169 286/444/169 
f 287/447/169 286/444/169 282/435/169 
f 288/448/189 289/449/189 285/445/189 
f 288/448/189 285/445/189 286/444/189 
f 289/450/166 290/451/166 284/440/166 
f 289/450/166 284/440/166 285/442/166 
f 290/451/165 291/452/165 283/438/165 
f 290/451/165 283/438/165 284/440/165 
f 291/452/163 292/453/163 281/434/163 
f 291/452/163 281/434/163 283/438/163 
f 292/453/162 287/447/162 282/435/162 
f 292/453/162 282/435/162 281/434/162 
f 293/454/160 294/455/160 287/447/160 
f 293/454/161 287/447/161 292/453/161 
f 295/456/190 296/457/190 276/458/190 
f 293/454/159 292/453/159 291/452/159 
f 297/459/156 293/454/156 291/452/156 
f 297/459/157 291/452/157 290/451/157 
f 13/18/179 276/428/179 14/19/179 
f 297/459/155 290/451/155 289/450/155 
f 294/455/152 297/460/152 289/449/152 
f 294/455/153 289/449/153 288/448/153 
f 211/325/175 295/456/175 13/326/175 
f 294/455/151 288/448/151 287/447/151 
f 35/389/191 256/390/191 257/394/191 
f 43/62/192 42/61/192 254/418/192 
f 298/461/146 297/462/146 294/463/146 
f 298/461/147 294/463/147 299/464/147 
f 60/393/193 35/389/193 257/394/193 
f 42/395/185 257/394/185 250/382/185 
f 300/465/142 293/466/142 297/467/142 
f 300/465/143 297/467/143 298/468/143 
f 295/456/194 276/458/194 13/326/194 
f 43/62/192 254/418/192 239/366/192 
f 299/464/138 294/463/138 293/466/138 
f 299/464/139 293/466/139 300/465/139 
f 256/390/195 251/384/195 216/333/195 
f 301/469/196 302/470/196 303/471/196 
f 303/471/197 302/470/197 304/472/197 
f 34/48/198 138/208/198 35/49/198 
f 303/471/199 304/472/199 305/473/199 
f 303/471/143 305/473/143 306/474/143 
f 251/384/200 238/365/200 240/367/200 
f 238/365/137 43/62/137 239/366/137 
f 306/475/201 305/476/201 307/477/201 
f 306/475/202 307/477/202 301/469/202 
f 301/469/203 307/477/203 302/470/203 
f 118/177/204 41/90/204 138/208/204 
f 302/478/205 307/479/205 308/480/205 
f 302/478/206 308/480/206 309/481/206 
f 307/479/207 305/482/207 310/483/207 
f 307/479/208 310/483/208 308/480/208 
f 251/384/200 240/367/200 216/333/200 
f 305/482/155 311/484/155 310/483/155 
f 305/485/209 304/486/209 312/487/209 
f 305/485/157 312/487/157 311/488/157 
f 304/486/210 302/478/210 313/489/210 
f 304/486/211 313/489/211 312/487/211 
f 256/390/195 216/333/195 215/332/195 
f 302/478/212 309/481/212 313/489/212 
f 313/489/162 309/481/162 296/457/162 
f 313/489/162 296/457/162 295/456/162 
f 312/487/163 313/489/163 295/456/163 
f 312/487/163 295/456/163 211/325/163 
f 311/488/164 312/487/164 211/325/164 
f 311/488/164 211/325/164 40/324/164 
f 310/483/167 311/484/167 40/58/167 
f 310/483/167 40/58/167 39/57/167 
f 308/480/168 310/483/168 39/57/168 
f 308/480/168 39/57/168 314/490/168 
f 309/481/169 308/480/169 314/490/169 
f 309/481/169 314/490/169 296/457/169 
f 296/457/170 314/490/170 276/458/170 
f 257/394/188 215/332/188 250/382/188 
f 314/490/172 39/57/172 12/59/172 
f 314/490/173 12/59/173 276/458/173 
usemtl planta_Material_002_NONE
f 234/358/213 233/364/213 236/359/213 
f 146/218/214 144/213/214 142/212/214 
f 142/212/215 141/219/215 146/218/215 
f 137/209/216 136/205/216 135/207/216 
f 59/91/217 58/84/217 57/86/217 
f 246/381/218 249/386/218 253/378/218 
f 81/120/219 79/115/219 77/114/219 
f 77/114/220 76/121/220 81/120/220 
f 225/344/221 223/339/221 221/338/221 
f 221/338/222 220/345/222 225/344/222 
f 15/22/213 11/15/213 10/20/213 
f 187/286/223 189/287/223 190/289/223 
f 190/289/224 188/284/224 187/286/224 
f 212/330/225 214/335/225 213/328/225 
f 25/39/221 27/40/221 28/42/221 
f 28/42/222 26/37/222 25/39/222 
f 193/299/217 197/298/217 194/292/217 
f 306/469/218 301/471/218 303/474/218 
f 31/54/225 38/53/225 32/45/225 
f 159/238/226 157/233/226 155/232/226 
f 155/232/227 154/239/227 159/238/227 
f 299/465/218 300/468/218 298/464/218 
f 99/151/228 97/146/228 96/148/228 
f 96/148/229 98/149/229 99/151/229 
f 177/269/230 175/264/230 174/266/230 
f 174/266/231 176/267/231 177/269/231 
f 112/171/215 110/166/215 109/168/215 
f 109/168/214 111/169/214 112/171/214 
f 36/177/232 118/48/232 34/50/232 
f 115/181/216 120/180/216 116/174/216 
# 538 faces

