# 3ds Max Wavefront OBJ Exporter v0.99 - (c)2007 guruware
# File Created: 13.03.2026 18:33:12

mtllib planta2.mtl

#
# object Mesh_Cube001
#

v  -0.7797 0.0760 3.7916
v  -0.7622 0.2472 3.8009
v  -0.7654 0.2461 3.8103
v  -0.7828 0.0748 3.8010
v  -0.7713 0.2471 3.8183
v  -0.7888 0.0759 3.8090
v  -0.7682 0.2483 3.8089
v  -0.7856 0.0770 3.7995
v  -0.7458 0.3925 3.8224
v  -0.7989 -0.0082 3.7944
v  -0.8009 -0.0085 3.7992
v  -0.7252 0.6201 3.8941
v  -0.7216 0.6201 3.8923
v  -0.7240 0.6636 3.8920
v  -0.7987 -0.0088 3.7963
v  -0.8267 0.0831 3.7768
v  -0.8392 0.2685 3.7534
v  -0.8304 0.2672 3.7468
v  -0.8179 0.0817 3.7702
v  -0.8200 0.2687 3.7433
v  -0.8075 0.0832 3.7667
v  -0.8288 0.2701 3.7499
v  -0.8163 0.0846 3.7732
v  -0.8427 0.4248 3.7202
v  -0.8046 -0.0068 3.7875
v  -0.8014 -0.0073 3.7851
v  -0.8085 -0.0073 3.7888
v  -0.8052 -0.0078 3.7864
v  -0.8145 0.0715 3.7994
v  -0.8213 0.0709 3.7932
v  -0.8163 -0.0139 3.7920
v  -0.8121 -0.0136 3.7950
v  -0.8061 0.0719 3.8031
v  -0.5935 -0.0149 3.8864
v  -0.5886 0.4698 3.8904
v  -0.5901 -0.0149 3.8891
v  -0.8129 0.0712 3.7969
v  -0.8132 -0.0138 3.7933
v  -0.7312 0.6081 3.8963
v  -0.7240 0.6081 3.9005
v  -0.5904 0.4697 3.8947
v  -0.5822 0.4860 3.8969
v  -0.5895 0.4860 3.9010
v  -0.8129 0.2359 3.7941
v  -0.8213 0.2355 3.7904
v  -0.8153 0.2757 3.7961
v  -0.8061 0.2365 3.8003
v  -0.8194 0.0621 3.7075
v  -0.8165 0.2552 3.7089
v  -0.8082 0.2548 3.7020
v  -0.8111 0.0616 3.7005
v  -0.7981 0.2540 3.6981
v  -0.8010 0.0609 3.6966
v  -0.8064 0.2545 3.7050
v  -0.8093 0.0613 3.7036
v  -0.8074 0.4247 3.6970
v  -0.8054 -0.0384 3.7051
v  -0.8024 -0.0385 3.7025
v  -0.8078 -0.0382 3.7054
v  -0.5874 0.4707 3.8938
v  -0.7787 0.0736 3.7122
v  -0.7804 0.0754 3.7250
v  -0.8029 -0.0307 3.7218
v  -0.8023 -0.0314 3.7171
v  -0.7810 0.0753 3.6996
v  -0.8031 -0.0308 3.7125
v  -0.7827 0.0770 3.7123
v  -0.8037 -0.0301 3.7172
v  -0.7476 0.2911 3.7113
v  -0.7499 0.2927 3.6986
v  -0.7133 0.4759 3.7123
v  -0.7493 0.2929 3.7241
v  -0.7516 0.2945 3.7114
v  -0.8293 0.0656 3.7330
v  -0.8346 0.0668 3.7226
v  -0.8180 -0.0321 3.7149
v  -0.8161 -0.0325 3.7188
v  -0.8211 0.0669 3.7412
v  -0.8130 -0.0320 3.7218
v  -0.8263 0.0681 3.7308
v  -0.8150 -0.0316 3.7180
v  -0.8482 0.2664 3.7465
v  -0.8400 0.2677 3.7547
v  -0.8711 0.4381 3.7607
v  -0.8535 0.2676 3.7361
v  -0.8452 0.2689 3.7443
v  -0.6966 0.0669 3.7758
v  -0.7174 0.2677 3.7656
v  -0.7141 0.2664 3.7544
v  -0.6933 0.0656 3.7646
v  -0.7074 0.2676 3.7448
v  -0.6866 0.0668 3.7551
v  -0.7108 0.2689 3.7560
v  -0.6899 0.0681 3.7662
v  -0.7375 0.4381 3.7410
v  -0.6732 -0.0316 3.7702
v  -0.6720 -0.0321 3.7660
v  -0.6757 -0.0320 3.7737
v  -0.6745 -0.0325 3.7696
v  -0.6409 0.0753 3.7913
v  -0.6254 0.2927 3.8182
v  -0.6354 0.2911 3.8263
v  -0.6510 0.0736 3.7994
v  -0.6475 0.2929 3.8308
v  -0.6630 0.0754 3.8039
v  -0.6374 0.2945 3.8228
v  -0.6530 0.0770 3.7959
v  -0.6200 0.4759 3.8570
v  -0.6672 -0.0301 3.7796
v  -0.6709 -0.0307 3.7826
v  -0.6628 -0.0308 3.7780
v  -0.6665 -0.0314 3.7809
v  -0.6561 0.0616 3.7653
v  -0.6478 0.0609 3.7723
v  -0.6536 -0.0385 3.7739
v  -0.6588 -0.0382 3.7705
v  -0.6661 0.0621 3.7613
v  -0.5942 -0.0149 3.8907
v  -0.6579 0.0613 3.7683
v  -0.6573 -0.0384 3.7724
v  -0.6559 0.2548 3.7685
v  -0.6660 0.2552 3.7645
v  -0.6512 0.4247 3.7668
v  -0.6477 0.2540 3.7755
v  -0.6578 0.2545 3.7716
v  -0.5888 0.0596 3.8718
v  -0.5887 0.2527 3.8751
v  -0.5787 0.2523 3.8791
v  -0.5788 0.0591 3.8758
v  -0.5705 0.2515 3.8861
v  -0.5706 0.0584 3.8829
v  -0.5805 0.2520 3.8821
v  -0.5806 0.0588 3.8789
v  -0.5739 0.4222 3.8774
v  -0.5801 -0.0409 3.8830
v  -0.5764 -0.0410 3.8845
v  -0.5815 -0.0407 3.8811
v  -0.5916 0.4708 3.8913
v  -0.5737 0.0711 3.9100
v  -0.5857 0.0729 3.9145
v  -0.5936 -0.0332 3.8932
v  -0.5892 -0.0339 3.8915
v  -0.5636 0.0728 3.9019
v  -0.5855 -0.0333 3.8885
v  -0.5757 0.0745 3.9065
v  -0.5899 -0.0326 3.8902
v  -0.5582 0.2886 3.9368
v  -0.5481 0.2902 3.9288
v  -0.5427 0.4734 3.9676
v  -0.5702 0.2904 3.9414
v  -0.5601 0.2920 3.9334
v  -0.6160 0.0631 3.8752
v  -0.6093 0.0643 3.8657
v  -0.5947 -0.0346 3.8766
v  -0.5972 -0.0350 3.8801
v  -0.6193 0.0644 3.8864
v  -0.5984 -0.0346 3.8843
v  -0.6127 0.0656 3.8768
v  -0.5960 -0.0341 3.8807
v  -0.6368 0.2639 3.8650
v  -0.6402 0.2652 3.8762
v  -0.6602 0.4356 3.8516
v  -0.6302 0.2651 3.8554
v  -0.6335 0.2664 3.8666
v  -0.7438 0.0644 3.8518
v  -0.7627 0.2652 3.8653
v  -0.7709 0.2639 3.8571
v  -0.7521 0.0631 3.8436
v  -0.7762 0.2651 3.8466
v  -0.7573 0.0643 3.8332
v  -0.7679 0.2664 3.8549
v  -0.7491 0.0656 3.8414
v  -0.7938 0.4356 3.8713
v  -0.7377 -0.0341 3.8286
v  -0.7407 -0.0346 3.8255
v  -0.7358 -0.0346 3.8324
v  -0.7388 -0.0350 3.8294
v  -0.7037 0.0728 3.8102
v  -0.6727 0.2902 3.8092
v  -0.6704 0.2886 3.8219
v  -0.7014 0.0711 3.8228
v  -0.6721 0.2904 3.8347
v  -0.7031 0.0729 3.8356
v  -0.6744 0.2920 3.8220
v  -0.7054 0.0745 3.8229
v  -0.6360 0.4734 3.8229
v  -0.7265 -0.0326 3.8277
v  -0.7256 -0.0332 3.8324
v  -0.7259 -0.0333 3.8230
v  -0.7250 -0.0339 3.8277
v  -0.7339 0.0591 3.8111
v  -0.7238 0.0584 3.8072
v  -0.7251 -0.0410 3.8131
v  -0.7305 -0.0407 3.8160
v  -0.7421 0.0596 3.8181
v  -0.7321 0.0588 3.8142
v  -0.7281 -0.0409 3.8157
v  -0.7309 0.2523 3.8126
v  -0.7392 0.2527 3.8195
v  -0.7301 0.4222 3.8076
v  -0.7208 0.2515 3.8087
v  -0.7291 0.2520 3.8156
v  -0.7288 0.0694 3.9137
v  -0.7288 0.2340 3.9109
v  -0.7380 0.2732 3.9067
v  -0.7373 0.0690 3.9100
v  -0.7441 0.2330 3.9010
v  -0.7441 0.0684 3.9038
v  -0.7356 0.2334 3.9047
v  -0.7356 0.0687 3.9075
v  -0.7167 0.6081 3.8963
v  -0.7360 -0.0163 3.9039
v  -0.7391 -0.0164 3.9026
v  -0.7348 -0.0161 3.9056
v  -0.5887 0.5750 3.8850
v  -0.5960 0.5750 3.8891
v  -0.5898 0.5869 3.8913
v  -0.7406 0.0792 3.8808
v  -0.7302 0.0807 3.8772
v  -0.7241 -0.0098 3.8957
v  -0.7279 -0.0104 3.8970
v  -0.7494 0.0806 3.8873
v  -0.7312 -0.0098 3.8994
v  -0.7390 0.0821 3.8838
v  -0.7274 -0.0093 3.8981
v  -0.7531 0.2647 3.8574
v  -0.7619 0.2660 3.8640
v  -0.7654 0.4223 3.8308
v  -0.7427 0.2662 3.8539
v  -0.7515 0.2676 3.8605
v  -0.7056 0.0723 3.9116
v  -0.7115 0.0734 3.9196
v  -0.7236 -0.0110 3.9098
v  -0.7215 -0.0113 3.9069
v  -0.7024 0.0735 3.9022
v  -0.7217 -0.0107 3.9050
v  -0.7084 0.0745 3.9101
v  -0.5967 0.4861 3.8967
v  -0.5889 0.5748 3.9017
v  -0.5961 0.5749 3.8974
v  -0.6881 0.2436 3.9209
v  -0.6849 0.2447 3.9115
v  -0.6686 0.3900 3.9330
v  -0.6941 0.2446 3.9289
v  -0.6909 0.2458 3.9194
v  -0.8122 -0.0180 3.7134
v  -0.8127 0.5064 3.7139
v  -0.8087 0.5064 3.7156
v  -0.8085 -0.0180 3.7163
v  -0.5815 0.5749 3.8892
v  -0.5966 0.4862 3.8884
v  -0.8121 0.5064 3.7183
v  -0.8128 -0.0180 3.7181
v  -0.5816 0.5748 3.8976
v  -0.5864 0.5869 3.8935
v  -0.5893 0.4862 3.8843
v  -0.5821 0.4861 3.8885
v  -0.5885 0.6304 3.8936
v  -0.8190 0.5241 3.7114
v  -0.8112 0.5241 3.7069
v  -0.8190 0.5241 3.7205
v  -0.8112 0.5241 3.7250
v  -0.8034 0.5241 3.7205
v  -0.8034 0.5241 3.7114
v  -0.8112 0.6202 3.7069
v  -0.8034 0.6202 3.7114
v  -0.8034 0.6202 3.7205
v  -0.8112 0.6202 3.7250
v  -0.8190 0.6202 3.7205
v  -0.8190 0.6202 3.7114
v  -0.8123 0.6332 3.7137
v  -0.8125 0.6332 3.7180
v  -0.5900 0.5869 3.8953
v  -0.8087 0.6332 3.7161
v  -0.8112 0.6802 3.7158
v  -0.7250 0.6201 3.8901
v  -0.6738 0.6574 3.7751
v  -0.6740 0.6575 3.7800
v  -0.6725 0.7111 3.7774
v  -0.6696 0.6574 3.7778
v  -0.6636 0.6427 3.7725
v  -0.6725 0.6427 3.7673
v  -0.6636 0.6427 3.7828
v  -0.6725 0.6427 3.7879
v  -0.6814 0.6427 3.7828
v  -0.6814 0.6427 3.7725
v  -0.6725 0.5331 3.7673
v  -0.6814 0.5331 3.7725
v  -0.6814 0.5331 3.7828
v  -0.6725 0.5331 3.7879
v  -0.6636 0.5331 3.7828
v  -0.6636 0.5331 3.7725
v  -0.6696 0.5129 3.7772
v  -0.6742 0.5129 3.7753
v  -0.7167 0.6081 3.8880
v  -0.7240 0.6081 3.8838
v  -0.6736 0.5129 3.7803
v  -0.6744 -0.0852 3.7801
v  -0.6737 -0.0852 3.7747
v  -0.6694 -0.0852 3.7780
v  -0.7249 0.0183 3.8899
v  -0.7231 0.5030 3.8900
v  -0.7215 0.0183 3.8925
v  -0.7218 0.5040 3.8934
v  -0.7248 0.5030 3.8943
v  -0.7255 0.0183 3.8942
v  -0.7261 0.5040 3.8910
v  -0.7312 0.5193 3.8880
v  -0.7240 0.5193 3.8838
v  -0.7312 0.5193 3.8963
v  -0.7240 0.5193 3.9005
v  -0.7167 0.5193 3.8963
v  -0.7167 0.5193 3.8880
v  -0.7312 0.6081 3.8880
# 314 vertices

vn 0.9460 -0.1130 0.3037
vn 0.7886 -0.1133 0.6044
vn -0.9460 0.1130 -0.3037
vn -0.7886 0.1133 -0.6044
vn -0.7769 0.1772 -0.6042
vn -0.9399 0.1733 -0.2942
vn 0.7816 -0.1543 0.6045
vn 0.9426 -0.1505 0.2981
vn -0.9409 0.1650 -0.2958
vn -0.9145 0.1739 -0.3654
vn -0.7807 0.1585 -0.6044
vn 0.4572 0.0295 0.8889
vn 0.9369 -0.1944 0.2906
vn 0.9541 -0.2253 -0.1974
vn 0.7759 -0.1816 0.6041
vn 0.7760 -0.1816 0.6041
vn -0.6062 -0.1394 -0.7830
vn -0.3011 -0.1390 -0.9434
vn 0.6062 0.1394 0.7830
vn 0.3011 0.1390 0.9434
vn 0.2886 0.2050 0.9352
vn 0.6061 0.2017 0.7694
vn -0.2934 -0.1813 -0.9386
vn -0.6063 -0.1781 -0.7750
vn 0.6060 0.1978 0.7705
vn 0.2929 0.1839 0.9383
vn -0.6055 -0.2238 -0.7638
vn -0.2876 -0.2096 -0.9345
vn -0.6724 -0.0501 0.7385
vn -0.5741 -0.0590 0.8167
vn -0.3969 -0.0590 0.9160
vn 0.6182 0.0001 -0.7860
vn 0.6743 0.0227 -0.7381
vn 0.8192 0.0204 -0.5732
vn 0.3983 0.0365 -0.9165
vn 0.3984 0.0365 -0.9165
vn -0.4625 0.3799 0.8011
vn 0.4600 -0.3446 0.8183
vn 0.3962 0.0695 -0.9155
vn 0.6699 0.0774 -0.7384
vn 0.6763 -0.0124 -0.7365
vn 0.4004 -0.0155 -0.9162
vn -0.7147 0.0088 0.6993
vn -0.6763 0.0124 0.7365
vn -0.3636 0.0157 0.9314
vn -0.4003 0.0135 0.9163
vn -0.6423 0.0155 -0.7663
vn -0.3586 0.0124 -0.9334
vn 0.6423 -0.0155 0.7663
vn 0.3586 -0.0124 0.9334
vn 0.3619 0.0462 0.9311
vn 0.6437 0.0399 0.7643
vn -0.3610 -0.0256 -0.9322
vn -0.6433 -0.0194 -0.7654
vn 0.6435 0.0365 0.7646
vn 0.3609 0.0227 0.9323
vn 0.1487 0.0204 0.9887
vn -0.6437 -0.0590 -0.7630
vn 0.2899 -0.0108 0.9570
vn -0.3621 -0.0501 -0.9308
vn -0.4759 -0.0590 -0.8775
vn 0.9649 -0.2096 0.1583
vn 0.9534 -0.2238 -0.2023
vn -0.9706 0.1839 -0.1553
vn -0.9706 0.1839 -0.1552
vn -0.9597 0.1978 0.1998
vn 0.9639 -0.1781 -0.1981
vn 0.9711 -0.1813 0.1550
vn -0.9587 0.2017 0.2004
vn -0.9660 0.2050 -0.1578
vn -0.9788 0.1390 -0.1502
vn -0.9710 0.1394 0.1944
vn 0.9788 -0.1390 0.1502
vn 0.9710 -0.1394 -0.1944
vn -0.8863 -0.1816 0.4260
vn -0.6772 -0.1944 0.7096
vn 0.8889 0.1568 -0.4305
vn 0.6827 0.1694 -0.7108
vn -0.6864 -0.1505 0.7115
vn -0.8891 -0.1543 0.4309
vn 0.6818 0.1733 -0.7107
vn 0.8868 0.1772 -0.4268
vn 0.8922 0.1133 -0.4372
vn 0.6930 0.1130 -0.7120
vn 0.6930 0.1130 -0.7121
vn -0.8922 -0.1133 0.4372
vn -0.6930 -0.1130 0.7121
vn -0.6930 -0.1130 0.7120
vn -0.9556 -0.1130 -0.2722
vn -0.8082 -0.1133 -0.5780
vn 0.9556 0.1130 0.2722
vn 0.8082 0.1133 0.5780
vn 0.7965 0.1772 0.5781
vn 0.9491 0.1733 0.2629
vn -0.8011 -0.1543 -0.5782
vn -0.9520 -0.1505 -0.2667
vn 0.9496 0.1694 0.2638
vn 0.8007 0.1568 0.5782
vn -0.9460 -0.1944 -0.2594
vn -0.7955 -0.1816 -0.5781
vn 0.6318 -0.1394 0.7625
vn 0.3322 -0.1390 0.9329
vn -0.6318 0.1394 -0.7625
vn -0.3322 0.1390 -0.9329
vn -0.3194 0.2050 -0.9252
vn -0.6313 0.2017 -0.7489
vn 0.3243 -0.1813 0.9284
vn 0.6317 -0.1781 0.7545
vn -0.6312 0.1978 -0.7500
vn -0.3238 0.1839 -0.9281
vn 0.6304 -0.2238 0.7433
vn 0.3185 -0.2096 0.9245
vn 0.6476 -0.0501 -0.7603
vn 0.5467 -0.0590 -0.8353
vn 0.3663 -0.0590 -0.9286
vn 0.3715 -0.0104 0.9284
vn -0.6495 0.0227 0.7600
vn -0.7997 0.0204 0.6000
vn -0.3678 0.0365 0.9292
vn -0.3677 0.0365 0.9292
vn 0.3685 -0.0194 -0.9294
vn 0.6493 -0.0256 -0.7601
vn -0.3674 0.0399 0.9292
vn -0.6479 0.0462 0.7603
vn -0.6515 -0.0124 0.7585
vn -0.3698 -0.0155 0.9290
vn 0.6515 0.0124 -0.7585
vn 0.3698 0.0155 -0.9290
vn -0.9898 0.0054 -0.1424
vn -0.8012 -0.1543 -0.5782
vn 0.9440 -0.0022 -0.3300
vn 0.1488 0.0204 0.9887
vn 0.4474 0.4466 0.7749
vn 0.4065 0.4631 0.7876
vn 0.8191 0.0204 -0.5732
vn -0.4511 0.3898 -0.8028
vn -0.2877 -0.2096 -0.9345
vn -0.7808 0.1585 -0.6044
vn -0.5090 -0.0034 0.8608
vn 0.7815 -0.1543 0.6045
vn 0.3812 0.0013 -0.9245
vn 0.6100 -0.0008 -0.7924
vn 0.4606 0.4499 -0.7651
vn -0.9508 -0.3095 -0.0139
vn 0.6100 0.0013 0.7924
vn 0.3812 -0.0008 0.9245
vn 0.9276 0.3732 0.0145
vn -0.4652 -0.3245 -0.8235
vn -0.9912 0.0013 0.1321
vn -0.9912 -0.0008 -0.1321
vn 0.9465 -0.3227 0.0058
vn -0.3660 -0.2838 -0.8863
vn 0.5503 0.0267 -0.8345
vn -0.4788 -0.2878 -0.8294
vn -0.9202 -0.3719 0.1226
vn -0.9424 -0.3346 0.0000
vn 0.3610 -0.3032 0.8819
vn -0.4788 -0.2878 0.8294
vn 0.5662 -0.3719 0.7356
vn 0.4712 -0.3346 0.8161
vn 0.4920 0.4661 -0.7353
vn 0.9577 -0.2878 -0.0000
vn 0.3539 -0.3719 -0.8582
vn 0.4712 -0.3346 -0.8161
vn 0.5000 0.0000 -0.8660
vn 1.0000 0.0000 -0.0000
vn 0.5000 0.0000 0.8660
vn 0.5000 -0.0000 0.8660
vn -0.5000 -0.0000 0.8660
vn -0.5000 0.0000 0.8660
vn -1.0000 0.0000 0.0000
vn -0.5000 0.0000 -0.8660
vn -0.4625 0.3798 -0.8011
vn 0.4429 0.4365 0.7832
vn -0.8949 0.4462 0.0000
vn -0.8848 0.4639 -0.0444
vn -0.8916 0.4528 -0.0035
vn 0.4065 0.4632 0.7876
vn 0.9251 0.3798 -0.0000
vn -0.4664 0.3764 0.8005
vn 0.4474 0.4465 -0.7749
vn 0.4789 0.4632 -0.7457
vn 0.5413 0.0238 -0.8405
vn -0.9064 -0.3713 0.2011
vn -0.8809 0.4708 -0.0477
vn -0.9985 0.0264 -0.0475
vn 0.4021 0.4532 0.7956
vn -0.4909 -0.2912 0.8211
vn 0.9999 -0.0065 0.0104
vn -0.9978 0.0333 -0.0575
vn 0.4481 0.0197 0.8937
vn -0.8848 0.4639 -0.0445
vn 0.5090 0.0034 -0.8608
vn -1.0000 -0.0000 0.0000
vn 0.4841 -0.2843 -0.8275
vn 0.4909 -0.0099 0.8711
vn 0.9003 -0.3806 -0.2112
vn -0.4909 0.0099 -0.8712
vn 0.6100 -0.0021 -0.7924
vn 0.9405 0.0014 -0.3398
vn -0.2890 0.0107 -0.9573
vn 0.2999 -0.0015 0.9540
vn -0.9999 0.0065 -0.0104
vn -0.9405 0.0011 0.3398
vn -0.9912 -0.0020 -0.1321
vn -0.2990 0.0015 -0.9543
vn -0.9440 0.0047 0.3300
vn -0.3727 -0.2935 -0.8803
vn -0.4712 -0.3346 -0.8161
vn -0.9012 -0.3760 0.2156
vn -0.9487 -0.3161 0.0000
vn 0.3727 -0.2935 0.8803
vn 0.9012 -0.3760 -0.2155
vn 0.9487 -0.3161 -0.0000
vn 0.4788 -0.2878 -0.8294
vn -0.4813 -0.8408 -0.2477
vn -0.3238 -0.7606 -0.5627
vn -0.3265 -0.7606 -0.5611
vn 0.0057 -0.9930 -0.1176
vn -0.1008 -0.9930 -0.0608
vn 0.0000 -1.0000 -0.0000
vn 0.4635 -0.8228 -0.3288
vn 0.4616 -0.8228 -0.3315
vn 0.3049 -0.7606 0.5731
vn 0.3077 -0.7606 0.5716
vn -0.6489 -0.7606 0.0180
vn -0.6489 -0.7606 0.0212
vn -0.0096 -0.9930 0.1173
vn 0.5094 -0.8228 0.2520
vn 0.5109 -0.8228 0.2490
vn 0.4616 -0.8228 -0.3316
vn 0.4636 -0.8228 -0.3288
vn -0.0107 -0.9999 -0.0129
# 233 vertex normals

vt 0.7644 0.1853 0.0000
vt 0.8758 0.1855 0.0000
vt 0.8744 0.1999 0.0000
vt 0.7629 0.1997 0.0000
vt 0.8748 0.2144 0.0000
vt 0.7635 0.2144 0.0000
vt 0.5072 0.9516 0.0000
vt 0.6187 0.9497 0.0000
vt 0.6192 0.9643 0.0000
vt 0.5078 0.9662 0.0000
vt 0.6185 0.9787 0.0000
vt 0.5069 0.9808 0.0000
vt 0.7290 0.9642 0.0000
vt 0.9853 0.2047 0.0000
vt 0.4090 0.9626 0.0000
vt 0.4092 0.9497 0.0000
vt 0.9008 0.3691 0.0000
vt 0.9011 0.3647 0.0000
vt 0.9351 0.3691 0.0000
vt 0.6652 0.1979 0.0000
vt 0.6679 0.1849 0.0000
vt 0.6654 0.2105 0.0000
vt 0.5149 0.9180 0.0000
vt 0.6362 0.9181 0.0000
vt 0.6346 0.9339 0.0000
vt 0.5132 0.9337 0.0000
vt 0.6354 0.9497 0.0000
vt 0.5141 0.9497 0.0000
vt 0.5247 0.0469 0.0000
vt 0.6464 0.0474 0.0000
vt 0.6467 0.0632 0.0000
vt 0.5249 0.0629 0.0000
vt 0.6453 0.0788 0.0000
vt 0.5237 0.0788 0.0000
vt 0.7656 0.0656 0.0000
vt 0.7557 0.9391 0.0000
vt 0.4199 0.0507 0.0000
vt 0.4206 0.0371 0.0000
vt 0.4187 0.0642 0.0000
vt 0.4090 0.9320 0.0000
vt 0.4110 0.9180 0.0000
vt 0.4094 0.9454 0.0000
vt 0.8660 0.0662 0.0000
vt 0.8651 0.0788 0.0000
vt 0.7656 0.0740 0.0000
vt 0.7664 0.0611 0.0000
vt 0.8672 0.0512 0.0000
vt 0.2391 0.7360 0.0000
vt 0.2554 0.1316 0.0000
vt 0.2549 0.7416 0.0000
vt 0.8465 0.9406 0.0000
vt 0.8483 0.9531 0.0000
vt 0.7573 0.9502 0.0000
vt 0.7557 0.9389 0.0000
vt 0.8457 0.9280 0.0000
vt 0.7557 0.9271 0.0000
vt 0.8696 0.7592 0.0000
vt 0.8614 0.7730 0.0000
vt 0.8487 0.7475 0.0000
vt 0.8404 0.4799 0.0000
vt 0.8582 0.4496 0.0000
vt 0.8648 0.4639 0.0000
vt 0.9420 0.9305 0.0000
vt 0.9409 0.9180 0.0000
vt 0.9835 0.9266 0.0000
vt 0.9435 0.9427 0.0000
vt 0.9933 0.0682 0.0000
vt 0.9547 0.0788 0.0000
vt 0.9520 0.0515 0.0000
vt 0.5268 0.8857 0.0000
vt 0.6513 0.8857 0.0000
vt 0.6503 0.9019 0.0000
vt 0.5258 0.9018 0.0000
vt 0.6494 0.9180 0.0000
vt 0.5248 0.9180 0.0000
vt 0.5263 0.8207 0.0000
vt 0.6504 0.8138 0.0000
vt 0.6509 0.8300 0.0000
vt 0.5266 0.8371 0.0000
vt 0.6522 0.8459 0.0000
vt 0.5282 0.8533 0.0000
vt 0.7739 0.8252 0.0000
vt 0.7733 0.9072 0.0000
vt 0.4090 0.8291 0.0000
vt 0.4097 0.8138 0.0000
vt 0.4103 0.8439 0.0000
vt 0.4099 0.8974 0.0000
vt 0.2083 0.7168 0.0000
vt 0.2083 0.1254 0.0000
vt 0.2236 0.1316 0.0000
vt 0.4090 0.9125 0.0000
vt 0.5319 0.7949 0.0000
vt 0.5330 0.8138 0.0000
vt 0.4095 0.8087 0.0000
vt 0.4090 0.7929 0.0000
vt 0.5340 0.7764 0.0000
vt 0.4114 0.7765 0.0000
vt 0.5135 0.5985 0.0000
vt 0.5120 0.6172 0.0000
vt 0.3883 0.6000 0.0000
vt 0.3898 0.5842 0.0000
vt 0.5133 0.5797 0.0000
vt 0.3905 0.5681 0.0000
vt 0.6751 0.7951 0.0000
vt 0.6770 0.7765 0.0000
vt 0.8179 0.8012 0.0000
vt 0.6761 0.8137 0.0000
vt 0.6570 0.5989 0.0000
vt 0.6566 0.5802 0.0000
vt 0.7971 0.6016 0.0000
vt 0.6554 0.6172 0.0000
vt 0.1142 0.8656 0.0000
vt 0.1149 0.8828 0.0000
vt 0.0002 0.8782 0.0000
vt 0.0000 0.8635 0.0000
vt 0.1160 0.8488 0.0000
vt 0.0022 0.8483 0.0000
vt 0.5140 0.2882 0.0000
vt 0.5130 0.3053 0.0000
vt 0.3980 0.2896 0.0000
vt 0.3991 0.2749 0.0000
vt 0.5139 0.2711 0.0000
vt 0.3999 0.2600 0.0000
vt 0.2445 0.8658 0.0000
vt 0.2462 0.8489 0.0000
vt 0.3742 0.8714 0.0000
vt 0.2451 0.8828 0.0000
vt 0.6445 0.2886 0.0000
vt 0.6443 0.2716 0.0000
vt 0.7723 0.2911 0.0000
vt 0.6433 0.3053 0.0000
vt 0.5351 0.0802 0.0000
vt 0.6657 0.0803 0.0000
vt 0.6641 0.0972 0.0000
vt 0.5333 0.0970 0.0000
vt 0.6646 0.1142 0.0000
vt 0.5340 0.1142 0.0000
vt 0.5146 0.3815 0.0000
vt 0.6457 0.3819 0.0000
vt 0.6458 0.3990 0.0000
vt 0.5146 0.3987 0.0000
vt 0.6447 0.4158 0.0000
vt 0.5136 0.4158 0.0000
vt 0.7743 0.4016 0.0000
vt 0.7942 0.1029 0.0000
vt 0.3991 0.3853 0.0000
vt 0.3999 0.3702 0.0000
vt 0.3980 0.4001 0.0000
vt 0.4187 0.0949 0.0000
vt 0.4209 0.0796 0.0000
vt 0.4189 0.1097 0.0000
vt 0.5429 0.0000 0.0000
vt 0.6850 0.0001 0.0000
vt 0.6831 0.0185 0.0000
vt 0.5409 0.0184 0.0000
vt 0.6840 0.0371 0.0000
vt 0.5419 0.0371 0.0000
vt 0.5126 0.5307 0.0000
vt 0.6551 0.5312 0.0000
vt 0.6555 0.5498 0.0000
vt 0.5128 0.5495 0.0000
vt 0.6539 0.5681 0.0000
vt 0.5113 0.5681 0.0000
vt 0.7948 0.5525 0.0000
vt 0.8250 0.0246 0.0000
vt 0.3898 0.5352 0.0000
vt 0.3905 0.5192 0.0000
vt 0.3883 0.5510 0.0000
vt 0.4187 0.0163 0.0000
vt 0.4211 0.0000 0.0000
vt 0.4192 0.0320 0.0000
vt 0.1267 0.8989 0.0000
vt 0.1257 0.9151 0.0000
vt 0.0099 0.9095 0.0000
vt 0.0109 0.8944 0.0000
vt 0.1277 0.8828 0.0000
vt 0.2235 0.7261 0.0000
vt 0.5492 0.6823 0.0000
vt 0.5508 0.6985 0.0000
vt 0.4330 0.6891 0.0000
vt 0.4316 0.6743 0.0000
vt 0.5489 0.6659 0.0000
vt 0.4323 0.6590 0.0000
vt 0.2513 0.8990 0.0000
vt 0.2523 0.8828 0.0000
vt 0.3742 0.9043 0.0000
vt 0.2503 0.9151 0.0000
vt 0.6736 0.6752 0.0000
vt 0.6731 0.6590 0.0000
vt 0.7965 0.6704 0.0000
vt 0.6749 0.6911 0.0000
vt 0.5004 0.1854 0.0000
vt 0.5843 0.1928 0.0000
vt 0.5827 0.2036 0.0000
vt 0.4988 0.1962 0.0000
vt 0.5811 0.2144 0.0000
vt 0.4972 0.2070 0.0000
vt 0.4971 0.1636 0.0000
vt 0.5797 0.1513 0.0000
vt 0.5811 0.1621 0.0000
vt 0.4983 0.1746 0.0000
vt 0.5829 0.1727 0.0000
vt 0.6630 0.1513 0.0000
vt 0.6652 0.2144 0.0000
vt 0.4191 0.1765 0.0000
vt 0.4187 0.1662 0.0000
vt 0.4210 0.1864 0.0000
vt 0.2396 0.1248 0.0000
vt 0.4194 0.1965 0.0000
vt 0.5409 0.1326 0.0000
vt 0.5419 0.1513 0.0000
vt 0.4192 0.1463 0.0000
vt 0.4187 0.1306 0.0000
vt 0.5429 0.1142 0.0000
vt 0.4211 0.1143 0.0000
vt 0.5128 0.4953 0.0000
vt 0.5113 0.5139 0.0000
vt 0.3883 0.4968 0.0000
vt 0.3898 0.4810 0.0000
vt 0.5126 0.4765 0.0000
vt 0.3905 0.4650 0.0000
vt 0.6831 0.1328 0.0000
vt 0.6850 0.1143 0.0000
vt 0.8250 0.1388 0.0000
vt 0.6840 0.1513 0.0000
vt 0.6555 0.4956 0.0000
vt 0.6551 0.4770 0.0000
vt 0.7948 0.4984 0.0000
vt 0.6539 0.5139 0.0000
vt 0.5462 0.7555 0.0000
vt 0.5469 0.7727 0.0000
vt 0.4318 0.7682 0.0000
vt 0.4316 0.7534 0.0000
vt 0.5480 0.7387 0.0000
vt 0.4338 0.7381 0.0000
vt 0.5146 0.2428 0.0000
vt 0.5136 0.2600 0.0000
vt 0.3980 0.2442 0.0000
vt 0.3991 0.2294 0.0000
vt 0.5146 0.2256 0.0000
vt 0.3999 0.2144 0.0000
vt 0.6770 0.7557 0.0000
vt 0.6786 0.7388 0.0000
vt 0.8071 0.7613 0.0000
vt 0.6775 0.7727 0.0000
vt 0.6458 0.2432 0.0000
vt 0.6457 0.2261 0.0000
vt 0.7743 0.2457 0.0000
vt 0.6447 0.2600 0.0000
vt 0.1160 0.8143 0.0000
vt 0.2462 0.8145 0.0000
vt 0.2445 0.8313 0.0000
vt 0.1142 0.8311 0.0000
vt 0.2451 0.8483 0.0000
vt 0.1149 0.8483 0.0000
vt 0.5139 0.3361 0.0000
vt 0.6443 0.3365 0.0000
vt 0.6445 0.3535 0.0000
vt 0.5140 0.3532 0.0000
vt 0.6433 0.3702 0.0000
vt 0.5130 0.3702 0.0000
vt 0.7723 0.3561 0.0000
vt 0.3742 0.8369 0.0000
vt 0.3991 0.3399 0.0000
vt 0.3999 0.3249 0.0000
vt 0.3980 0.3546 0.0000
vt 0.0000 0.8290 0.0000
vt 0.0022 0.8138 0.0000
vt 0.0002 0.8437 0.0000
vt 0.1250 0.7765 0.0000
vt 0.2681 0.7766 0.0000
vt 0.2662 0.7951 0.0000
vt 0.1230 0.7949 0.0000
vt 0.2671 0.8138 0.0000
vt 0.1240 0.8138 0.0000
vt 0.5133 0.4274 0.0000
vt 0.6566 0.4279 0.0000
vt 0.6570 0.4466 0.0000
vt 0.5135 0.4463 0.0000
vt 0.6554 0.4650 0.0000
vt 0.5120 0.4650 0.0000
vt 0.7971 0.4494 0.0000
vt 0.4090 0.8013 0.0000
vt 0.3898 0.4319 0.0000
vt 0.3905 0.4158 0.0000
vt 0.3883 0.4478 0.0000
vt 0.0000 0.7929 0.0000
vt 0.0024 0.7764 0.0000
vt 0.0005 0.8087 0.0000
vt 0.5258 0.8695 0.0000
vt 0.5248 0.8857 0.0000
vt 0.4090 0.8801 0.0000
vt 0.4099 0.8650 0.0000
vt 0.5268 0.8533 0.0000
vt 0.2718 0.1255 0.0000
vt 0.5492 0.7218 0.0000
vt 0.5508 0.7381 0.0000
vt 0.4330 0.7287 0.0000
vt 0.4316 0.7138 0.0000
vt 0.5489 0.7055 0.0000
vt 0.4323 0.6985 0.0000
vt 0.6503 0.8696 0.0000
vt 0.6513 0.8534 0.0000
vt 0.7733 0.8749 0.0000
vt 0.6494 0.8857 0.0000
vt 0.6736 0.7147 0.0000
vt 0.6731 0.6985 0.0000
vt 0.7965 0.7100 0.0000
vt 0.6749 0.7307 0.0000
vt 0.8739 0.2777 0.0000
vt 0.9587 0.2779 0.0000
vt 1.0000 0.2947 0.0000
vt 0.8727 0.2927 0.0000
vt 0.9614 0.3053 0.0000
vt 0.8718 0.3053 0.0000
vt 0.8455 0.9630 0.0000
vt 0.9404 0.9531 0.0000
vt 0.9416 0.9656 0.0000
vt 0.8463 0.9756 0.0000
vt 0.9430 0.9777 0.0000
vt 0.8482 0.9880 0.0000
vt 0.9435 0.9780 0.0000
vt 0.9835 0.9609 0.0000
vt 0.8635 0.7036 0.0000
vt 0.8705 0.7163 0.0000
vt 0.8531 0.7297 0.0000
vt 0.8472 0.7230 0.0000
vt 0.7557 0.9738 0.0000
vt 0.7557 0.9621 0.0000
vt 0.7573 0.9852 0.0000
vt 0.7731 0.2876 0.0000
vt 0.9540 0.5025 0.0000
vt 0.9532 0.4913 0.0000
vt 0.9758 0.4946 0.0000
vt 0.7723 0.3005 0.0000
vt 0.1141 0.9308 0.0000
vt 0.1150 0.9468 0.0000
vt 0.0103 0.9424 0.0000
vt 0.0099 0.9290 0.0000
vt 0.1159 0.9151 0.0000
vt 0.0120 0.9151 0.0000
vt 0.5378 0.6431 0.0000
vt 0.5366 0.6590 0.0000
vt 0.4316 0.6444 0.0000
vt 0.4328 0.6309 0.0000
vt 0.5376 0.6271 0.0000
vt 0.4335 0.6172 0.0000
vt 0.2355 0.9309 0.0000
vt 0.2371 0.9152 0.0000
vt 0.3566 0.9361 0.0000
vt 0.2363 0.9467 0.0000
vt 0.6596 0.6434 0.0000
vt 0.6593 0.6275 0.0000
vt 0.7785 0.6457 0.0000
vt 0.6582 0.6590 0.0000
vt 0.7629 0.1662 0.0000
vt 0.7635 0.1808 0.0000
vt 0.6654 0.1769 0.0000
vt 0.6652 0.1643 0.0000
vt 0.7644 0.1518 0.0000
vt 0.6679 0.1513 0.0000
vt 0.1088 0.9633 0.0000
vt 0.1079 0.9778 0.0000
vt 0.0099 0.9596 0.0000
vt 0.8678 0.4766 0.0000
vt 0.9583 0.4673 0.0000
vt 0.9544 0.4798 0.0000
vt 0.1081 0.9487 0.0000
vt 0.0101 0.9468 0.0000
vt 0.8743 0.1663 0.0000
vt 0.8758 0.1519 0.0000
vt 0.9853 0.1711 0.0000
vt 0.8748 0.1808 0.0000
vt 0.2201 0.9613 0.0000
vt 0.2196 0.9468 0.0000
vt 0.3300 0.9613 0.0000
vt 0.2194 0.9758 0.0000
vt 0.3155 0.1558 0.0000
vt 0.3155 0.6935 0.0000
vt 0.3346 0.6852 0.0000
vt 0.3346 0.1475 0.0000
vt 0.9574 0.5147 0.0000
vt 0.8432 0.4880 0.0000
vt 0.8685 0.4883 0.0000
vt 0.3537 0.6768 0.0000
vt 0.3537 0.1392 0.0000
vt 0.9650 0.5286 0.0000
vt 0.9789 0.5044 0.0000
vt 0.8396 0.4943 0.0000
vt 0.8675 0.5004 0.0000
vt 0.2963 0.1642 0.0000
vt 0.2963 0.7018 0.0000
vt 0.8358 0.5026 0.0000
vt 0.8640 0.5133 0.0000
vt 0.8566 0.5286 0.0000
vt 0.9354 0.3647 0.0000
vt 0.9694 0.3691 0.0000
vt 0.9759 0.8593 0.0000
vt 0.9520 0.8754 0.0000
vt 0.9490 0.8629 0.0000
vt 0.9819 0.8664 0.0000
vt 0.9586 0.8896 0.0000
vt 0.8380 0.4728 0.0000
vt 0.9792 0.8412 0.0000
vt 0.9527 0.8265 0.0000
vt 0.9602 0.8113 0.0000
vt 0.9753 0.8499 0.0000
vt 0.9493 0.8393 0.0000
vt 0.9482 0.8511 0.0000
vt 0.8631 0.8597 0.0000
vt 0.8643 0.8483 0.0000
vt 0.8635 0.8372 0.0000
vt 0.8601 0.8250 0.0000
vt 0.8526 0.8113 0.0000
vt 0.8504 0.8873 0.0000
vt 0.8592 0.8722 0.0000
vt 0.8395 0.8550 0.0000
vt 0.9672 0.4520 0.0000
vt 0.9861 0.4770 0.0000
vt 0.8316 0.8625 0.0000
vt 0.8388 0.8353 0.0000
vt 0.9782 0.4846 0.0000
vt 0.8419 0.8450 0.0000
vt 0.8641 0.3643 0.0000
vt 0.8650 0.3595 0.0000
vt 0.8637 0.3691 0.0000
vt 0.8666 0.3550 0.0000
vt 0.9020 0.3603 0.0000
vt 0.9035 0.3560 0.0000
vt 0.8229 0.3582 0.0000
vt 0.8247 0.3530 0.0000
vt 0.8214 0.3691 0.0000
vt 0.8218 0.3636 0.0000
vt 0.9551 0.6166 0.0000
vt 0.9563 0.6052 0.0000
vt 0.9799 0.6099 0.0000
vt 0.9776 0.6199 0.0000
vt 0.9559 0.6278 0.0000
vt 0.9363 0.3603 0.0000
vt 0.9593 0.6399 0.0000
vt 0.9807 0.6297 0.0000
vt 0.9668 0.6537 0.0000
vt 0.9377 0.3560 0.0000
vt 0.9602 0.5927 0.0000
vt 0.9690 0.5776 0.0000
vt 0.9878 0.6024 0.0000
vt 0.8703 0.6020 0.0000
vt 0.8674 0.5895 0.0000
vt 0.8607 0.5753 0.0000
vt 0.8591 0.6537 0.0000
vt 0.8667 0.6385 0.0000
vt 0.8700 0.6256 0.0000
vt 0.8712 0.6138 0.0000
vt 0.8440 0.6150 0.0000
vt 0.8434 0.6056 0.0000
vt 0.8734 0.7272 0.0000
vt 0.8742 0.7375 0.0000
vt 0.8532 0.7391 0.0000
vt 0.8401 0.6238 0.0000
vt 0.8374 0.5985 0.0000
vt 0.0354 0.7275 0.0000
vt 0.0186 0.1398 0.0000
vt 0.0368 0.1398 0.0000
vt 0.0536 0.7275 0.0000
vt 0.0717 0.7275 0.0000
vt 0.0550 0.1398 0.0000
vt 0.0731 0.1398 0.0000
vt 0.0899 0.7275 0.0000
vt 0.1438 0.7358 0.0000
vt 0.1553 0.1156 0.0000
vt 0.1553 0.7412 0.0000
vt 0.1673 0.1089 0.0000
vt 0.1787 0.1266 0.0000
vt 0.1666 0.7621 0.0000
vt 0.1325 0.7259 0.0000
vt 0.1322 0.1162 0.0000
vt 0.1438 0.1089 0.0000
vt 0.9759 0.7391 0.0000
vt 0.9741 0.7455 0.0000
vt 0.9516 0.7509 0.0000
vt 0.9509 0.7401 0.0000
vt 0.9785 0.7519 0.0000
vt 0.9543 0.7624 0.0000
vt 0.9601 0.7753 0.0000
vt 0.9832 0.7277 0.0000
vt 0.9771 0.7312 0.0000
vt 0.9550 0.7176 0.0000
vt 0.9617 0.7036 0.0000
vt 0.9520 0.7292 0.0000
vt 0.8731 0.7478 0.0000
# 490 texture coords

o Mesh_Cube001
g Mesh_Cube001
usemtl planta_Material_002
s off
f 1/1/1 2/2/1 3/3/1 
f 1/1/1 3/3/1 4/4/1 
f 4/4/2 3/3/2 5/5/2 
f 4/4/2 5/5/2 6/6/2 
f 6/7/3 5/8/3 7/9/3 
f 6/7/3 7/9/3 8/10/3 
f 2/11/4 1/12/4 8/10/4 
f 2/11/4 8/10/4 7/9/4 
f 2/11/5 7/9/5 9/13/5 
f 7/9/6 5/8/6 9/13/6 
f 5/5/7 3/3/7 9/14/7 
f 3/3/8 2/2/8 9/14/8 
f 6/7/9 8/10/9 10/15/9 
f 6/7/10 10/15/10 11/16/10 
f 8/10/11 1/12/11 10/15/11 
f 12/17/12 13/18/12 14/19/12 
f 1/1/13 4/4/13 15/20/13 
f 1/1/14 15/20/14 10/21/14 
f 4/4/15 6/6/15 11/22/15 
f 4/4/16 11/22/16 15/20/16 
f 16/23/17 17/24/17 18/25/17 
f 16/23/17 18/25/17 19/26/17 
f 19/26/18 18/25/18 20/27/18 
f 19/26/18 20/27/18 21/28/18 
f 21/29/19 20/30/19 22/31/19 
f 21/29/19 22/31/19 23/32/19 
f 17/33/20 16/34/20 23/32/20 
f 17/33/20 23/32/20 22/31/20 
f 17/33/21 22/31/21 24/35/21 
f 22/31/22 20/30/22 24/35/22 
f 20/27/23 18/25/23 24/36/23 
f 18/25/24 17/24/24 24/36/24 
f 21/29/25 23/32/25 25/37/25 
f 21/29/25 25/37/25 26/38/25 
f 23/32/26 16/34/26 27/39/26 
f 23/32/26 27/39/26 25/37/26 
f 16/23/27 19/26/27 28/40/27 
f 16/23/27 28/40/27 27/41/27 
f 19/26/28 21/28/28 26/42/28 
f 19/26/28 26/42/28 28/40/28 
f 29/43/29 30/44/29 31/45/29 
f 29/43/30 31/45/30 32/46/30 
f 33/47/31 29/43/31 32/46/31 
f 34/48/32 35/49/32 36/50/32 
f 37/51/33 33/52/33 32/53/33 
f 37/51/34 32/53/34 38/54/34 
f 30/55/35 37/51/35 38/54/35 
f 30/55/36 38/54/36 31/56/36 
f 39/57/37 40/58/37 12/59/37 
f 41/60/38 42/61/38 43/62/38 
f 44/63/39 45/64/39 46/65/39 
f 47/66/40 44/63/40 46/65/40 
f 47/66/41 33/52/41 37/51/41 
f 47/66/41 37/51/41 44/63/41 
f 30/55/42 45/64/42 44/63/42 
f 30/55/42 44/63/42 37/51/42 
f 29/43/43 46/67/43 45/68/43 
f 29/43/44 45/68/44 30/44/44 
f 33/47/45 47/69/45 46/67/45 
f 33/47/46 46/67/46 29/43/46 
f 48/70/47 49/71/47 50/72/47 
f 48/70/47 50/72/47 51/73/47 
f 51/73/48 50/72/48 52/74/48 
f 51/73/48 52/74/48 53/75/48 
f 53/76/49 52/77/49 54/78/49 
f 53/76/49 54/78/49 55/79/49 
f 49/80/50 48/81/50 55/79/50 
f 49/80/50 55/79/50 54/78/50 
f 49/80/51 54/78/51 56/82/51 
f 54/78/52 52/77/52 56/82/52 
f 52/74/53 50/72/53 56/83/53 
f 50/72/54 49/71/54 56/83/54 
f 53/76/55 55/79/55 57/84/55 
f 53/76/55 57/84/55 58/85/55 
f 55/79/56 48/81/56 59/86/56 
f 55/79/57 59/86/57 57/84/57 
f 48/70/58 51/73/58 59/87/58 
f 36/88/59 60/89/59 41/90/59 
f 51/73/60 53/75/60 58/91/60 
f 51/73/61 58/91/61 59/87/61 
f 61/92/62 62/93/62 63/94/62 
f 61/92/62 63/94/62 64/95/62 
f 65/96/63 61/92/63 64/95/63 
f 65/96/63 64/95/63 66/97/63 
f 67/98/64 65/99/64 66/100/64 
f 67/98/65 66/100/65 68/101/65 
f 62/102/66 67/98/66 68/101/66 
f 62/102/66 68/101/66 63/103/66 
f 69/104/67 70/105/67 71/106/67 
f 72/107/68 69/104/68 71/106/68 
f 73/108/69 72/109/69 71/110/69 
f 70/111/70 73/108/70 71/110/70 
f 70/111/71 65/99/71 67/98/71 
f 70/111/71 67/98/71 73/108/71 
f 62/102/72 72/109/72 73/108/72 
f 62/102/72 73/108/72 67/98/72 
f 61/92/73 69/104/73 72/107/73 
f 61/92/73 72/107/73 62/93/73 
f 65/96/74 70/105/74 69/104/74 
f 65/96/74 69/104/74 61/92/74 
f 74/112/75 75/113/75 76/114/75 
f 74/112/75 76/114/75 77/115/75 
f 78/116/76 74/112/76 77/115/76 
f 78/116/76 77/115/76 79/117/76 
f 80/118/77 78/119/77 79/120/77 
f 80/118/77 79/120/77 81/121/77 
f 75/122/78 80/118/78 81/121/78 
f 75/122/78 81/121/78 76/123/78 
f 82/124/79 83/125/79 84/126/79 
f 85/127/80 82/124/80 84/126/80 
f 86/128/81 85/129/81 84/130/81 
f 83/131/82 86/128/82 84/130/82 
f 83/131/83 78/119/83 80/118/83 
f 83/131/83 80/118/83 86/128/83 
f 75/122/84 85/129/84 86/128/84 
f 75/122/85 86/128/85 80/118/85 
f 74/112/86 82/124/86 85/127/86 
f 74/112/86 85/127/86 75/113/86 
f 78/116/87 83/125/87 82/124/87 
f 78/116/88 82/124/88 74/112/88 
f 87/132/89 88/133/89 89/134/89 
f 87/132/89 89/134/89 90/135/89 
f 90/135/90 89/134/90 91/136/90 
f 90/135/90 91/136/90 92/137/90 
f 92/138/91 91/139/91 93/140/91 
f 92/138/91 93/140/91 94/141/91 
f 88/142/92 87/143/92 94/141/92 
f 88/142/92 94/141/92 93/140/92 
f 88/142/93 93/140/93 95/144/93 
f 93/140/94 91/139/94 95/144/94 
f 91/136/95 89/134/95 95/145/95 
f 89/134/96 88/133/96 95/145/96 
f 92/138/97 94/141/97 96/146/97 
f 92/138/97 96/146/97 97/147/97 
f 94/141/98 87/143/98 98/148/98 
f 94/141/98 98/148/98 96/146/98 
f 87/132/99 90/135/99 99/149/99 
f 87/132/99 99/149/99 98/150/99 
f 90/135/100 92/137/100 97/151/100 
f 90/135/100 97/151/100 99/149/100 
f 100/152/101 101/153/101 102/154/101 
f 100/152/101 102/154/101 103/155/101 
f 103/155/102 102/154/102 104/156/102 
f 103/155/102 104/156/102 105/157/102 
f 105/158/103 104/159/103 106/160/103 
f 105/158/103 106/160/103 107/161/103 
f 101/162/104 100/163/104 107/161/104 
f 101/162/104 107/161/104 106/160/104 
f 101/162/105 106/160/105 108/164/105 
f 106/160/106 104/159/106 108/164/106 
f 104/156/107 102/154/107 108/165/107 
f 102/154/108 101/153/108 108/165/108 
f 105/158/109 107/161/109 109/166/109 
f 105/158/109 109/166/109 110/167/109 
f 107/161/110 100/163/110 111/168/110 
f 107/161/110 111/168/110 109/166/110 
f 100/152/111 103/155/111 112/169/111 
f 100/152/111 112/169/111 111/170/111 
f 103/155/112 105/157/112 110/171/112 
f 103/155/112 110/171/112 112/169/112 
f 113/172/113 114/173/113 115/174/113 
f 113/172/114 115/174/114 116/175/114 
f 117/176/115 113/172/115 116/175/115 
f 36/88/116 41/90/116 118/177/116 
f 119/178/117 117/179/117 116/180/117 
f 119/178/118 116/180/118 120/181/118 
f 114/182/119 119/178/119 120/181/119 
f 114/182/120 120/181/120 115/183/120 
f 121/184/121 122/185/121 123/186/121 
f 124/187/122 121/184/122 123/186/122 
f 125/188/123 124/189/123 123/190/123 
f 122/191/124 125/188/124 123/190/124 
f 122/191/125 117/179/125 119/178/125 
f 122/191/125 119/178/125 125/188/125 
f 114/182/126 124/189/126 125/188/126 
f 114/182/126 125/188/126 119/178/126 
f 113/172/127 121/184/127 124/187/127 
f 113/172/127 124/187/127 114/173/127 
f 117/176/128 122/185/128 121/184/128 
f 117/176/128 121/184/128 113/172/128 
f 126/192/128 127/193/128 128/194/128 
f 126/192/128 128/194/128 129/195/128 
f 129/195/127 128/194/127 130/196/127 
f 129/195/127 130/196/127 131/197/127 
f 131/198/126 130/199/126 132/200/126 
f 131/198/126 132/200/126 133/201/126 
f 127/202/125 126/192/125 133/201/125 
f 127/202/125 133/201/125 132/200/125 
f 127/202/124 132/200/124 134/203/124 
f 132/200/123 130/199/123 134/203/123 
f 130/196/122 128/194/122 134/204/122 
f 128/194/121 127/193/121 134/204/121 
f 131/198/119 133/201/119 135/205/119 
f 131/198/119 135/205/119 136/206/119 
f 133/201/117 126/192/117 137/207/117 
f 133/201/118 137/207/118 135/205/118 
f 126/192/115 129/195/115 137/207/115 
f 118/177/129 138/208/129 34/48/129 
f 129/195/113 131/197/113 136/209/113 
f 129/195/114 136/209/114 137/207/114 
f 139/210/112 140/211/112 141/212/112 
f 139/210/112 141/212/112 142/213/112 
f 143/214/111 139/210/111 142/213/111 
f 143/214/111 142/213/111 144/215/111 
f 145/216/110 143/217/110 144/218/110 
f 145/216/110 144/218/110 146/219/110 
f 140/220/109 145/216/109 146/219/109 
f 140/220/109 146/219/109 141/221/109 
f 147/222/108 148/223/108 149/224/108 
f 150/225/107 147/222/107 149/224/107 
f 151/226/106 150/227/106 149/228/106 
f 148/229/105 151/226/105 149/228/105 
f 148/229/104 143/217/104 145/216/104 
f 148/229/104 145/216/104 151/226/104 
f 140/220/103 150/227/103 151/226/103 
f 140/220/103 151/226/103 145/216/103 
f 139/210/102 147/222/102 150/225/102 
f 139/210/102 150/225/102 140/211/102 
f 143/214/101 148/223/101 147/222/101 
f 143/214/101 147/222/101 139/210/101 
f 152/230/100 153/231/100 154/232/100 
f 152/230/100 154/232/100 155/233/100 
f 156/234/99 152/230/99 155/233/99 
f 156/234/99 155/233/99 157/235/99 
f 158/236/98 156/237/98 157/238/98 
f 158/236/98 157/238/98 159/239/98 
f 153/240/97 158/236/97 159/239/97 
f 153/240/97 159/239/97 154/241/97 
f 160/242/96 161/243/96 162/244/96 
f 163/245/130 160/242/130 162/244/130 
f 164/246/94 163/247/94 162/248/94 
f 161/249/93 164/246/93 162/248/93 
f 161/249/92 156/237/92 158/236/92 
f 161/249/92 158/236/92 164/246/92 
f 153/240/91 163/247/91 164/246/91 
f 153/240/91 164/246/91 158/236/91 
f 152/230/90 160/242/90 163/245/90 
f 152/230/90 163/245/90 153/231/90 
f 156/234/89 161/243/89 160/242/89 
f 156/234/89 160/242/89 152/230/89 
f 165/250/87 166/251/87 167/252/87 
f 165/250/87 167/252/87 168/253/87 
f 168/253/86 167/252/86 169/254/86 
f 168/253/86 169/254/86 170/255/86 
f 170/256/85 169/257/85 171/258/85 
f 170/256/84 171/258/84 172/259/84 
f 166/260/83 165/261/83 172/259/83 
f 166/260/83 172/259/83 171/258/83 
f 166/260/82 171/258/82 173/262/82 
f 171/258/81 169/257/81 173/262/81 
f 169/254/80 167/252/80 173/263/80 
f 167/252/79 166/251/79 173/263/79 
f 170/256/78 172/259/78 174/264/78 
f 170/256/78 174/264/78 175/265/78 
f 172/259/77 165/261/77 176/266/77 
f 172/259/77 176/266/77 174/264/77 
f 165/250/76 168/253/76 177/267/76 
f 165/250/76 177/267/76 176/268/76 
f 168/253/75 170/255/75 175/269/75 
f 168/253/75 175/269/75 177/267/75 
f 178/270/74 179/271/74 180/272/74 
f 178/270/74 180/272/74 181/273/74 
f 181/273/73 180/272/73 182/274/73 
f 181/273/73 182/274/73 183/275/73 
f 183/276/72 182/277/72 184/278/72 
f 183/276/72 184/278/72 185/279/72 
f 179/280/71 178/281/71 185/279/71 
f 179/280/71 185/279/71 184/278/71 
f 179/280/70 184/278/70 186/282/70 
f 184/278/69 182/277/69 186/282/69 
f 182/274/68 180/272/68 186/283/68 
f 180/272/67 179/271/67 186/283/67 
f 183/276/66 185/279/66 187/284/66 
f 183/276/66 187/284/66 188/285/66 
f 185/279/64 178/281/64 189/286/64 
f 185/279/64 189/286/64 187/284/64 
f 178/270/63 181/273/63 190/287/63 
f 178/270/63 190/287/63 189/288/63 
f 181/273/62 183/275/62 188/289/62 
f 181/273/62 188/289/62 190/287/62 
f 191/290/60 192/291/60 193/292/60 
f 191/290/61 193/292/61 194/293/61 
f 195/294/58 191/290/58 194/293/58 
f 36/50/131 35/49/131 60/295/131 
f 196/296/56 195/297/56 194/298/56 
f 196/296/132 194/298/132 197/299/132 
f 192/300/55 196/296/55 197/299/55 
f 192/300/55 197/299/55 193/301/55 
f 198/302/54 199/303/54 200/304/54 
f 201/305/53 198/302/53 200/304/53 
f 202/306/52 201/307/52 200/308/52 
f 199/309/51 202/306/51 200/308/51 
f 199/309/50 195/297/50 196/296/50 
f 199/309/50 196/296/50 202/306/50 
f 192/300/49 201/307/49 202/306/49 
f 192/300/49 202/306/49 196/296/49 
f 191/290/48 198/302/48 201/305/48 
f 191/290/48 201/305/48 192/291/48 
f 195/294/47 199/303/47 198/302/47 
f 195/294/47 198/302/47 191/290/47 
f 203/310/45 204/311/45 205/312/45 
f 203/310/46 205/312/46 206/313/46 
f 206/313/43 205/312/43 207/314/43 
f 206/313/44 207/314/44 208/315/44 
f 208/316/42 207/317/42 209/318/42 
f 208/316/42 209/318/42 210/319/42 
f 204/320/41 203/321/41 210/319/41 
f 204/320/41 210/319/41 209/318/41 
f 204/322/40 209/318/40 205/323/40 
f 209/318/39 207/317/39 205/323/39 
f 40/324/133 211/325/133 13/326/133 
f 40/324/134 13/326/134 12/327/134 
f 208/316/35 210/319/35 212/328/35 
f 208/316/35 212/328/35 213/329/35 
f 210/319/33 203/321/33 214/330/33 
f 210/319/135 214/330/135 212/328/135 
f 203/310/31 206/313/31 214/331/31 
f 215/332/136 216/333/136 217/334/136 
f 206/313/29 208/315/29 213/335/29 
f 206/313/30 213/335/30 214/331/30 
f 218/336/28 219/337/28 220/338/28 
f 218/336/137 220/338/137 221/339/137 
f 222/340/27 218/336/27 221/339/27 
f 222/340/27 221/339/27 223/341/27 
f 224/342/26 222/343/26 223/344/26 
f 224/342/26 223/344/26 225/345/26 
f 219/346/25 224/342/25 225/345/25 
f 219/346/25 225/345/25 220/347/25 
f 226/348/24 227/349/24 228/350/24 
f 229/351/23 226/348/23 228/350/23 
f 230/352/22 229/353/22 228/354/22 
f 227/355/21 230/352/21 228/354/21 
f 227/355/20 222/343/20 224/342/20 
f 227/355/20 224/342/20 230/352/20 
f 219/346/19 229/353/19 230/352/19 
f 219/346/19 230/352/19 224/342/19 
f 218/336/18 226/348/18 229/351/18 
f 218/336/18 229/351/18 219/337/18 
f 222/340/17 227/349/17 226/348/17 
f 222/340/17 226/348/17 218/336/17 
f 231/356/15 232/357/15 233/358/15 
f 231/356/15 233/358/15 234/359/15 
f 235/360/13 231/356/13 234/359/13 
f 235/360/14 234/359/14 236/361/14 
f 237/362/138 235/363/138 236/364/138 
f 238/365/139 239/366/139 240/367/139 
f 232/368/9 237/362/9 236/364/9 
f 232/368/10 236/364/10 233/369/10 
f 241/370/8 242/371/8 243/372/8 
f 244/373/140 241/370/140 243/372/140 
f 245/374/6 244/375/6 243/376/6 
f 242/377/5 245/374/5 243/376/5 
f 242/377/4 235/363/4 237/362/4 
f 242/377/4 237/362/4 245/374/4 
f 232/368/3 244/375/3 245/374/3 
f 232/368/3 245/374/3 237/362/3 
f 231/356/2 241/370/2 244/373/2 
f 231/356/2 244/373/2 232/357/2 
f 235/360/1 242/371/1 241/370/1 
f 235/360/1 241/370/1 231/356/1 
f 246/378/141 247/379/141 248/380/141 
f 246/378/142 248/380/142 249/381/142 
f 250/382/143 215/332/143 217/334/143 
f 138/383/144 238/365/144 251/384/144 
f 249/381/145 248/380/145 252/385/145 
f 249/381/146 252/385/146 253/386/146 
f 254/387/147 250/382/147 255/388/147 
f 35/389/148 251/384/148 256/390/148 
f 253/391/149 252/392/149 247/379/149 
f 253/391/150 247/379/150 246/378/150 
f 60/393/151 257/394/151 42/395/151 
f 35/389/152 138/383/152 251/384/152 
f 255/19/153 217/396/153 258/397/153 
f 247/398/154 259/399/154 260/400/154 
f 247/398/155 252/401/155 261/402/155 
f 247/398/156 261/402/156 259/399/156 
f 41/60/157 60/403/157 42/61/157 
f 252/404/158 262/405/158 261/406/158 
f 252/404/159 248/407/159 263/408/159 
f 252/404/160 263/408/160 262/405/160 
f 250/382/161 217/334/161 255/388/161 
f 248/407/162 264/409/162 263/408/162 
f 248/407/163 247/398/163 260/400/163 
f 248/407/164 260/400/164 264/409/164 
f 264/409/165 260/400/165 265/410/165 
f 264/409/165 265/410/165 266/411/165 
f 263/408/166 264/409/166 266/411/166 
f 263/408/166 266/411/166 267/412/166 
f 262/405/167 263/408/167 267/412/167 
f 262/405/168 267/412/168 268/413/168 
f 261/406/169 262/405/169 268/413/169 
f 261/406/170 268/413/170 269/414/170 
f 259/399/171 261/402/171 269/415/171 
f 259/399/171 269/415/171 270/416/171 
f 260/400/172 259/399/172 270/416/172 
f 260/400/172 270/416/172 265/410/172 
f 265/410/173 270/416/173 271/417/173 
f 239/366/174 254/418/174 255/419/174 
f 270/416/175 269/415/175 272/420/175 
f 270/416/176 272/420/176 271/417/176 
f 269/414/37 268/413/37 272/421/37 
f 216/333/177 240/367/177 273/422/177 
f 268/413/133 267/412/133 274/423/133 
f 268/413/178 274/423/178 272/421/178 
f 267/412/179 266/411/179 274/423/179 
f 240/367/180 239/366/180 273/422/180 
f 266/411/181 265/410/181 271/417/181 
f 266/411/182 271/417/182 274/423/182 
f 274/424/183 271/425/183 275/17/183 
f 138/383/184 41/60/184 238/365/184 
f 272/426/12 274/424/12 275/17/12 
f 216/333/185 273/422/185 217/334/185 
f 271/425/186 272/427/186 275/17/186 
f 239/366/187 255/419/187 273/422/187 
f 276/428/186 12/429/186 14/19/186 
f 277/430/186 278/431/186 279/426/186 
f 41/60/188 43/62/188 238/365/188 
f 278/432/12 280/433/12 279/426/12 
f 42/395/189 250/382/189 254/387/189 
f 280/433/183 277/430/183 279/426/183 
f 281/434/181 282/435/181 277/436/181 
f 281/434/182 277/436/182 280/437/182 
f 283/438/179 281/434/179 280/437/179 
f 217/396/190 273/439/190 258/397/190 
f 284/440/133 283/438/133 280/437/133 
f 284/440/134 280/437/134 278/441/134 
f 285/442/37 284/440/37 278/441/37 
f 273/439/191 255/443/191 258/397/191 
f 286/444/175 285/445/175 278/446/175 
f 286/444/192 278/446/192 277/436/192 
f 282/435/173 286/444/173 277/436/173 
f 257/394/193 256/390/193 215/332/193 
f 287/447/172 288/448/172 286/444/172 
f 287/447/172 286/444/172 282/435/172 
f 288/448/194 289/449/194 285/445/194 
f 288/448/194 285/445/194 286/444/194 
f 289/450/169 290/451/169 284/440/169 
f 289/450/169 284/440/169 285/442/169 
f 290/451/168 291/452/168 283/438/168 
f 290/451/168 283/438/168 284/440/168 
f 291/452/166 292/453/166 281/434/166 
f 291/452/166 281/434/166 283/438/166 
f 292/453/165 287/447/165 282/435/165 
f 292/453/165 282/435/165 281/434/165 
f 293/454/163 294/455/163 287/447/163 
f 293/454/164 287/447/164 292/453/164 
f 295/456/181 296/457/181 276/458/181 
f 293/454/162 292/453/162 291/452/162 
f 297/459/159 293/454/159 291/452/159 
f 297/459/160 291/452/160 290/451/160 
f 13/18/183 276/428/183 14/19/183 
f 297/459/158 290/451/158 289/450/158 
f 294/455/155 297/460/155 289/449/155 
f 294/455/156 289/449/156 288/448/156 
f 211/325/179 295/456/179 13/326/179 
f 294/455/154 288/448/154 287/447/154 
f 35/389/195 256/390/195 257/394/195 
f 43/62/196 42/61/196 254/418/196 
f 298/461/149 297/462/149 294/463/149 
f 298/461/150 294/463/150 299/464/150 
f 60/393/197 35/389/197 257/394/197 
f 42/395/189 257/394/189 250/382/189 
f 300/465/145 293/466/145 297/467/145 
f 300/465/146 297/467/146 298/468/146 
f 295/456/182 276/458/182 13/326/182 
f 43/62/196 254/418/196 239/366/196 
f 299/464/141 294/463/141 293/466/141 
f 299/464/142 293/466/142 300/465/142 
f 256/390/198 251/384/198 216/333/198 
f 301/469/199 302/470/199 303/471/199 
f 303/471/200 302/470/200 304/472/200 
f 34/48/201 138/208/201 35/49/201 
f 303/471/202 304/472/202 305/473/202 
f 303/471/146 305/473/146 306/474/146 
f 251/384/203 238/365/203 240/367/203 
f 238/365/139 43/62/139 239/366/139 
f 306/475/204 305/476/204 307/477/204 
f 306/475/205 307/477/205 301/469/205 
f 301/469/206 307/477/206 302/470/206 
f 118/177/207 41/90/207 138/208/207 
f 302/478/208 307/479/208 308/480/208 
f 302/478/209 308/480/209 309/481/209 
f 307/479/210 305/482/210 310/483/210 
f 307/479/211 310/483/211 308/480/211 
f 251/384/203 240/367/203 216/333/203 
f 305/482/158 311/484/158 310/483/158 
f 305/485/212 304/486/212 312/487/212 
f 305/485/160 312/487/160 311/488/160 
f 304/486/213 302/478/213 313/489/213 
f 304/486/214 313/489/214 312/487/214 
f 256/390/198 216/333/198 215/332/198 
f 302/478/215 309/481/215 313/489/215 
f 313/489/165 309/481/165 296/457/165 
f 313/489/165 296/457/165 295/456/165 
f 312/487/166 313/489/166 295/456/166 
f 312/487/166 295/456/166 211/325/166 
f 311/488/167 312/487/167 211/325/167 
f 311/488/167 211/325/167 40/324/167 
f 310/483/170 311/484/170 40/58/170 
f 310/483/170 40/58/170 39/57/170 
f 308/480/171 310/483/171 39/57/171 
f 308/480/171 39/57/171 314/490/171 
f 309/481/172 308/480/172 314/490/172 
f 309/481/172 314/490/172 296/457/172 
f 296/457/173 314/490/173 276/458/173 
f 257/394/193 215/332/193 250/382/193 
f 314/490/175 39/57/175 12/59/175 
f 314/490/192 12/59/192 276/458/192 
usemtl planta_Material_002_NONE
f 234/358/216 233/364/216 236/359/216 
f 146/218/217 144/213/217 142/212/217 
f 142/212/218 141/219/218 146/218/218 
f 137/209/219 136/205/219 135/207/219 
f 59/91/220 58/84/220 57/86/220 
f 246/381/221 249/386/221 253/378/221 
f 81/120/222 79/115/222 77/114/222 
f 77/114/223 76/121/223 81/120/223 
f 225/344/224 223/339/224 221/338/224 
f 221/338/225 220/345/225 225/344/225 
f 15/22/216 11/15/216 10/20/216 
f 187/286/226 189/287/226 190/289/226 
f 190/289/227 188/284/227 187/286/227 
f 212/330/228 214/335/228 213/328/228 
f 25/39/224 27/40/224 28/42/224 
f 28/42/225 26/37/225 25/39/225 
f 193/299/220 197/298/220 194/292/220 
f 306/469/221 301/471/221 303/474/221 
f 31/54/228 38/53/228 32/45/228 
f 159/238/229 157/233/229 155/232/229 
f 155/232/230 154/239/230 159/238/230 
f 299/465/221 300/468/221 298/464/221 
f 99/151/230 97/146/230 96/148/230 
f 96/148/229 98/149/229 99/151/229 
f 177/269/231 175/264/231 174/266/231 
f 174/266/232 176/267/232 177/269/232 
f 112/171/218 110/166/218 109/168/218 
f 109/168/217 111/169/217 112/171/217 
f 36/177/233 118/48/233 34/50/233 
f 115/181/219 120/180/219 116/174/219 
# 538 faces

